<?xml version="1.0" standalone="no"?>
<!DOCTYPE svg PUBLIC "-//W3C//DTD SVG 1.1//EN" "http://www.w3.org/Graphics/SVG/1.1/DTD/svg11.dtd">
<svg xmlns="http://www.w3.org/2000/svg">
<metadata>Generated by Fontastic.me</metadata>
<defs>
<font id="qticons" horiz-adv-x="512">
<font-face font-family="qticons" units-per-em="512" ascent="480" descent="-32"/>
<missing-glyph horiz-adv-x="512" />

<glyph unicode="&#97;" d="M256 484c-126 0-229-102-229-228 0-126 103-229 229-229 126 0 229 103 229 229 0 126-103 228-229 228z m0-421c-106 0-193 87-193 193 0 106 87 193 193 193 106 0 193-87 193-193 0-106-87-193-193-193z m41 140c-1-2-3-2-5-2-9 0-12 13-18 19-12-15-44-29-68-16-25 12-28 55-8 75 16 15 44 18 70 20 0 14 0 24-8 29-9 5-23 3-29-4-5-5-5-11-9-16-11 2-24 3-33 7 5 28 24 41 53 45 6 0 12 0 18 0 12-2 29-5 38-16 19-20 6-65 10-95 0-2 1-5 1-8 2-5 11-12 10-18 0-1-1-2-2-4z m-68 59c-12-20 8-45 27-30 10 8 13 26 12 44-17 0-32-3-39-14z m138-54c0-1 0-2 0-4-1-8-3-14-7-21-3-6-8-16-14-12-5 2-1 10 0 14 2 6 4 9 4 16-9 4-28-7-30 2-3 13 45 21 47 5z m-110-56c-6 0-12 0-19 0-21 2-38 9-53 19-15 9-29 19-40 32 0 0 0 0 0 1 5 11 16-1 25-6 20-10 41-20 67-23 30-3 55 3 77 11 8 3 27 15 27 1 0-5-11-12-15-14-20-12-42-18-69-21z"/>
<glyph unicode="&#98;" d="M256 485c-126 0-229-103-229-229 0-126 103-229 229-229 126 0 229 103 229 229 0 126-103 229-229 229z m0-422c-106 0-193 87-193 193 0 106 87 193 193 193 106 0 193-87 193-193 0-106-87-193-193-193z m101 178c0 56-45 102-101 102-56 0-101-46-101-102 0-26 9-50 27-69 3-2 7-3 9 0l11 10c3 2 3 6 0 9-13 14-20 32-20 50 0 41 33 74 74 74 41 0 74-33 74-74 0-18-7-36-20-50-3-3-2-7 0-9l11-10c3-3 7-2 9 0 17 19 27 43 27 69m38 1c0 14-2 27-6 40 0 0 0 0 0 0 0 0 0 0 0 0-1 4-4 5-8 4l-14-4c-3-1-5-5-4-8 3-10 5-21 5-32 0-20-5-39-15-55-2-3-1-7 2-9l13-8c3-1 7-1 8 2 13 21 19 45 19 70m-236-55c-10 16-15 35-15 55 0 11 2 22 5 32 1 3-1 7-4 8l-14 4c-4 1-7 0-8-4-4-13-7-26-7-40 0-25 7-49 20-70l0 0c1-2 5-3 8-2l13 8c3 2 4 6 2 9z"/>
<glyph unicode="&#99;" d="M256 484c-126 0-229-102-229-228 0-126 103-229 229-229 126 0 229 103 229 229 0 126-103 228-229 228z m0-421c-106 0-193 87-193 193 0 106 87 193 193 193 106 0 193-87 193-193 0-106-87-193-193-193z m-2 315c-67 0-121-55-121-122 0-67 54-122 121-122 68 0 122 55 122 122 0 67-54 122-122 122z m0-183c-33 0-60 27-60 61 0 34 27 61 60 61 34 0 61-27 61-61 0-34-27-61-61-61z m0 97c-19 0-36-16-36-36 0-20 17-36 36-36 20 0 37 16 37 36 0 20-17 36-37 36z m0-51c-8 0-15 7-15 15 0 8 7 15 15 15 9 0 16-7 16-15 0-8-7-15-16-15z"/>
<glyph unicode="&#100;" d="M256 27c126 0 228 103 228 229 0 126-102 228-228 228-126 0-229-102-229-228 0-126 103-229 229-229z m0 422c106 0 193-87 193-193 0-107-87-193-193-193-106 0-193 86-193 193 0 106 87 193 193 193z m-21-293l100 100-100 100-29-29 71-71-71-71z"/>
<glyph unicode="&#101;" d="M256 484c-126 0-229-102-229-228 0-126 103-229 229-229 126 0 229 103 229 229 0 126-103 228-229 228z m0-421c-106 0-193 87-193 193 0 106 87 193 193 193 106 0 193-87 193-193 0-106-87-193-193-193z m-53 124c0-15-12-27-27-27-14 0-26 12-26 27 0 14 12 26 26 26 15 0 27-12 27-26z m71 130c0-15-12-27-27-27-14 0-26 12-26 27 0 14 12 26 26 26 15 0 27-12 27-26z m-36-35l0-144 18 0 0 144c-3 0-6-1-9-1-3 0-6 1-9 1z m18 71l0 15-18 0 0-15c3 0 6 0 9 0 3 0 6 0 9 0z m-88-200l0-15 17 0 0 15c-3-1-5-1-9-1-3 0-6 0-8 1z m17 70l0 145-17 0 0-145c2 1 5 1 8 1 4 0 6 0 9-1z m177 59c0-15-12-26-26-26-15 0-27 11-27 26 0 15 12 27 27 27 14 0 26-12 26-27z m-18 35l0 51-17 0 0-51c3 0 6 0 9 0 3 0 6 0 8 0z m-17-71l0-108 17 0 0 108c-2 0-5-1-8-1-3 0-6 1-9 1z"/>
<glyph unicode="&#102;" d="M256 485c-126 0-229-103-229-229 0-126 103-229 229-229 126 0 229 103 229 229 0 126-103 229-229 229z m0-422c-106 0-193 87-193 193 0 106 87 193 193 193 106 0 193-87 193-193 0-106-87-193-193-193z m20 300c7 5 11 7 11 7l-74 0c-15 0-57-17-57-56 0-40 43-48 59-47-9-11-1-21 3-26 5-5 4-6-2-6-5 0-74-1-74-51 0-49 91-53 122-26 30 27 23 64 0 80-23 17-32 25-17 38 15 13 27 23 27 48 0 24-21 37-21 37 0 0 15-2 23 2z m-12-176c0-21-18-32-49-32-30 0-47 16-47 39 0 22 22 34 64 34 12-9 32-20 32-41z m-44 89c-37 0-54 87-11 87 34 1 60-87 11-87z m122 66l0 28-14 0 0-28-29 0 0-15 29 0 0-28 14 0 0 28 28 0 0 15z"/>
<glyph unicode="&#103;" d="M256 484c-126 0-229-102-229-228 0-126 103-228 229-228 126 0 229 102 229 228 0 126-103 228-229 228z m0-421c-106 0-193 86-193 193 0 106 87 193 193 193 106 0 193-87 193-193 0-107-87-193-193-193z m0 250c16 0 29 13 29 29 0 16-13 28-29 28-16 0-29-12-29-28 0-16 13-29 29-29z m-43-14l0-72 14 0 0-85 58 0 0 85 14 0 0 72z"/>
<glyph unicode="&#104;" d="M256 484c-126 0-229-102-229-228 0-126 103-229 229-229 126 0 229 103 229 229 0 126-103 228-229 228z m0-421c-106 0-193 86-193 193 0 106 87 193 193 193 106 0 193-87 193-193 0-107-87-193-193-193z m63 79c6 0 51 34 51 38 0 4-51 36-55 36-5 0-20-17-24-19-4-2-29-2-56 26-28 28-38 60-38 65 0 5 23 21 24 24 1 4-31 58-36 58-5 0-43-47-43-51 0-3 3-54 67-117 63-64 105-60 110-60z"/>
<glyph unicode="&#105;" d="M258 488c-126 0-229-102-229-228 0-126 103-229 229-229 126 0 228 103 228 229 0 126-102 228-228 228z m0-421c-107 0-193 86-193 193 0 106 86 193 193 193 106 0 193-87 193-193 0-107-87-193-193-193z m-48 254c0 0 0 0 0 0 18-1 30-8 40-17 10-9 18-19 28-28-6-7-12-13-19-20 0 0-2-2-2-2-1 0-4 3-5 4-4 4-8 8-12 12-8 8-15 18-30 20-5 1-10 0-16 0-11 0-22 0-33 0 0-5 0-10 0-15 9 0 19 0 29 0 10 0 19 1 26-3 2-1 5-4 7-6 10-10 19-20 29-29 2-3 5-5 8-7 4-1 8-1 14-1 24 0 47 0 71 0 1 1 0 1-1 2-18 18-35 35-53 53-1 1-2 2-2 2 0 0 2 2 3 3 6 6 12 13 19 19 21-21 43-43 65-65 4-4 8-7 10-12 0-1 0-2 0-3-1-4-4-6-7-9-4-4-8-8-12-12-4-4-8-8-16-8-30 0-59 0-89 0-5 0-9-1-12 0-3 1-6 2-8 5-5 3-9 8-13 12-6 6-13 13-19 19-4 4-7 8-13 9-3 1-6 0-10 0-19 0-39 0-57 0 0 26 0 52 0 77 27 0 53 0 80 0z"/>
<glyph unicode="&#106;" d="M256 485c-126 0-229-103-229-229 0-126 103-229 229-229 126 0 229 103 229 229 0 126-103 229-229 229z m0-422c-106 0-193 87-193 193 0 106 87 193 193 193 106 0 193-87 193-193 0-106-87-193-193-193z m86 193l-172 0 0 29-28 0 0-58 228 0 0 58-28 0z"/>
<glyph unicode="&#107;" d="M256 484c-126 0-229-102-229-228 0-126 103-229 229-229 126 0 229 103 229 229 0 126-103 228-229 228z m0-421c-106 0-193 87-193 193 0 106 87 193 193 193 106 0 193-87 193-193 0-106-87-193-193-193z m8 183l-3-1c-4 0-6-1-8-2-2-1-4-4-4-7 0-3 1-5 3-6 1-1 3-2 6-2 3 0 6 1 9 3 3 2 5 6 5 12l0 6c-1-1-2-1-3-2-1 0-3-1-5-1z m-152 99l-3-174 292-4 2 173z m220-48l9 0-9-9-6 0z m-158-29l-10 0 0-32c0-3 0-5 1-5 0-1 2-1 5-1 1 0 1 0 2 0 1 0 1 0 2 0l0-12-8 0c-8-1-13 1-16 4-2 1-2 4-2 8l0 38-9 0 0 12 9 0 0 17 16 0 0-17 10 0z m57-50l-16 0 0 38c0 4-1 6-2 8-2 3-4 5-8 5-5 0-8-2-10-5-2-2-3-7-3-12l0-33-17 0 0 83 17 0 0-30c2 4 5 7 8 8 3 1 6 2 9 2 4 0 8-1 11-2 3-1 5-3 7-6 2-2 3-5 4-7 0-3 0-7 0-12l0-37z m91 0l-8 0c-8-1-13 1-16 4-1 1-2 4-2 8l0 38-9 0c1-1 1-3 1-5l0-29c0-2 0-4 0-7 0-2 1-3 1-4 1-1 2-2 3-2l0-3-18 0c-1 2-1 3-1 4 0 1 0 2-1 4-2-3-4-5-7-6-4-2-8-3-12-3-6 0-11 1-14 4-4 4-6 8-6 14 0 8 3 13 9 17 3 1 8 3 14 4l6 0c3 1 5 1 7 2 2 1 3 2 3 4 0 3-1 4-3 5-1 1-4 2-8 2-3 0-6-1-8-3-1-1-2-3-2-6l-16 0c1 6 2 10 5 14 4 5 12 8 22 8 7 0 13-1 18-4 4-2 6-4 7-8l0 10 9 0 0 17 16 0 0-17 10 0 0-12-10 0 0-32c0-3 0-5 1-5 0-1 2-1 6-1 0 0 1 0 1 0 1 0 1 0 2 0z m49 4c-4-4-11-6-21-6-10 0-17 2-21 7-5 4-7 9-7 15l16 0c0-3 1-5 2-6 2-2 6-3 11-3 4 0 6 0 8 1 2 1 3 3 3 5 0 1-1 3-2 4-2 1-8 2-17 5-7 1-12 4-15 6-3 3-5 6-5 11 0 6 3 11 7 15 5 4 11 6 19 6 8 0 14-1 19-4 5-3 8-9 9-16l-17 0c0 2 0 3-1 5-2 2-5 3-10 3-3 0-6-1-7-2-2-1-2-2-2-4 0-2 0-3 2-4 2-1 7-2 17-4 6-2 11-4 14-7 4-3 5-7 5-12 0-6-2-11-7-15z"/>
<glyph unicode="&#108;" d="M256 485c-126 0-229-103-229-229 0-126 103-229 229-229 126 0 229 103 229 229 0 126-103 229-229 229z m0-422c-106 0-193 87-193 193 0 106 87 193 193 193 107 0 193-87 193-193 0-106-87-193-193-193z m-114 193c0-45 26-84 64-103l-54 149c-7-14-10-29-10-46z m116-10l-34-100c10-3 21-4 32-4 13 0 26 2 38 6 0 1-1 1-1 2z m75 16c0 14-5 24-9 31-6 10-11 18-11 27 0 11 7 20 19 20 0 0 1 0 1 0-20 19-47 30-77 30-40 0-75-20-95-51 2 0 5 0 7 0 12 0 30 1 30 1 7 0 7-9 1-9 0 0-6-1-13-1l42-124 25 75-18 49c-6 0-12 1-12 1-6 0-6 9 1 9 0 0 18-1 30-1 12 0 30 1 30 1 6 0 7-9 1-9 0 0-6-1-13-1l41-123 11 38c6 15 9 27 9 37z m24 37c0-12-2-25-9-41l-35-101c34 20 57 57 57 99 0 20-5 39-14 55 1-4 1-8 1-12z"/>
<glyph unicode="&#109;" d="M256 485c-126 0-229-103-229-229 0-126 103-229 229-229 126 0 229 103 229 229 0 126-103 229-229 229z m0-422c-106 0-193 87-193 193 0 106 87 193 193 193 106 0 193-87 193-193 0-106-87-193-193-193z m67 224c0 0 9 5 15 5 6 0 15 0 15 0l5 14-92 0 1-11 5-2 24-1c0 0 2-5-2-8-4-3-39-34-39-34l-44 54c0 0 1 1 7 1 7 0 25 0 25 0l0 22-101 0 0-22c0 0 13 0 19 0 6 0 14-7 20-13 6-6 51-53 51-53l0-39c0 0-3-5-16-5-13 0-18-1-18-1l0-9 101 0 0 6c0 0-3 5-5 5l-24 0c-3 0-4 3-4 7 0 5 0 34 0 34z m22-73l7-1 18 58-25 2z m-11-29l22 0 1 20-23 0z"/>
<glyph unicode="&#110;" d="M256 485c-126 0-229-103-229-229 0-126 103-229 229-229 126 0 229 103 229 229 0 126-103 229-229 229z m0-422c-106 0-193 87-193 193 0 106 86 193 193 193 107 0 193-87 193-193 0-106-87-193-193-193z m-37 307l-9-35-1 0-9 35-15 0 19-58 0-25 11 0 0 26 19 57z m47-38c0 5-1 10-4 13-4 3-5 5-11 5-6 0-7-3-11-5-3-3-5-8-5-13l0-27c0-6 2-10 5-13 4-4 5-5 11-5 6 0 7 1 10 5 4 3 5 7 5 13z m42 18l-11 0 0-42c-1-1-6-9-7-9-2 0-2 1-2 1-1 1-1 2-1 4l0 46-11 0 0-51c0-4 1-9 3-12 1-1 6-1 10 2 3 2 6 6 8 11l0-12 11 0 0 62z m62-126c0 23-18 43-41 43l-146 0c-23 0-41-20-41-43l0-40c0-23 18-42 41-42l146 0c23 0 41 19 41 42z m-57-61c-5 0-9 1-11 4-3 3-5 7-5 13l0 24c0 5 2 13 5 16 3 3 7 5 12 5 4 0 8-2 11-4 2-3 4-12 4-17l0-10-21 0 0-14c0-3 1-5 1-6 1-1 2-2 4-2 2 0 3 1 4 2 0 1 1 3 1 6l0 2 11 0 0-2c0-6-2-10-4-13-3-3-7-4-12-4z m5 39l0 2c0 2-1 9-1 10-1 1-2 1-4 1-2 0-3 0-4-1 0-1-1-8-1-10l0-2z m-41-39c-2 0-4 0-5 1-2 1-4 2-5 4l0-5-11 0 0 83 10 0 0-25c2 2 4 3 5 4 2 1 4 1 6 1 3 0 6-1 7-4 2-2 3-6 3-10l0-37c0-4-1-7-2-9-2-2-5-3-8-3z m0 48c0 2-1 4-2 5-1 1-2 1-4 1 0 0-1 0-2-1-1 0-2 0-3-1l0-41c1-1 3-1 3-2 1 0 2 0 3 0 1 0 2 0 3 1 1 1 2 2 2 4z m-42-41c-2-2-4-5-7-6-2-1-4-2-6-2-2 0-4 1-6 3-1 2-2 4-2 8l0 52 11 0 0-49c0-1 0-2 0-3 1 0 2 0 3 0 0 0 2 0 3 1 2 1 3 2 4 3l0 48 11 0 0-62-11 0z m-31-7l-10 0 0 72-11 0 0 11 32 0 0-11-11 0z m47 135c-2 0-3 1-4 2-1 1-2 2-2 4l0 29c0 1 1 2 2 3 1 1 2 1 4 1 1 0 2 0 3-1 1-1 2-2 2-3l0-29c0-2-1-3-2-4-1-1-2-2-3-2z"/>
<glyph unicode="&#111;" d="M256 485c-126 0-229-103-229-229 0-126 103-229 229-229 126 0 229 103 229 229 0 126-103 229-229 229z m0-422c-106 0-193 87-193 193 0 106 87 193 193 193 106 0 193-87 193-193 0-106-87-193-193-193z m14 279l72 0 0-72 28 0 0 100-100 0z m-100-72l0 72 72 0 0 28-100 0 0-100z m72-100l-72 0 0 72-28 0 0-100 100 0z m100 72l0-72-72 0 0-28 100 0 0 100z m-143 28l114 0 0-28-114 0z"/>
<glyph unicode="&#112;" d="M256 484c-126 0-229-102-229-228 0-126 103-229 229-229 126 0 229 103 229 229 0 126-103 228-229 228z m0-421c-106 0-193 87-193 193 0 106 87 193 193 193 106 0 193-87 193-193 0-106-87-193-193-193z m-7 101c0-10-8-17-17-17-10 0-18 7-18 17 0 9 8 17 18 17 9 0 17-8 17-17z m78 0c0-10-7-17-17-17-9 0-17 7-17 17 0 9 8 17 17 17 10 0 17-8 17-17z m-13 56l-81 0-51 106-56 0 0-26 40 0 51-106 113 0 46 101-28 0z"/>
<glyph unicode="&#113;" d="M256 484c-126 0-229-102-229-228 0-126 103-229 229-229 126 0 229 103 229 229 0 126-103 228-229 228z m0-421c-106 0-193 87-193 193 0 106 87 193 193 193 106 0 193-87 193-193 0-106-87-193-193-193z m103 262l-204 0c-6 0-11-5-11-10l0-118c0-5 5-10 11-10l21 0 11 31 140 0 11-31 21 0c5 0 6 5 6 10l0 118c0 5-1 10-6 10z m-3-83l-203 0 0 54 11 9 183 0 9-10z m-161-37l-6-18 136 0-6 18z m29 67c0-9-7-16-15-16-9 0-15 7-15 16 0 8 6 15 15 15 8 0 15-7 15-15z m95 0c0-9-6-16-15-16-8 0-15 7-15 16 0 8 7 15 15 15 9 0 15-7 15-15z"/>
<glyph unicode="&#114;" d="M256 485c-126 0-229-103-229-229 0-126 103-229 229-229 126 0 229 103 229 229 0 126-103 229-229 229z m0-422c-106 0-193 87-193 193 0 106 87 193 193 193 107 0 193-87 193-193 0-106-87-193-193-193z m86 136l0-29-172 0 0 29-28 0 0-57 228 0 0 57z m-72 57l0 114-28 0 0-114-43 0 57-71 57 71z"/>
<glyph unicode="&#115;" d="M256 484c-126 0-229-102-229-228 0-126 103-229 229-229 126 0 229 103 229 229 0 126-103 228-229 228z m0-421c-106 0-193 87-193 193 0 106 87 193 193 193 106 0 193-87 193-193 0-106-87-193-193-193z m62 322l-8 3-17-44 10 0z m3-235l-56 0 0 76 99 118-61 0-23-61c6-4 9-12 6-20-3-9-13-13-22-10-9 3-13 13-10 22 3 7 10 12 18 11l21 58-149 0 100-118 0-76-55 0c-18 0-18-19 0-19l132 0c18 0 18 19 0 19z"/>
<glyph unicode="&#116;" d="M256 484c-126 0-229-102-229-228 0-126 103-229 229-229 126 0 229 103 229 229 0 126-103 228-229 228z m0-421c-106 0-193 87-193 193 0 106 87 193 193 193 106 0 193-87 193-193 0-106-87-193-193-193z m-11 305c54 4 92-25 112-58 10-17 17-36 17-67 0-16 0-27 0-43 0-13 0-28-13-28-16-1-14 18-14 36 0 15 1 35 0 50-2 25-13 43-27 56-16 17-40 30-75 28-42-4-79-39-83-84-1-13 0-34 0-50 0-18 2-36-13-36-12-1-14 10-14 26 0 13 0 28 0 40 0 57 18 85 51 108 15 11 36 20 59 22z m-51-128c9 1 20-5 23-14 2-6 1-24 1-33 0-8 1-25-2-32-7-17-34-17-41 1-3 8-1 23-1 32 0 26-2 44 20 46z m117 0c9 1 19-5 22-12 3-4 2-25 2-33 0-4 2-26-1-33-7-18-33-18-41-1-3 6-2 22-2 32 0 16-1 28 2 35 2 5 8 11 18 12z"/>
<glyph unicode="&#117;" d="M256 484c-126 0-229-102-229-228 0-126 103-229 229-229 126 0 229 103 229 229 0 126-103 228-229 228z m0-421c-106 0-193 87-193 193 0 106 87 193 193 193 106 0 193-87 193-193 0-106-87-193-193-193z m-112 82l63 32 0 190-63-32z m79 32l64-32 0 190-64 32z m79-32l64 32 0 190-64-32z"/>
<glyph unicode="&#118;" d="M256 485c-126 0-229-103-229-229 0-126 103-229 229-229 126 0 229 103 229 229 0 126-103 229-229 229z m0-422c-106 0-193 87-193 193 0 106 87 193 193 193 106 0 193-87 193-193 0-106-87-193-193-193z m90 254l-50 0c-10 6-27 10-40 10-13 0-30-4-40-10l-10 0c0 11-9 10-14 10l-18 0c-5 0-8-5-8-10-5 0-10-3-10-7l0-108c0-4 5-7 10-7l50 0c10-6 27-10 40-10 13 0 30 4 40 10l50 0c5 0 10 3 10 7l0 108c0 4-5 7-10 7z m-180-112l0 102 40 0c-15-13-23-30-23-51 0-21 8-38 23-51z m123-3c-5-2-10-4-16-6 0 0 0 0 0 0-3-1-5-1-7-2-1 0-1 0-2 0-3 0-5 0-8 0-3 0-5 0-8 0-1 0-1 0-2 0-2 1-4 1-7 2 0 0 0 0 0 0-6 2-11 4-16 6-18 11-31 31-31 54 0 23 13 43 31 54 5 2 10 4 16 6 0 0 0 0 0 0 3 1 5 1 7 2 1 0 1 0 2 0 3 0 5 1 8 1 3 0 5-1 8-1 1 0 1 0 2 0 2-1 4-1 7-2 0 0 0 0 1 0 5-2 10-4 15-6 18-11 31-31 31-54 0-23-13-43-31-54z m57 3l-40 0c15 13 23 30 23 51 0 21-8 38-23 51l40 0z m-90 102l0-10c23 0 40-18 40-41l10 0c0 27-22 51-50 51z"/>
<glyph unicode="&#119;" d="M256 484c-126 0-229-102-229-228 0-126 103-229 229-229 126 0 229 103 229 229 0 126-103 228-229 228z m0-421c-106 0-193 87-193 193 0 106 87 193 193 193 106 0 193-87 193-193 0-106-87-193-193-193z m0 300l-27-82-86 0 70-50-27-82 70 50 70-50-27 81 70 51-86 0z"/>
<glyph unicode="&#120;" d="M291 293l-35 72-35-72-79-11 57-56-14-78 71 37 70-38-13 79 57 55z m-35 192c-126 0-229-103-229-229 0-126 103-229 229-229 126 0 229 103 229 229 0 126-103 229-229 229z m0-422c-106 0-193 87-193 193 0 106 87 193 193 193 106 0 193-87 193-193 0-106-87-193-193-193z"/>
<glyph unicode="&#121;" d="M256 485c-126 0-229-103-229-229 0-126 103-229 229-229 126 0 229 103 229 229 0 126-103 229-229 229z m0-422c-106 0-193 87-193 193 0 106 87 193 193 193 106 0 193-87 193-193 0-106-87-193-193-193z m-71 264l142 0 0-142-142 0z"/>
<glyph unicode="&#122;" d="M256 485c-126 0-229-103-229-229 0-126 103-229 229-229 126 0 229 103 229 229 0 126-103 229-229 229z m0-422c-106 0-193 87-193 193 0 106 87 193 193 193 106 0 193-87 193-193 0-106-87-193-193-193z m-100 293l57 0 0-57-57 0z m71 0l58 0 0-57-58 0z m72 0l57 0 0-57-57 0z m0-71l57 0 0-58-57 0z m0-72l57 0 0-57-57 0z m-72 0l58 0 0-57-58 0z m-71 0l57 0 0-57-57 0z m0 72l57 0 0-58-57 0z m71 0l58 0 0-58-58 0z"/>
<glyph unicode="&#65;" d="M256 485c-126 0-229-103-229-229 0-126 103-229 229-229 126 0 229 103 229 229 0 126-103 229-229 229z m0-422c-106 0-193 87-193 193 0 106 87 193 193 193 106 0 193-87 193-193 0-106-87-193-193-193z m-114 307l100 0 0-100-100 0z m0-128l100 0 0-100-100 0z m128 128l100 0 0-100-100 0z m0-128l100 0 0-100-100 0z"/>
<glyph unicode="&#66;" d="M256 484c-126 0-229-102-229-228 0-126 103-229 229-229 126 0 229 103 229 229 0 126-103 228-229 228z m0-421c-106 0-193 87-193 193 0 106 87 193 193 193 106 0 193-87 193-193 0-106-87-193-193-193z m-36 327l109 0-53-96 50 0-113-172 30 129-59 0z"/>
<glyph unicode="&#67;" d="M256 485c-126 0-229-103-229-229 0-126 103-229 229-229 126 0 228 103 228 229 1 126-102 229-228 229z m0-422c-106 0-193 87-193 193 0 106 87 193 193 193 106 0 193-87 193-193 0-106-87-193-193-193z m14 279l72 0 0-72 28 0 0 100-100 0z m-100-72l0 72 72 0 0 28-100 0 0-100z m72-100l-72 0 0 72-28 0 0-100 100 0z m100 72l0-72-72 0 0-28 100 0 0 100z m-100 71l28 0 0-114-28 0z m-43-43l114 0 0-28-114 0z"/>
<glyph unicode="&#68;" d="M256 484c-126 0-229-102-229-228 0-126 103-229 229-229 126 0 229 103 229 229 0 126-103 228-229 228z m0-421c-106 0-193 86-193 193 0 106 87 193 193 193 107 0 193-87 193-193 0-107-87-193-193-193z m62 148c-14 3-33 16-33 22l0 16c0 5 7 16 11 26 0 1 2 0 4 2 3 4 4 11 5 14 1 5-5 5-5 5 0 0 5 25 1 41-6 22-34 33-45 33-11 0-39-11-44-33-4-16 0-41 0-41 0 0-5 0-4-5 1-3 2-10 5-14 2-2 3-1 4-2 3-10 11-21 11-26l0-16c0-6-20-19-34-22-19-3-28-16-23-47 2-16 43-23 85-22 41-1 83 6 85 22 5 31-4 44-23 47z"/>
<glyph unicode="&#69;" d="M256 485c-126 0-229-103-229-229 0-126 103-229 229-229 126 0 229 103 229 229 0 126-103 229-229 229z m0-422c-106 0-193 87-193 193 0 106 87 193 193 193 106 0 193-87 193-193 0-106-87-193-193-193z m-21 306c4 0 8 0 11 0 2 0 4 0 6 0 1 0 1 0 2 0 1 0 1 0 2 0 0 0 0 0 0 0 4 0 8 0 11 0 2 0 4 0 6 0 1 0 2 0 3 0 0 0 0 0 1 0 0 0 0 0 1 0 0 0 0 0 0 0 0 0 1 0 1 0 0 0 0 0 0 0 0-1 0-1 0-1 0 0 1 0 1 0 0 0 0-1 0-1 0 0 0 0 0-1 0 0 0 1 0 0 0 0 0 0 0 0 0 0 1 0 1 0 0 0 0-1 0-1 0 0 0 0 0-1 0 0 1 1 1 0 0 0 0 0 0 0 0 0 0-1 0-1 0 0 0 0 0 0 0 0 0 0 0-1 0 0 0 0 0 0 0 0 1 0 1 0 0 0 0-1 0-1 0 0 1 0 1 0 0 0 0 0 0-1 0 0 0 0 0 0 0 0 0 0 0 0 0 0 0-1 0-1 0 0 0-1 0-1 0 0 1 1 1 0 0 0 0 0 0 0 0 0 0-1 0-1 0 0 1 0 1 0 0 0 0 0 0-1 0 0 0 0 0 0 0 0 0 0 0 0 0 0 0-1 0-1 0 0 1 0 1 0 0 0 0 0 0-1 0 0 0 0 0 0 0 0 1 0 1 0 0 0 0-1 0-1 0 0 0 0 0-1 0 0 0 0 0 0 0 0 0 0 0 0 0 0 1 0 1 0 0 0 0-1 0-1 0 0 0-1 0-1 0 0 1 0 1 0 0 0 0 0 0 0 0 0 0-1 0-1 0 0 0 0 0 0 0 0 0-1 0-1 0 0 0 0 0 0 0 0 1 0 1 0 0 0 0-1 0-1 0 0 1 0 1 0 0 0 0-1 0-1 0 0 0 0 0 0 0 0 0 0 0 0 0 0 0-1 0-1 0 0 0-1 0-1 0 0 1 0 1 0 0 0 0 0 0 0 0 0 1 0 1 0 0 0 0-1 0-1 0 0 0-1 0-1 0 0 0 0 0 0 1 0 0 0 0 0 0 0 0-1 0-1 0 0 1 0 1 0 0 0 0-1 0-1 0 0 0 0 0 0 0 0 1 0 1 0 0 0 0-1 0-1 0 0 0-1 0-1 0 0 0 0 0 0 1 0 0 0 0 0 1 0 1 0 1 0 0 0 0-1 0-1 0 0 0-1 0-1 0 0 1 0 1 0 0 0 0 0 0 0 0-1 0-1 0-1 0 0 0 0 0 0 0 0 0-1 0-1 0 0 0 0 0 0 0 0 1 0 1 0 0-1 0-1 0-1 0 0 1 0 1 0 0 0 0-1 0-1 0 0 0-1 0-1 0 0-1 0-1 0 0 0 0-1 0-1 0 0 0 0 0 0 0-1-1 0-1 0 0-1 0-1 0-1 0 0 0-1 0-1 0 0 0 0 0 0 0 0 0 0 0 0 0-1-1 0-1 0 0-1 0-1 0-1 0 0 0-1 0-1 0 0-1 0-1 0 0 0 0 0 0 0 0-1 1-1 0-1 0 0 0 0 0 0 0 0 0-1 0-1 0 0 0 0 0 0 0-1-1 0-1 0 0-1 0-1 0-1 0 0 0 0-1 0 0 0 0-1 0-1 0 0 1 0 0 0 0-1 0 0 0 0 0-1 0-1 0-1 0 0 0-1 0-1 0 0-1 0-1 0 0 0 0 0 0-1 0 0-1 1-1 0 0 0 0 0 0 0 0 0 0-1 0-1 0 0 0 0 0 0 0 0 0 0 0-1 0 0 0 0 0 0 0 0-1 0-1 0 0 0 0-1 0-1 0 0 0 0 0-1 0 0-1 1-1 0 0 0 0 0 0 0 0 0 0-1 0-1 0 0 0 0 0 0 0 0 0 0 0-1 0 0 0 0 0 0 0 0 0 0 0 0 0 0 0-1 0-1 0 0 1 0 1 0 0 0 1 0 1 0 0 0 0 0 0 0 0 0 0-1 0-1 1 0 1 0 1 0 0 0 1 1 1 0 0 0 0 0 0 0 0 0 0 0 0 0 1 0 1 0 1 0 0 0 0-1 0-1 0 0 1 0 1 0 0 0 0 0 0 0 0 0 0-1 0-1 1 0 1 0 1 0 0 0 1 0 1 0 0 0 0 0 0 0 0 0 0 0 0 0 1 0 1 0 1 0 0 0 0-1 0-1 0 0 1 0 1 0 0 0 0 0 0 0 1 0 0-1 0-1 0 0 1 0 1 0 0 0 1 0 1 0 0 0 0 0 0 0 0 0 0 0 0 0 0 0 0-1 0-1 0 0 1 0 1 0 0 0 1 0 1 0 0 0 0-1 0-1 0 0 0 0 0 0 1 0 0 0 0 0 1 0 1 0 1 0 0 0 1 0 1 0 0 0 0-1 0-1 0 0 0 0 0 0 1 0 0-1 0-1 0 0 1 0 1 0 0 0 1 0 1 0 0 0 0 0 0 0 0 0 0 0 0 0 1 0 0-1 0-1 1 0 1 0 1 0 0 0 0-1 0-1 0 0 1 0 1 0 0 0 0 0 0 0 1 0 0 0 0 0 1 0 1 0 1 0 0 0 0-1 0-1 0 0 1 0 1 0 0 0 0-1 0-1 0 0 0 0 0 0 1 0 0 0 0 0 1 0 1 0 1 0 0 0 0-1 0-1 0 0 1 0 1 0 0 0 0-1 0-1 0 0 0 0 0 0 1 0 1 0 1 0 0 0 0 0 0 0 0 0 1 0 1 0 0 0 0-1 0-1 0 0 0 0 0 0 1 0 0-1 0-1 1 0 1 0 1 0 0 0 0 0 0 0 0 0 1 0 1 0 0 0 0-1 0-1 0 0 0 0 0 0 1 0 0-1 0-1 1 0 1 0 1 0 0 0 0 0 0 0 0 0 1 0 1 0 0-1 0-1 0-1 0 0 0 0 0 0 1 0 0-1 0-1 1 0 1 0 1 0 0 0 0 0 0 0 0-1 0-1 0-1 0 0 1 0 1 0 0 0 0-1 0-1 0 0 0 0 1 0 0 0-1 0 0 0 0-1 0 0 0 0 0-1 0-1 0-1 0 0 1 0 1 0 0 0 0-1 0-1 0 0 0 0 1 0 0 0 0 0 0 0 0-1-1-1 0-1 0 0 0 0 0 0 0 0 0-1 0-1 0 0 1 0 1 0 0 0 0 0 0 0 0-1 0 0 1 0 0-1-1-1 0-1 0 0-1-1 0-1 0 0 0 0 0 0 0 0 0 0 0 0 0-1 1 0 1 0 0-1 0-1 0-1 0 0 1 0 1 0 0 0 0-1 0-1 0 0-1 0 0 0 0-1 0 0 0 0 0-1 0-1 0-1 0 0 0-1 0-1 0 0 1 0 1 0 0 0 0 0 0 0 0-1 0 0 1 0 0-1-1-1 0-1 0 0 0 0 0 0 0 0 0-1 0-1 0 0 0 0 0 0 0-1 1 0 1 0 0-1 0-1 0-1 0 0 0-1 0-1 0 0 0 0 1 0 0 0-1 0 0 0 0-1-1-1 0-1 0 0 0 0 0 0 0 0 0-1 0-1 0 0 1 0 1 0 0 0 0 0 0 0 0-1 0-1 0-1 0 0 0 0 1 0 0 0-1-1 0-1 0 0-1 0 0-1 0 0 0 1 0 0 0 0 0 0 0 0 0 0 1 0 1 0 0 0 0-1 0-1 0 0 0 0 0-1 0 0 0 1 1 0 0 0-1 0 0 0 0 0-1-1 0-1 0 0 0 0 0 0 0 0 0 0 0-1 0 0 0 0 0 0 0 0 1 0 1 0 0 0 0-1 0-1 0 0 1 0 1 0 0 0 0 0 0-1 0 0 0 0 0 0 0 0 0 0 0 0 0 0 0-1 0-1 0 0 0 0 0-1 0 0 1 1 1 0 0 0 0 0 0 0 0 0 1 0 1 0 0 0 0-1 0-1 0 0 0 0 0-1 0 0 0 1 0 0 0 0 0 0 0 0 0 0 0-1 0-1 0 0 1 0 1 0 0 0 0 0 0-1 0 0 1 1 1 0 0 0 0 0 0 0 0 0 0-1 0-1 0 0 0 0 0 0 0 0 0 0 0-1 0 0 0 0 0 0 0 0 1 0 1 0 0 0 0-1 0-1 0 0 1 0 1 0 0 0 0 0 0-1 0 0 0 0 0 0 0 0 0 0 0 0 0 0 0-1 0-1 0 0 0-1 0-1 0 0 1 0 1 0 0 0 0 0 0 0 0 0 0-1 0-1 0 0 1 0 1 0 0 0 0-1 0-1 0 0 0 0 0 0 0 0 0 0 0 0 0 0 0-1 0-1 0 0 1 0 1 0 0 0 0-1 0-1 0 0 0 0 0 0 0 0 1 0 1 0 0 0 0-1 0-1 0 0 0-1 0-1 0 0 0 0 0 0 0 0 0 0 0 0 0 0 0-1 0-1 0 0 1 0 1 0 0 0 0-1 0-1 0 0 1 0 1 0 0 0 0 0 0 0 0-1 0-1 0-1 0 0 0 0 0 0 0 0 0-1 0-1 0 0 0 0 0 0 0 0 1 0 1 0 0-1 0-1 0-1 0 0 0-1 0-1 0 0 1 0 1 0 0 0 0 0 0 0 0-1 0-1 0-1 0 0 0 0 0 0 0 0 0-1 0-1 0 0 1 0 1 0 0 0 0 0 0 0 0-1 0-1 0-1 0 0 1 0 1 0 0 0 0-1 0-1 0 0 0 0 0 0 0 0 0 0 0 0 0-1 0-1 0-1 0 0 1 0 1 0 0 0 0-1 0-1 0 0 0 0 0 0 0-1 1 0 1 0 0-1 0-1 0-1 0 0 0-1 0-1 0 0 0 0 0 0 0 0 0 0 0 0 0-1 1 0 1 0 0-1 0-1 0-1 0 0 0-1 0-1 0 0 1 0 1 0 0 0 0 0 0 0 0-1 0-1 0-1 0 0 0 0 0 0 0 0 0-1 0-1 0 0 0 0 0 0 0-1 1 0 1 0 0-1 0-1 0-1 0 0 1 0 1 0 0 0 0-1 0-1 0 0 0 0 0 0 0-1 0 0 0 0 0-1 0-1 0-1 0 0 0-1 0-1 0 0 1 0 1 0 0 0 0 0 0 0 0-1 0-1 0-1 0 0 1 0 1 0 0 0 0-1 0-1 0 0 0 0 0 0 0 0 0 0 0 0 0-1 0-1 0-1 0 0 1 0 1 0 0 0 0-1 0-1 0 0 0 0 0 0 0-1 1 0 1 0 0-1 0-1 0-1 0 0 0-1 0-1 0 0 0 0 0 0 1 0 0 0 0 0 0-1 1 0 1 0 0-1 0-1 0-1 0 0 0-1 0-1 0 0 1 0 1 0 0 0 0 0 0-1 0 0 0 0 0 0 0 0 0 0 0 0 0 0 0-1 0-1 0 0 1 0 1 0 0 0 0 0 0-1 0 0 0 0 0 0 0 0 1 0 1 0 0 0 0-1 0-1 0 0 0 0 0 0 0-1 0 0 0 0 1-1 0-1 0-1 1 0 0-1 0-1 1 0 1 0 1 0 0 0 0 0 0-1 0 0 1 1 1 0 0 0 0 0 0 0 0 0 0-1 0-1 0 0 0 0 0 0 1 0 0 0 0-1 0 0 0 0 0 0 1 0 1 0 1 0 0 0 0-1 0-1 0 0 1 0 1 0 0 0 0 0 0-1 0 0 0 0 0 0 0 0 0 0 0 0 1 0 0-1 0-1 0 0 0 0 0-1 0 0 1 1 1 0 0 0 0 0 0 0 0 0 0-1 0-1 0 0 1 0 1 0 0 0 0 0 0-1 0 0 0 1 0 0 1 0 0 0 0 0 0 0 0-1 0-1 1 0 1 0 1 0 0 0 0 0 0-1 0 0 0 0 0 0 0 0 1 0 1 0 0 0 0-1 0-1 0 0 0 0 0-1 0 0 0 1 0 0 1 0 0 0 0 0 1 0 1 0 1 0 0 0 0-1 0-1 0 0 0 0 0-1 0 0 1 1 1 0 0 0 0 0 0 0 0 0 0-1 0-1 0 0 0 0 0 0 1 0 0 0 0-1 1 0 0 0 0 0 1 0 1 0 1 0 0 0 0-1 0-1 0 0 1 0 1 0 0 0 0 0 0-1 0 0 0 0 0 0 0 0 0 0 0 0 1 0 0-1 0-1 1 0 0-1 0-1 1 0 1 0 1 0 0 0 0 0 0 0 0 0 0-1 0-1 0 0 1 0 1 0 0 0 0-1 0-1 0 0 0 0 0 0 1 0 0 0 0 0 1 0 0-1 0-1 1 0 1 0 1 0 0 0 0-1 0-1 0 0 0 0 0 0 0 0 1 0 1 0 0 0 0-1 0-1 0 0 0-1 0-1 0 0 0 0 0 0 1 0 0 0 0 0 0 0 0 0 0 0 0 0 0-1 0-1 0 0 0-1 0-1 0 0-1 0-1 0 0 0 0 0 0 0 0 0 0 0-1 0 0 0 0-1 0-1 0 0 1-1 0-1 0 0 0 0 0 0 0 0 0 0 0 0 0 0 0-1 0-1 0 0-1 0-1 0 0 0 0-1 0-1 0 0 0 0-1 0 0 0 1 0 0 0 0 0 1-1 0-1 0 0 0 0 0 0 0 0 0-1 0-1 0 0 0 0 0 0 0 0-1 0-1 0 0 0 0-1 0-1 0 0 0-1 0-1 0 0-1 0-1 0 0 0 0 0 0 0 0-1 1-1 0-1 0 0 0 0 0 0 0 0 0-1 0-1 0 0-1 0-1 0 0 0 0 0 0 0 0-1 0-1 0-1 0 0 0 0-1 0 0 0 0-1 0-1 0 0 1 0 0 0 0-1 0 0 0 0 0-1 0-1 0-1 0 0-1 0-1 0 0 0 0-1 0-1 0 0 0 0 0 0 0 0-1 0-1 0 0-1 0-1 0-1 0 0 1-1 0-1 0 0 0 0 0 0 0 0 0 0 0 0 0-1 0-1 0-1 0 0-1 0-1 0 0 0 0-1 0-1 0 0-1 0-1 0 0 0 0 0 0 0 0-1 1-1 0-1 0 0 0 0 0 0 0 0 0-1 0-1 0 0 0 0 0 0 0-1-1 0-1 0 0-1 0-1 0-1 0 0 0 0-1 0 0 0 1-1 0-1 0 0 1 0 0 0 0-1 0 0 0 0 0-1 0-1 0-1 0 0 0-1 0-1 0 0-1 0-1 0 0 0 0 0 0 0 0-1 0-1 0-1 0 0 0 0-1 0 0 0 0-1 0-1 0 0 1 0 0 0 0-1 0 0 0 0 0-1 0-1 0-1 0 0-1 0-1 0 0 0 0-1 0-1 0 0 0 0 0 0 0-1-1 0-1 0 0-1 0-1 0-1 0 0 1-1 0-1 0 0 0 0 0 0 0 0 0 0 0 0 0-1-1 0-1 0 0-1 0-1 0-1 0 0 0-1 0-1 0 0-1 0-1 0 0 0 0 0 0 0 0-1 0-1 0-1 0 0 0 0 0 0 0 0 0-1 0-1 0 0 0 0 0 0 0-1-1 0-1 0 0-1 0-1 0-1-7 0-15 0-22 0-7 0-14 0-22 0 0 0 0 0 0 1 0 0 0-1 0 0-1 0 0 0 0 0 0 0-1 0-1 0 0 0 0 1 0 1 0 0 0 0 0 1 0 0-1-1-1 0 0 0 0 0 0 0 0 0 0 1 0 1 0 0 0 0 0 0-1 0 0 0 0 1 0 0-1-1-1 0 0 0 0 0 0 0 0 0 0 1 0 1 0 0-1 0-1 0 0 0 0 0 0 1 0 0 0 0 0 0 0 0 0 0 0 0-1 0 0 1 0 1 0 0 0 0 0 1-1 0-1-1-1 0 0 0 0 0 0 0 0 0-1 0-1 0 0 0 0 1 0 1 0 0 0 0 0 1 0 0 0-1 0 0-1 0 0 0 0 0 0 0 0 1 0 1-1 0-1 0-1 0 0 0 0 0 0 1 0 0-1-1-1 0 0 0 0 0 0 0 0 0 0 1 0 1 0 0 0 0 0 0-1 0 0 0 0 1 0 0 0 0 0 0 0 0-1 0-1 0 0 0 0 1 0 1 0 0 0 0 0 1 0 0-1-1-1 0 0 0 0 0 0 0 0 0 0 1 0 1 0 0 0 0 0 0-1 0 0 0 0 1-1 0-1 0-1 0 0-1 0-1 0-1 0 0-1 0-1 0 0 0 0 0 0 0-1 0 0-1 0-1-1 0-1 0-1 0 0 0 0 0 0 0 0-1-1 0-1 0 0-1 0-1 0-1 0 0 0 0 0 0-1 0-1 0-1 0 0 0 0-1 0-1 0 0-1 0-1 0 0 0 0 0 0 0 0 0 0 0 0 0-1 0-1 0-1 0 0 0 0-1 0-1 0 0-1 0-1 0 0 0 0-1 0-1 0 0 0 0-1 0 0 0 0 0 0 0 0 0 0 0 0 0 0-1-1 0-1 0 0-1 0-1 0-1 0 0 0 0-1 0 0 0 0 0 0 0 0 0 0-1 0-1 0 0-1 0-1 0 0 0 0 0-1 0 0 0 1 0 0 0 0-1 0 0 0 0 0 0-1 0-1 0 0-1 0-1 0-1 0 0 0 0-1 0 0 0 0 0 0 0 0 0 0-1 0-1 0 0-1 0-1 0 0 0 0 0-1 0 0 0 1 0 0 0 0-1 0 0 0 0 0 0-1 0-1 0 0-1 0-1 0-1 0 0 0 0-1 0 0 0 0 0 0 0 0 0 0-1 0-1 0 0-1 0-1 0 0 0 0 0-1 0 0 0 1 0 0 0 0-1 0 0 0 0 0 0-1 0-1 0 0-1-1 0-1 0 0-1 1-1 0-1 0 0 0 0 0 0 0 0-1 0-1 0 0 0-1 0-1 0 0 0 1-1 0-1 0 0 0 0 0 0 0 0-1 0-1 0 0 0 0 0 0 0 0-1 0 0-1 0 0 0 0 0 0 0 0-1-1 0-1 0 0-1 0-1 0-1 0 0 0 0-1 0 0 0 0 0 0 0 0 0-1 0-1 0 0 0 0-1 0-1 0 0 0 0-1 0 0 0 0 0 0 0 0 0-1 0-1 0 0 0-1 0-1 0 0 0 0 0 0 0 0-1 0 0 0 0-1 0-1 0-1 0 0 0 0 0-1 0 0 0 0 0 0 0 0 0 0-1 0-1 0 0-1 0-1 0 0 0 0 0-1 0 0 0 0 0 0 0-1 0-1 0-1 0 0 0-1 0-1 0 0 0 0-1 0-1 0 0 0 0 0 0-1 0-1 0-1 0 0 0 0 0-1 0 0 0 0 0 0 0-1 0-1 0-1 0 0 0-1 0-1 0 0 0 0 0 0 0 0 0 0 0 0 0-1-1-1 0-1 0 0 0 0 0-1 0 0 0 0 0 0 0-1 0-1 0-1 0 0-1 0 0-1 0 0 0 0 0 0 0-1 0-2 0-3 0 0 0-1 0-1 0 0-1 0 0 0 0-1 0-1 0-1 0 0 0-1 0-1 0 0 0 0 0 0 0-1-1-1 0-1 0 0 0-1 0-1 0 0-1 0 0 0 0-1-1 0-1 0-1-1 0-1 0-1 0 0 0-1 0-1 0-1 0-2 0-3 0 0 0 0 0 0 0 0 0-1 0-1 0 0 0 0 0-1 0 0 0 0 0-1 0-1 0-2 0-3 0-1 0-1 0-2 0-1 0-1 0-2 0 0 0 0 0 0 0-2 0-4 0-6 0-1 0-2 0-3 0 0 0-1 0-1 0 0 0 0 0-1 0-1 0-3 0-5 0-1 0-2 0-3 0 0 0-1 0-1 0 0 0-1 0-1 0-2 0-4 0-5 0-1 0-2 0-3 0-1 0-1 0-1 0-1 0-1 0-1 0-2 0-4 0-6 0-1 0-1 0-2 0-1 0-1 0-2 0 0 0 0 0 0 0-2 0-4 0-6 0-1 0-2 0-3 0 0 0-1 0-1 0 0 0 0 0-1 0-1 0-3 0-5 0-1 0-2 0-3 0 0 0-1 0-1 0 0 0-1 0-1 0-2 0-4 0-5 0-1 0-2 0-3 0-1 0-1 0-1 0-1 0-1 0-1 0-2 0-4 0-6 0-1 0-1 0-2 0-1 0-1 0-2 0 0 0 0 0 0 0-1 0-2 0-3 0-1 0-2 0-3 0-1 0-2 0-3 0 0 0 0 0-1 0 0 0 0 0-1 0 0 0 0 0 0 1 0 0 0-1 0 0 0 0 0 0 0 0 0 0-1 0-1 0 0 0 0 1 0 1 0 0-1 0-1 0 0 0 0 0 0 1 0 0 0 0 0 0 0 0 0 0 0 0 0 0 0 1 0 1 0 0 0 0 0 1 0 0-1-1-1 0 0 0 0 0 0 0 0 0 0 1 0 1 0 0-1 0-1 0 0 0 0 0 0 1 0 0 0 0 0 0 0 0 0 0 0 0 0 0 0 1 0 1 0 0-1 0-1 0 0 0 0 0 0 1 0 0 0 0 0 0 0 0-1 0-1 0 0 0 0 1 0 1 0 0 0 1 0 1 0 0 0-1 0 0 0 0 0 0 0 0 0 0-1 0-1 0 0 0 0 1 0 1 0 0 0 0 0 1 0 0-1-1-1 0 0 0 0 0 0 0 0 0 0 1 0 1 0 0 0 0 0 0 0 0 0 0 0 1 0 0 0 0 0 0 0 0-1 0-1 0 0 0 0 1 0 1 0 0-1 0-1 0 0 0 0 0 0 1 0 0 0 0 0 0 0 0 0 0 0 0 0 0 0 1 0 1 0 0 0 0 0 1 0 0-1-1-1 0 0 0 0 0 0 0 0 0-1 0-1 0 0 0 0 1 0 1 0 0 0 0 0 1 0 0 0-1 0 0 0 0 0 0 0 0 0 0 0 1 0 1 0 0-1 0-1 0 0 0 0 0 0 1 0 0 0 0 0 0 0 0-1 0-1 0 0 0 0 1 0 1 0 0 0 0 0 0-1 0 0 0 0 1 0 0 0 0 0 0 0 0-1 0-1 0 0 0 0 1 0 1 0 0 0 0 0 1 0 0-1-1-1 0 0 0 0 0 0 0 0 0 0 0 0 0-1 0 0 1 0 1 0 0 0 1 0 1 0 0-1 0-1 0 0 0 0 0 0 0 0 0 0 1 0 1 0 0-1 0-1 0 0 0 0 1 0 1 0 0 0 0 0 0 0 0 0 0 0 0-1 0 0 1 0 1-1 0-1 0-1 0 0 0 0 1 0 1 0 0 0 0 0 0 0 0-1 0-1 0 0 1 0 1 0 1 0 0 0 1 0 1 0 0 0 0 0 0 0 0 0 0 0 0 0 0 0 1 0 1-1 0-1 0-1 0 0 0 0 1 0 1 0 0-1 0-1 0 0 0 0 0 0 0 0 0 0 1 0 1 0 0 1 0 1 0 0 0 0 1 0 1 0 0 0 0 0 0 0 0 1 0 1 0 0 0 0 1 0 1 0 0 0 1 0 1 0 0 0 0 0 0 0 0 0 0 0 0 0 0 1 0 1 0 0 1 0 1 0 1 0 0 0 1 0 1 0 0 0 0 1 0 0 0 0 0 0 0 0 1 0 1 0 1 0 0 0 0 0 0 0 0 0 1 0 1 0 0 1 0 1 0 0 0 0 0 0 0 0 0 0 1 0 1 0 0 1 0 1 0 0 0 0 1 0 1 0 0 0 0 0 0 0 1 0 0 0 0 0 1 0 1 0 1 0 0 1 0 1 0 0 0 0 1 0 1 0 0 0 0 0 0 0 0 1 0 1 0 0 1 0 1 0 1 0 0 0 1 0 1 0 0 0 0 0 0 0 0 0 0 0 0 0 1 0 1 0 1 0 0 1 0 1 0 0 0 0 1 0 1 0 0 1 0 1 0 0 0 0 0 0 0 0 1 0 1 0 1 0 0 0 0 0 0 0 0 0 1 0 1 0 0 0 0 0 0 0 0 1 0 1 0 0 1 0 1 0 1 0 0 0 1 0 1 0 0 1 0 1 0 0 0 0 0 0 0 0 1 0 0 0 0 0 1 0 1 0 1 0 0 0 1 0 1 0 0 1 0 1 0 0 0 0 0 0 0 0 1 0 1 0 1 0 0 1 0 1 0 0 0 0 1 0 1 0 0 0 0 0 0 0 0 0 0 0 0 0 1 0 1 0 1 0 0 1 0 1 0 0 0 0 1 0 1 0 0 0 0 0 0 0 1 1 0 1 0 0 1 0 1 0 1 0 0 0 1 0 1 0 0 0 0 0 0 0 0 0 0 0 1 0 0 1-1 1 0 0 0 0 0 0 0 0 0 0 1 0 1 0 0 1 0 1 0 0 0 0 0 0 0 0 1 0 1 0 1 0 0 0 0 0 0 0 0 0 1 0 1 0 0 1 0 1 0 0 0 0 0 0 0 0 1 0 1 0 1 0 0 1 0 1 0 0 0 0 1 0 1 0 0 0 0 0 1 0 0 0-1 0 0 0 0 0 0 0 0 0 0 0 1 0 1 0 0 1 0 1 0 0 0 0 0 0 1 0 0 1-1 1 0 0 0 0 0 0 0 0 0 0 0 0 0 0 0 0 1 0 1 1 0 1 0 1 0 0 0 1 0 1 0 1 0 2 0 2 0 1 0 1 0 1 0 1 0 2 0 3 0 0 0 1 0 1 0 0 0 1 0 1 0 1 0 2 0 3 0 0 0 0 0 1 0 1 0 2 0 3 0 1 0 1 0 2 0 0 0 0 0 0 0 1 0 1 0 2 0 0 0 0 0 1 0 0 1 0 2 0 3 0 0 0 0 0 1 0 0 0 0 0 1 0 0-1 0-1 0 0 0 0 0 0 0 0 1 0 1 0 1 0 0 0 0 0 1 0 0 0 0 0 0 0 1 0 1 0 1 0 0 0 0 0 1 0 0 0 0 0 0 0 1 0 1 0 1 0 1 0 2 0 3 0 0 0 0 0 0 0 1 0 1 0 2 0 0 0 0 0 0 0 1 0 1 0 2 0 0 0 0 0 0 0 1 0 1 0 1 0 0 0 1 0 1 0 0 0 0 0 0 0 1 0 1 0 1 0 0 1 0 1 0 0 0 0 1 0 1 0 0 0 0 0 1 0 0 0 0 0 0 0 0-1 1 0 1 0 0 0 0 0 1 0 0 0 0 0 0 0 0-1 1 0 1 0 0-1 0 0 1 0 0 0-1 0 0 0 0 0 0 0 0 0 0 0 1 0 1 0 0 0 0 0 1 0 0 0 0 0 0 0 0 0 1 0 1 0 0 0 1 0 1 0 0 1-1 1 0 0 0 0 0 0 0 0 0 0 1 0 1 0 0 0 0 0 1 0 0 0 0 0 0 0 0 0 0 1 0 0 0-1 1 0 1 0 0 0 0 0 1 0 0 0 0 0 0 0 0-1 1 0 1 0 0 0 0 0 0 0 0 0 0 0 1 0 0 0 0 0 0 0 0 0 1 0 1 0 0 0 1 0 1 0 0 1 0 1 0 0 0 0 0 0 0 0 1 0 1 0 1 0 0 0 1 0 1 0 0 0 0 1 0 0 0-1 0 0 0 0 0 0 1 0 1 0 0-1 1 0 1 0 0 0 0 0 0 0 0 0 0 0 0 0 0 0 1 0 1 0 0 1 0 1 0 0 0 0 1 0 1 0 0 0 0 0 0 0 0 0 1 0 1 0 0 0 0 1 0 0 0-1 1 0 1 0 0-1 0 0 0 0 0 0 0 0 0 0 0 0 1 0 1 0 0 0 1 0 1 0 0 1 0 1 0 0 0 0 0 0 0 0 1 0 1 0 1 0 0 0 1 0 1 0 0 0 0 1 0 0 0-1 0 0 0 0 0 0 0 0 0 0 1 0 1 0 1 0 0 0 1 0 1 0 0 1 0 1 0 0 0 0 0 0 0 0 1 0 1 0 1 0 0 1 0 1 0 0 0-1 1 0 1 0 0-1 0 0 0 0 0 0 0 0 0 0 1 0 1 0 1 0 0 0 1 0 1 0 0 1 0 1 0 0 0 0 0 0 0 0 1 0 1 0 1 0 0 1 0 1 0 0 0-1 1 0 1 0 0 0 0 0 0 0 0 0 0 0 0 0 1 0 1 0 1 0 0 1 0 1 0 0 0 0 1 0 1 0 0 0 0 0 0 0 1 1 0 1 0 0 1 0 1 0 1 0 0 0 1 0 1 0 0 0 0 0 0 0 0 0 0 0 0 0 1 1 0 1 0 0 1 0 1 0 1 0 0 0 1 0 1 0 0 1 0 1 0 0 0 0 0 0 0 0 1 0 1 0 1 0 0 0 0 0 0 0 0 0 1 0 1 0 0 1 0 1 0 0 0 0 0 0 0 0 1 0 1 0 1 0 0 1 0 1 0 0 0 0 1 0 1 0 0 0 0 0 0 0 1 0 0 0 0 0 1 0 1 0 1 0 0 0 1 0 1 0 0 1 0 1 0 0 0 0 0 0 1 0 0 1-1 1 0 0 0 0 0 0 0 0 0 0 1 0 1 0 0 0 0 0 0 0 0 0 0 0 1 0 0 0 0 0 0 0 0 1 0 1 0 0 0 0 1 0 1 0 0 0 0 0 1 0 0 1-1 1 0 0 0 0 0 0 0 0 0 0 0 0 0 0 0 0 1 0 1 0 0 0 0 0 1 0 0 1-1 1 0 0 0 0 0 0 0 0 0 0 1 0 1 0 0 1 0 1 0 0 0 0 0 0 1 0 0 0 0 0 0 0 0 0 0 0 0 0 0 0 1 0 1 0 0 1 0 1 0 0 0 0 0 0 1 0 0 0 0 0 0 0 0 1 0 1 0 0 0 0 1 0 1 0 0 0 1 0 1 0 0 0-1 0 0 0 0 0 0 0 0 0 0 1 0 1 0 0 0 0 1 0 1 0 0 0 0 0 1 0 0 1 0 1 0 0 0 0 0 0 0 0 0 0 1 0 1 0 0 0 0 0 0 0 0 0 0 0 1 0 0 0 0 0 0 0 0 1 0 1 0 0 0 0 1 0 1 0 0 1 0 1 0 0 0 0 0 0 1 0 0 0 0 0 0 0 0 0 0 0 0 0 0 0 1 0 1 0 0 0 0 0 1 0 0 1 0 1 0 0 0 0 0 0 0 0 0 0 1 0 1 0 0 1 0 1 0 0 0 0 1 0 1 0 0 0 0 0 0 0 0 0 0 0 0 0 0 0 1 0 1 0 0 1 0 1 0 0 0 0 0 0 1 0 0 0 0 0 0 0 0 1 0 1 0 0 0 0 1 0 1 0 0 0 1 0 1 0 0 0 0 0 0 0 0 0 0 0 0 0 0 1 0 1 0 0 1 0 1 0 1 0 0 0 1 0 1 0 0 1 0 1 0 0 0 0 0 0 0 0 1 0 1 0 1 0 0 0 0 0 0 1 0 0 1 0 1 0 0 1 0 1 0 0 0 0 0 0 0 0 1 0 1 0 1 0 0 1 0 1 0 0 0 0 1 0 1 0 0 0 0 0 0 0 1 0 0 0 0 1 1 0 1 0 1 1 0 1 0 1 0 0 0 0 1 0 1 0 0 0 0 0 0 0 0 1 0 1 0 0 1 0 1 0 1 0 0 0 1 0 1 0 0 0 0 0 0 1 0 0 0 0 0 1 1 0 1 0 1 1 0 1 0 1 0 0 0 0 1 0 1 0 0 0 0 0 0 0 1 1 0 1 0 0 1 0 1 0 1 0 0 0 0 0 0 1 0 0 1 0 1 0 0 0 0 0 0 1 1 1 0 1 0 0 1 0 1 0 1 0 0 0 1 0 1 0 0 1 0 1 0 0 0 0 0 0 0 0 1 0 1 0 1 0 0 0 0 0 0 1 0 0 1 0 1 1 0 1 0 1 0 0 0 0 0 0 0 0 1 0 1 0 1 0 0 1 0 1 0 0 0 0 1 0 1 0 0 0 0 0 0 0 1 0 0 1 0 0 1-1 1 0 1 0 0 0 0 0 0 0 0 0 1 0 1 0 0 0 0 0 1 0 0 1-1 1 0 0 0 0 0 0 0 0 0 0 1 0 1 0 0 0 0 1 0 0 0 0 0 0 1 0 0-1 0 0 0 0 0 0 0 0 0 0 0 0 1 0 1 0 0 1 0 1 0 0 0 0 0 0 1 0 0 0 0 0 0 0 0 0 0 1 0 0 0-1 1 0 1 0 0-1 0 0 1 0 0 0-1 0 0 0 0 0 0 0 0 0 0 1 0 1 0 0 0 0 1 0 1 0 0 0 0 0 1 0 0 0-1 1 0 0 0 0 0 0 0 0 0-1 1 0 1 0 0 0 0 0 0 0 0 0 0 0 1 0 0 0 0 0 0 0 0 1 0 1 0 0 0 0 1 0 1 0 0 1 0 1 0 0 0 0 0 0 1 0 0 0 0 0 0 0 0 0 0 0 0 0 0 0 1 0 1 0 0 0 0 0 1 0 0 1-1 1 0 0 0 0 0 0 0 0 0 0 1 0 1 0 0 1 0 1 0 0 0-1 1 0 1 0 0 0-1 0 0 0 0 0 0 0 0 0 0 0 1 0 1 0 0 1 0 1 0 0 0 0 0 0 1 0 0 0 0 0 0 0 0 1 0 1 0 0 0 0 1 0 1 0 0-1 1 0 1 0 0 0 0 0 0 0 0 0 0 0 0 0 0 1 0 1 0 0 0 0 1 0 1 0 0 0 1 0 1 0 0 1 0 1 0 0 0 0 0 0 0 0 0 0 1 0 1 0 0 0 0 0 0 0 0 0 1 0 1 0 0 0 0 0 0 0 0 1 0 1 0 0 0 0 1 0 1 0 0 1 0 1 0 0 0 0 1 0 1 0 0 0 0 0 0 0 0 0 0 0 0 0 0 0 1 0 1 0 0 0 0 0 1 0 0 1 0 1 0 0 0 0 0 0 0 2 0 2 0 2 0z m4-8c0 0 0-1 0-1-1 0-1 0-1 0 0 0 0-1 0-1 0 0-1 0-1 0 0 0 0-1 0-1 0 0 0 0 0 0 0-1 0 0 0 0 0-1 0-1 0-1 0 0 0-1 0-1 0 0-1 0-1 0 0 0 0 0 0 0 0-1-1 0-1 0 0-1 0-1 0-1 0 0 0-1 0-1 0 0 0 0 0 0 0 0 0 0 0 0 0-1 0-1 0-1 0 0-1 0-1 0 0 0 0-1 0-1 0 0 0 0 0 0 0-1-1 0-1 0 0-1 0-1 0-1 0 0 0 0 0 0-1 0 0-1 0-1-1 0 0 0 0 0-1-1-1 0-1 0 0-1 0-1 0-1 0 0 0-1 0-1 0 0-1 0-1 0 0 0 0 0 0 0 0-1 0-1 0-1 0 0 0 0 0 0-1 0 0-1 0-1-1 0-1 0-1 0 0 0 0-1 0-1 0 0 0 0 0 0 0 0-1 0-1 0 0 0 0-1 0-1 0 0 0-1 0-1 0 0 0 0-1 0 0 0 1 0 0 0 0 0 0 0 0 0 0 0 0-1 0-1 0 0 0-1 0-1 0 0-1 0-1 0 0 0 0 0 0 0 0 0 0-1 0-1 0 0-1 0-1 0 0 0 0-1 0-1 0 0 1 0 0 0 0 0 0 0 0 0 0 0 0-1 0-1 0 0-1 0-1 0 0 0 0-1 0-1 0 0 0 0 0 0 0 0 0 0-1 0 0 0 1-1 0-1 0 0 1-1 0-1 0 0 0 0 0 0 0 0 0 0 0 0 0-1 0-1 0-1 0 0-1 0-1 0 0 0 0-1 0-1 0 0 0 0 0 0 0-1-1 0-1 0 0-1 1-1 0-1 0 0 0 0 0 0 0 0 0-1 0-1 0 0 0 0 0 0 0-1-1 0-1 0 0-1 0-1 0-1 0 0 0-1 0-1 0 0-1 0-1 0 0 0 0 0 0 0 0-1 0 0 0 0 0-1 0-1 0-1 0 0 0-1 0-1 0 0-1 0-1 0 0 0 0 0 0 0 0-1 0-1 0-1 0 0-1 0-1 0 0 0 0-1 0-1 0 0 0 0 0 0 0-1 0 0 0 0 0-1 0-1 0-1 0 0-1 0-1 0 0 0 0-1 0-1 0 0 0 0 0 0 0-1-1 0-1 0 0-1 0-1 0-1 0 0 0-1 0-1 0 0 0 0 0 0 0 0 0 0 0 0 0-1 0-1 0-1 0 0-1 0-1 0 0 0 0-1 0-1 0 0-1 0-1 0 0 0 0 0 0 0 0-1 0-1 0-1 0 0 0 0 0 0 0 0 0-1 0-1 0 0 0 0 0 0 0-1-1 0-1 0 0-1 0-1 0-1 0 0-1 0-1 0 0 0 0-1 0-1 0 0 0 0 0-1 0 0 0 1 0 0 0 0 0 0 0 0 0 0 0-1 0-1 0 0-1 0-1 0 0 0 0 0 0-1 0 0 0 0 0 0 0 0-1 0-1 0 0 0 0-1 0-1 0 0 0 0 0 0 0 0 0 0 0-1 0 0 0 0 0 0 0 0-1 0-1 0 0 0 0-1 0-1 0 0 0 0 0-1 0 0-1 1-1 0 0 0 0 0 0 0 0 0 0 0 0 0 0 0 0-1 0-1 0 0 0 0 0-1 0 0-1 1-1 0 0 0 0 0 0 0 0 0 0-1 0-1 0 0-1 0-1 0 0 0 0 0 0-1 0 0 0 0 0 0 0 0 0 0 0 0 0 0 0-1 0-1 0 0 0-1 0-1 0 0-1 0-1 0 0 0 0 0 0 0 0 0-1 0-1 0 0 0 0-1 0-1 0 0 0-1 0-1 0 0 0 0 0 0 0 0 0 0 0 0 0 0 0-1 0-1-1 0-1 0-1 0 0 0 0-1 0-1 0 0-1 0-1 0 0 0 0 0 0 0 0 0 0-1 0-1 0 0 0 0 0 0-1 0 0-1 0-1-1 0 0 0 0 0 0 0-1 0-1 0 0 0 0-1 0-1 0 0 0-1 0-1 0 0-1 0-1 0 0 0 0 0 0 0 0 0 0 0 0 0-1 0 0-1 0-1-1 0 0-1 0-1 0 0-1 0-1 0 0 0 0 0 0 0 0 0 0-1 0-1 0 0-1 0-1 0 0 0 0-1 0-1 0 0 0 0 0 0 0 0 0 0 0 0-1 0 0-1 0-1-1 0-1 0-1 0 0 0 0-1 0-1 0 0 0 0 0 0 0 0-1 0-1 0 0 0 0-1 0-1 0 0 0-1 0-1 0 0 0 0 0 0-1 0 0 0 0 0 0-1 0-1 0-1 0 0-1 0-1 0 0 0 0-1 0-1 0 0-1 0-1 0 0 0 0 0 0 0 0-1 0-1 0-1 0 0 0 0 0 0-1 0 0-1 0-1-1 0 0 0 0 0-1-1-1 0-1 0 0-1 0-1 0-1 0 0-1 0-1 0 0 0 0-1 0-1 0 0 0 0 0 0 0-1 0 0 0 0-1-1 0-1 0-1-1 0 0-1 0-1-1 0-1 0-1 0 0 0 0 0 0 0 0-1 0-1 0-1 0 0-1 0-1 0 0 0 0-1 0-1 0 0 0 0 0 0-1 0 0 0 0 0 0-1 0-1 0-1-1 0-1 0-1 0 0 0 0-1 0-1 0 0 0 0 0 0 0-1-1 0-1 0 0-1 0-1 0-1 0 0 0-1 0-1 0 0 0 0-1 0 0 0 0 0 0 0 0-1 1-1 0-1 0 0 0 0 0 0 0 0 0-1 0-1 0 0-1 0-1 0 0 0 0 0 0 0 0-1 0-1 0-1 0 0 0 0-1 0 0 0 1-1 0-1 0 0 1 0 0-1 0 0 0 1 0 0 0 0 0 0 0 0 0 0 0-1 0-1 0 0-1 0-1 0 0 0 0 0 0-1 0 0 0 0 0 0 0 0-1 0-1 0 0 0 0-1 0-1 0 0 1 0 0-1 0 0 1 0 0 0 0 0 0 0 0 0 0 0 0-1 0-1 0 0 0 0 0-1 0 0-1 1-1 0 0 0 0 0 0 0 0 0 0-1 0-1 0 0 0 0-1 0 0 0 1 0 0-1 0 0 0 0 0 0 0 0 1-1 0-1 0 0 0 0 0 0 0 0 0 0 0-1 0 0 0 0 0 0 0 0 0-1 0-1 0 0 0 0 0-1 0 0-1 0-1 0 0 0 0 0 0 0 0 0 0-1 0-1 0 0 0 0 0-1 0 0 0 0-1 0 0 0 0 0 0 0 0-1 0-1 0-1 0 0 0 0 0-1 0 0 1 0 0 0 0 0 0 0 0 0 0 0 0-1 0-1 0 0 0 0 0-1 0 0 0 0 0 0 0-1 0-1 0-1 0 0 0-1 0-1 0 0-1 0-1 0 0 0 0 0 0 0 0-1 0-1 0-1 0 0 0 0 0-1 0 0 0 0 0 0 0 0 0-1 0-1 0 0-1 0-1 0 0 0 0-1 0-1 0 0 0 0 0 0 0-1 0-1 0-1 0 0 0 0 0-1 0 0 0 0 0 0 0-1 0-1 0-1 0 0 0 0 0-1 0 0 0 0 0 0 0-1 0-1 0-1 0 0 0 0 0-1 0 0 0 0 0 0 0 0 0 0 0 0 0-1 0-1 0-1 0 0 0-1 0-1 0-1 0-2 0-2 0-1 0-1 0-1 0 0 0-1 0-1 0 0 0 0 0 0 0-1 0-1 0-1 0 0 0-1 0-1 0 0 0 0 0 0 0-1 0-1 0-1 0 0 0 0 0 0 0 0 0-1 0-1 0 0 0 0 0 0 0-1 0-1 0-1 0 0 0-1 0-1 0 0 0 0 0 0 0-1 0-1 0-1 0 0 0-1 0-1 0 0 0 0 0 0 0-1 1 0 1 0 0-1 0-1 0-1 0 0 0-1 0-1 0 0 0 0 0 0 0-1 0-1 0-1 0 0 0-1 0-1 0 0 0 0 0-1 0 0 1 1 1 0 0 0 0 0 0 0 0 0 0-1 0-1 0 0 0 0 0 0 0-1 0-1 0-1 0 0 0-1 0-1 0 0 0 0 0 0 0 0 0 0 0 0 0-1 0-1 0-1 0-1 0-1 0-2 0 0-1 0-2 0-1 0-1 0-2 0 0 0 0 0 0 0-1 0-2 0-3 0 0 0-1 0-1 0-1 0-2 0-2 0-1 0-1 0-1 0-1 0-2 0-3 0 0 0 0 0-1 0 0 0-1 0-2 0 0 0-1 0-1 0-1 0-2 0-3 0 0 0 0 0 0 0-1 0-2 0-3 0 0 0-1 0-1 0 0 0-1 0-1 0 0 0-1 1-1 0 0 0 0 0 0 0 0 0 0-1 0-1 0 0 0 0 0 0 0 0 0 0 0-1 0 0 0 0 0 0 0 0-1 0-1 0 0 0 0-1 0-1 0 0-1 0-1 0 0 0 0 0 0-1 0 0 0 0 0 0 0 0 0 0 0 0 0 0 0-1 0-1 0 0 0 0 0-1 0 0-1 0-1 0 0 0 0 0 0 0 0 0-1 0-1 0 0 0 0-1 0-1 0 0 0 0 0-1 0 0 0 0 0 0-1 0 0 0 0 0-1 0 0-1 0-1-1 0-1 0-1 0 0 0 0 0 0-1 0 0 0 0 0 0 0 0-1 0-1 0 0 0 0-1 0-1 0 0 0 0 0 0-1 0 0 0 0-1-1 0 0 0 0 0-1 0-1 0-1 0 0 0 0-1 0-1 0 0 0-1 0-1 0 0-1 0-1 0 0 0 0 0 0 0 0 0 0 0 0 0-1 0 0-1 0-1 0 0 0-1 0-1-1 0-1 0-1 0 0 0 0 0 0 0 0 0 0-1 0-1 0 0-1 0-1 0 0 0 0-1 0-1 0 0 0 0 0 0 0 0 0 0 0 0-1 0 0-1 0-1-1 0-1 0-1 0 0 0 0-1 0-1 0 0 0 0 0 0 0 0-1 0-1 0 0 0 0-1 0-1 0 0 0-1 0-1 0 0 0 0-1 0 0 0 0 0 0 0 0 0 1-1 0-1 0 0 0 0 0 0 0 0 0-1 0-1 0 0-1 0-1 0 0 0 0 0 0 0 0 0 0-1 0-1 0 0 0 0-1 0 0 0 1-1 0-1 0 0 1 0 0 0 0 0 0 0 0 0 0-1 0-1 0-1 0 0-1 0-1 0 0 0 0-1 0-1 0 0 0 0 0 0 0-1 0 0 0 0 0-1-1-1 0-1 0 0 0 0 0 0 0 0 0-1 0-1 0 0 0 0 0 0 0 0 1 0 1 0 0 0 0-1 0-1 0 0 0-1 0-1 0 0 0 0 0 0 1 0 0 0 0 0 1 0 1 0 1 0 0-1 0-1 0-1 0 0 0-1 0-1 0 0 1 0 1 0 0 0 0 0 0 0 0-1 0-1 0-1 0 0 0 0 0 0 1 0 0-1 0-1 1 0 0 0 0 0 1-1 1 0 1 0 0-1 0-1 0-1 0 0 0-1 0-1 0 0 1 0 1 0 0 0 0 0 0 0 0-1 0 0 1 0 0-1 0-1 0-1 0 0-1-1 0-1 0 0 0 0 0 0 0 0 0 0 0 0 0-1 0-1 0-1 0 0 1 0 1 0 0 0 0-1 0-1 0 0 0 0 1 0 0 0-1 0 0 0 0-1-1-1 0-1 0 0 0 0 0 0 0 0 0-1 0-1 0 0 0 0 0 0 0-1 1 0 1 0 0-1 0-1 0-1 0 0 0-1 0-1 0 0 0 0 1 0 0 0-1 0 0 0 0-1 0 0 0 0 0-1 0-1 0-1 0 0 0-1 0-1 0 0 1 0 1 0 0 0 0 0 0 0 0-1 0-1 0-1 0 0 0 0 1 0 0 0-1-1 0-1 0 0-1 0 0 0 0-1 0 0 0 0 0-1 0-1 0-1 0 0 1 0 1 0 0 0 0-1 0-1 0 0 0 0 0 0 0-1 1 0 1 0 0-1 0-1 0-1 0 0 0-1 0-1 0 0 0 0 0 0 0 0 0 0 0-1 0 0 0 0 0 0 0 0 1 0 1 0 0 0 0-1 0-1 0 0 1 0 1 0 0 0 0 0 0-1 0 0 0 0 0 0 0 0 0 0 0 0 0 0 0-1 0-1 0 0 0 0 0-1 0 0 1 0 1 0 0 0 0 0 1 0 0 0 0 0 1 0 0 0 0 0 1 0 0 0 1 0 1 0 0 0 1 0 1 0 1 0 1 0 1 0 1 0 1 0 1 0 1 0 1 0 2 0 0 0 0 0 0 0 1 0 1 0 2 0 0 0 1 0 1 0 0 0 1 0 1 0 0 0 1 0 1 0 1 0 1 0 2 0 0 0 0 0 0 0 1 0 1 0 2 0 0 0 1 0 1 0 0 0 1 0 1 0 0 0 1 0 1 0 1 0 1 0 1 0 1 0 1 0 1 0 1 0 1 0 2 0 0 0 0 0 1 0 0 0 0 0 1 0 0 0 1 0 1 0 0 0 1 0 1 0 1 0 1 0 1 0 0 0 1 0 1 0 1 0 1 0 2 0 0 0 0 0 0 0 1 0 1 0 2 0 0 0 1 0 1 0 0 0 1 0 1 0 0 0 1 0 1 0 1 0 1 0 2 0 0 0 0 0 0 0 1 0 1 0 2 0 0 0 1 0 1 0 0 0 0 0 1 0 0 0 1 0 1 0 1 0 1 0 1 0 1 0 1 0 1 0 1 0 1 0 1 0 1 0 1 0 2 0 0 0 0 0 1 0 0 0 0 0 1 0 0 0 0 0 1 0 0 0 1 0 1 0 0 0 0 0 1 0 0 0 1 0 1 0 0 0 1 0 1 0 1 0 1 0 1 0 1 0 1 0 1 0 1 0 1 0 2 0 0 0 0 0 1 0 0 0 0 0 1 0 0 0 1 0 1 0 0 0 1 0 1 0 0 0 1 0 1 0 1 0 1 0 2 0 0 0 0 0 0 0 1 0 1 0 2 0 0 0 1 0 1 0 0 0 1 0 1 0 0 0 1 0 1 0 1 0 1 0 2 0 0 0 0 0 0 0 1 0 1 0 2 0 0 0 0 0 1 0 0 0 0 0 1 0 0 0 1 0 1 0 0 0 1 0 1 0 1 0 1 0 1 0 0 0 1 0 1 0 1 0 1 0 2 0 0 0 0 0 0 0 1 0 1 0 2 0 0 0 1 0 1 0 0 0 1 0 1 0 0 0 1 0 1 0 1 0 1 0 2 0 0 0 0 0 0 0 1 0 1 0 2 0 0 0 1 0 1 0 0 0 1 0 1 0 0 0 1 0 1 0 1 0 1 0 1 0 1 0 1 0 1 0 1 0 1 0 1 0 1 0 1 0 2 0 0 0 0 0 1 0 0 0 0 0 1 0 0 0 1 0 1 0 1 0 1 0 1 0 0 0 1 0 1 0 1 0 1 0 1 0 0 0 1 0 1 0 1 0 1 0 1 0 0 0 1 0 1 0 0 0 0 0 0 0 1 0 1 0 1 0 0 0 1 0 1 0 0 0 0 1 0 1 0 0 0 0 0 0 1 0 1 0 1 0 0 0 1 0 1 0 0 0 1 0 1 0 0 0 1 0 1 0 0 0 0 0 0 0 1 0 1 0 1 0 0 0 0 1 0 1 0 0 1 0 1 0 0 0 0 0 0 0 1 0 1 0 1 0 0 0 1 0 1 0 0 0 0 0 1 0 0 0-1 0 0 0 0 1 0 0 0 0 0 0 1 0 1 0 0 1 0 0 1 0 0 0 0 0 0 0 0 1 0 1 0 1 0 0 1 0 1 0 0 0 0 0 1 0 0 0 0 0 0 0 0 0 1 0 1 0 0 0 0 1 0 1 0 0 0 0 1 0 0 0 0 0 0 0 0 0 1 0 1 0 0 0 0 0 0 0 0 1 0 0 1 0 0 0 0 0 0 0 0 1 1 0 1 0 0 1 0 1 0 1 0 0 0 0 1 0 0 0 0 0 0 0 0 0 1 0 1 0 0 0 0 1 0 1 0 0 0 0 1 0 0 0 0 0 0 0 0 0 0 0 0 1 0 0 1-1 1 0 0 0 1-1 1 0 0 0-1 0 0 0 0 0 0 0 0 0 0 0 1 0 1 0 0 0 0 0 1 0 0 0-1 1 0 1 0 0 0 0 0 0 0 0 1 0 1 0 0 0 0 0 0 1 0 0 0-1 1 0 0 0 0-1 0 0 0 0 0 0 0 0 0 0 1 0 1 0 0 0 0 0 1 0 0 0-1 1 0 1 0 0 0 0 0 0 0 0 1 0 1 0 0 0 0 0 0 1 0 0 0-1 1 0 0 0 0 0 0 0 0 0 0 0 0 0 0 0 1 0 1 0 0 0 0 1 0 1 0 0 1 0 1 0 0 0 0 0 0 0 0 0 0 0 0 1 0 0 1-1 1 0 0 0 0 0 0 0 0 0 1 0 1 0 0 0 0 0 0 0 0 0 0 1 0 1 0 0 1 0 1 0 0 0 0 0 0 1 0 0 1 0 1 0 0 0 0-1 0 0 0 0 0 0 0 0 0 0 1 0 1 0 0 0 0 1 0 1 0 0 1 0 1 0 0 0 0 0 0 0 0 0 0 0 0 1 0 0 1-1 1 0 0 0 0 0 0 0 0 0 1 0 1 0 0 0 0 1 0 1 0 0 0 0 0 0 0 0 1 0 1 0 0 0 0 0 0 1 0 0 1-1 1 0 0 0 0 0 0 0 0 0 0 0 0 0 0 0 0 1 0 1 0 0 1 0 1 0 0 0 0 0 0 1 0 0 1-1 1 0 0 0 0 0 0 0 0 0 0 0 0 0 0 0 0 1 0 1 0 0 1 0 1 0 0 0 0 0 0 1 1 0 1 0 1 0 0-1 0-1 0-1 0 0 1 0 1 0 0 0 0-1 0-1 0 0 0 0 0 0 0-1 1 0 1 0 0-1 0-1 0-1 0 0 0 0 0 0 0 0 0-1 0-1 0 0 0 0 0 0 0-1 1 0 1 0 0 0 0-1 0-1 0 0 0-1 0-1 0 0 1 0 1 0 0 0 0 0 0 0 0-1 0-1 0-1 0 0 0 0 0 0 1 0 0-1 0-1 1 0 1 0 1 0 0 0 0 0 0 0 0-1 0-1 0-1 0 0 1 0 1 0 0 0 0-1 0-1 0 0 0 0 0 0 0-1 0 0 0 0 1-1 0-1 0-1 1 0 0-1 0-1 0 0 1 0 1 0 0 0 0 0 0 0 0-1 1 0 1 0 0-1 0-1 0-1 0 0 0-1 0-1 0 0 0 0 0 0 0 0 0 0 0 0 0-1 0-1 0-1 1 0 1 0 1 0 0 0 0-1 0-1 0 0 1 0 1 0 0 0 0 0 0 0 0-1 0-1 0-1 0 0 0 0 0 0 1 0 0-1 0-1 1 0 0 0 0-1 1 0 1 1 1 0 0 0 0 0 0 0 0 0 0-1 0-1 0 0 1 0 1 0 0 0 0 0 0-1 0 0 0 1 0 0 1 0 0 0 0 0 1 0 0-1 0-1 1 0 1 0 1 0 0 0 0-1 0-1 0 0 1 0 1 0 0 0 1 0 1 0 0 0 1 0 1 0 0 0 1 0 1 0 0 0 1 0 1 0 0 0 1 0 1 0 1 0 2 0 3 0 0 0 0 0 1 0 0 0 1 0 1 0 0 0 0 0 1 0 0 0 1 0 1 0 0 0 1 0 1 0 0 0 1 0 1 0 1 0 2 0 3 0 0 0 0 0 1 0 0 0 0 0 1 0 0 0 0 0 1 0 0 0 0 0 1 0 0 0 0 0 1 0 0 0 1 0 1 0 0 0 1 0 1 0 1 0 1 0 1 0 0 0 1 0 1 0 0 0 0 0 0 0 1 0 1 0 2 0 0 0 0 0 0 0 1 0 1 0 1 0 0 0 1 0 1 0 0 0 0 0 0 0 1 0 1 1 1 0 0 0 0 0 0 0 0 0 1 0 1 0 0 0 0 0 0 0 0 0 0 1 0 0 1 0 0 0 0 0 1 0 1 0 1 0 0 0 1 0 1 0 0 0 0 0 0 0 0 1 0 0 0 0 0 1 0 1 0 1 0 0 0 1 0 1 0 0 1 0 1 0 0 0 0 0 0 0 0 1 0 1 0 1 0 0 1 0 1 0 0 0 0 1 0 1 0 0 0 0 0 0 1 0 0 0 0 0 0 1 0 1 0 1 1 0 1 0 1 0 0 0 0 1 0 1 0 0 0 0 0 1 0 0 1-1 1 0 0 0 0 0 0 0 0 0 0 0 0 0 1 0 0 1 0 1 0 0 0 0 0 1 1 0 1-1 1 0 0 0 0 0 0 0 0 0 0 1 0 1 0 0 1 0 1 0 0 0 0 0 0 1 0 0 0 0 0 0 0 0 0 0 0 0 1 0 0 1 0 1 1 0 1 0 1 0 0 0 0 0 0 1 0 0 0 0 0 0 0 0 1 0 1 0 0 0 0 1 0 1 0 0 0 0 0 1 0 0 0-1 0 0 1 0 0 0 0 0 1 0 0 1 0 1 1 0 1 0 1 0 0 0 0 0 0 1 0 0 1-1 1 0 0 0 0 0 0 0 0 0 0 1 0 1 0 0 0 0 1 0 0 0-1 0 0 1 0 0-1 0 0 0 0 0 0 0 0 0 0 0 0 1 0 1 0 0 1 0 1 0 0 0 0 0 0 1 0 0 0 0 0 0 0 0 0 0 1 0 0 0-1 1 0 1 0 0-1 0 0 1 0 0 0-1 0 0 0 0 0 0 0 0 0 0 0 1 0 1 0 0 1 0 1 0 0 0 0 0 0 1 0 0 0 0 0 0 0 0 0 0 1 0 0 0-1 1 0 1 0 0 0 0 0 0 0 0 0 0 0 1 0 0 0 0 0 0 0 0 1 0 1 0 0 0 0 1 0 1 0 0 0 0 1 0 0 0 0 0 0 1 0 1 0 1 0 2-1 0-1 0-1 0 0 0 0 1 0 1 0 0 0 1 0 1 0 0-1 0-1 0 0 0 0 0 0 0 0 0 0 0 0 0-1 0 0 1 0 1-1 0 0 1 0 1-1 0-1 0-1 0 0 0 0 0 0 0 0 0 0 1 0 1 0 0-1 0-1 0 0 0 0 1 0 1 0 0 0 0 0 0 0 0 0 0 0 0-1 1 0 1 0 1-1 0-1 0-1 0 0 0 0 1 0 1 0 0 0 0 0 0 0 0-1 0-1 0 0 1 0 1 0 1 0 0 0 1 0 1 0 0 0 0 0 0-1 0 0 0 0 0 0 1 0 1 0 1-1 0-1 0-1 0 0 0 0 1 0 1 0 0-1 0-1 0 0 0 0 0 0 0 0 1 0 1 0 1 0 0 0 0-1 0 0 0 0 1 0 1 0 0 1 0 0 0 0 1 0 0 0 0 0 1 0 1 0 1 0 0 0 1 0 1 0 0-1 0-1 0 0 0 0 0 0 0 0 1 0 0-1 0 0 1 1 1 0 1 0 0 1 1 0 1 0 0 0 0 0 0 0 0 0 0 0 0 0 1 0 1 0 1 0 0-1 0-1 0 0 0 0 1 0 1 0 0 0 0-1 0 0 0 1 0 0 0 0 1 1 1 0 1 0 0 0 0 0 0 0 0 0 1 0 1 0 0 0 0 0 0 0 1-1 0-1 0 0 1 0 1 0 1 0 0 0 1 0 1 0 0 0 0-1 0 0 0 1 0 0 0 0 1 0 0 0 0 0 1 0 1 0 1 0 0 0 1 0 1 0 0-1 0-1 0 0 0 0 0 0 0 0 1 0 1 0 1 0 0 0 0-1 0 0 0 1 1 0 1 0 0 0 0 0 0 0 0 0 0 0 0 0 1 0 1 0 1 0 0-1 0-1 0 0 0 0 1 0 1 0 0 0 0 0 1 0 0 0-1-1 0 0 0 1 0 0 0 0 0 1 1 0 1 0 0 0 0 0 0 0 0 0 0 0 1 0 0 0 0 0 0 0 0-1 0-1 0 0 0 0 1 0 1 0 0 0 0-1 0 0 0 1 0 0 0 0 1 1 1 0 1 0 0 0 0 0 0 0 0 0 1 0 1 0 0 0 0 0 1 0 0-1-1-1 0 0 0 0 0 0 0 0 0 0 0-1 0 0 0 1 1 0 1 0 0 1 0 0 1 0 0 0-1 0 0 0 0 0 0 0 0 0 0 0 1 0 1 0 0-1 0-1 0 0 0 0 0 0 1 0 0 0 0 0 0 0 0-1 0-1 0 0 0 0 1 0 1 0 0 0 0 0 1 0 0 0-1 0 0 0 0 0 0 0 0 0 0-1 0-1 0 0 0 0 1 0 1 0 0 0 0 0 1 0 0-1-1-1 0 0 0 1 0 0 0 0 0 0 0 0 0 0 0 0 1 0 1 0 0 0 0 0 1 0 0-1-1-1 0 0 0 0 0 0 0 0 0 0 1 0 1 0 0-1 0-1 0 0 0 0 0 0 1 0 0 0 0 0 0 0 0 0 0 0 0 0 0 0 1 0 1 0 0 0 0 0 1 0 0-1-1-1 0 0 0 0 0 0 0 0 0-1 0-1 0 0 0 0 1 0 1 0 0 0 0 0 1 0 0 0 0 0 0 0 0 0 0 0 0 0 0 0 1 0 1 0 0-1 0-1 0 0 0 0 0 0 1 0 0-1 0-1 0 0 0 0 0 0 0 0 0 0 1 0 1 0 0 0 0 0 0 0 0 0 0 0 1 0 0 0 0 0 0 0 0-1 0-1 0 0 0 0 1 0 1 0 0 0 1 0 1 0 0-1 0-1 0 0 0 1 0 0 0 0 0 0 0 0 0 0 0 0 1 0 1 0 0 0 1 0 1 0 0-1 0-1 0 0 0 0 0 0 0 0 0 0 1 0 1 0 0-1 0-1 0 0 0 0 1 0 1 0 0 0 0 0 0 0 0 0 0 0 0 0 0 0 1 0 1 0 0-1 0-1 0 0 0 0 1 0 1 0 0 0 0 0 0 0 0-1 0-1 0 0 0 0 1 0 1 0 0 0 1 0 1 0 0 0 0 0 0 0 0 0 0 0 0 0 0 0 1 0 1 0 0-1 0-1 0 0 0 0 1 0 1 0 0-1 0-1 0 0 0 0 0 0 0 0 0 0 1 0 1 0 0 0 0 0 0 0 0 0 1 0 1 0 0 0 0 0 0 0 0-1 0-1 0 0 1 0 1 0 1 0 0-1 0-1 0 0 0 0 1 0 1 0 0 0 0 0 0 0 1 0 0 0 0 0 1 0 1 0 1 0 0 0 1 0 1 0 0-1 0-1 0 0 0 0 0 0 0 0 1 0 1 0 1 0 0-1 0-1 0 0 0 0 1 0 1 0 0 0 0 0 0 0 0 0 0 0 0 0 1 0 1 0 1 0 0-1 0-1 0 0 0 0 1 0 1 0 0 0 0 0 0 0 1-1 0-1 0 0 1 0 1 0 1 0 0 0 0 0 0 0 0 0 1 0 1 0 0 0 0 0 0 0 1-1 0-1 0 0 1 0 1 0 1 0 0 0 1 0 1 0 0-1 0-1 0 0 0 0 0 0 0 0 1 0 1 0 1 0 0 0 0 0 0 0 0 0 1 0 1 0 0-1 0-1 0 0 0 0 0 0 0 0 1 0 1 0 1 0 0-1 0-1 0 0 0 0 1 0 1 0 0 0 0 0 0 0 1 0 0 0 0 0 1 0 1 0 1 0 0 0 1 0 1 0 0-1 0-1 0 0 0 0 0 0 1 0 0-1-1-1 0 0 0 0 0 0 0 0 0 0 1 0 1 0 0 0 0 0 0 0 0 0 0 0 1 0 0-1-1-1 0 0 0 0 0 0 0 0 0 0 1 0 1 0 0-1 0-1 0 0 0 0 0 0 1 0 0 0-1 0 0 0 0 0 0 0 0 0 0 0 1 0 1 0 0-1 0-1 0 0 0 0 0 0 1 0 0-1-1-1 0 0 0 0 0 0 0 0 0 0 0 0 0-1 0 0 1 0 1-1 0 0 0 0 1-1 0-1-1-1 0 0 0 0 0 0 0 0 0-1 0-1 0 0 0 0 1 0 1 0 0 0 0 0 0-1 0 0 0 0 1-1 0-1-1-1 0 0 0 0 0 0 0 0 0-1 0-1 0 0 0 0 1 0 1 0 0 0 0 0 1 0 0 0-1 0 0-1 0 0 0 0 0-1 0-1 0-1 0 0 0 0 1 0 1 0 0-1 0-1 0 0 0 0 0 0 1 0 0 0-1 0 0-1 0 0 0 0 0-1 0-1 0-1 0 0 0 0 1 0 1 0 0-1 0-1 0 0 0 0 1 0 1 0 0 0 0 0 0-1 0 0 0 0 0-1 0-1 0-1 0 0 0 0 1 0 1 0 0-1 0-1 0 0 0 0 1 0 1 0 0 0 0 0 0-1 0-1 0-1 0 0 0 0 0 0 0 0 0-1 0-1 0 0 0 0 1 0 1 0 0 0 0 0 0-1 0 0 1 0 1-1 0-1 0-1 0 0 0 0 0 0 0 0 0-1 0-1 0 0 0 0 1 0 1 0 0 0 0 0 0-1 0-1 0-1 0 0 0 0 1 0 1 0 0-1 0-1 0 0 0 0 0 0 0 0 0 0 0 0 0-1 0 0 1 0 1-1 0-1 0-1 0 0 0-1 0-1 0 0 0 0 1 0 1 0 0 0 0 0 0-1 0 0 0 0 0-1 0-1 0-1 0 0 0-1 0-1 0 0 0 0 1 0 1 0 0 0 0-1 0 0 0 1 1 0 1 0 0 0 0 0 0 0 0-1 0-1 0 0 0 0 0 0 0 0 0 0 0-1 0 0 0 1 1 0 1 0 0 0 0 0 0 0 0-1 0-1 0 0 0 0 1 0 1 0 0 0 0-1 0 0 0 0 0 0 0 0 0 0 0 0 0 0 0-1 0-1 0 0 0 0 0-1 0 0 0 1 1 0 1 0 0 0 0 0 0 0 0-1 0-1 0 0 0 0 1 0 1 0 0 0 0-1 0 0 0 0 0 0 0 0 0 0 0 0 0 0 0-1 0-1 0 0 0 0 0-1 0 0 0 0 0 0 0 0 0 0 1 0 1 0 0-1 0-1 0 0 0 0 0-1 0 0 0 1 1 0 1 0 0 0 0 0 0 0 0-1 0-1 0 0 0-1 0-1 0 0 0 0 0 0 0 0 0 0 0 0 0 0 0-1 0-1 0 0 0 0 0-1 0 0 0 0 1 0 1 0 0 0 0 0 0 0 0-1 0-1 0 0 0-1 0-1 0 0 0 0 1 0 1 0 0 0 0 0 0 0 0-1 0-1 0 0 0 0 0-1 0 0 0 0 0 0 0 0 1 0 0 0 0 0 1 0 1 0 1 0 0 0 1 0 1 0 0 0 0 0 0 0 0 0 0 0 0 0 1 0 1 0 1 0 0 1 0 1 0 0 0 0 1 0 1 0 0 1 0 1 0 0 0 0 0 0 0 0 1 0 1 0 1 0 0 0 0 0 0 0 0 0 1 0 1 0 0 0 0 0 0 0 1 1 0 1 0 0 1 0 1 0 1 0 0 1 0 1 0 0 0 0 1 0 1 0 0 0 0 0 0 0 1 0 0 0 0 0 1 0 1 0 1 0 0 0 1 0 1 0 0 1 0 1 0 0 0 0 0 0 0 0 1 0 1 0 1 0 0 1 0 1 0 0 0 0 1 0 1 0 0 0 0 0 0 0 0 0 0 0 0 0 1 0 1 0 1 0 0 1 0 1 0 0 0 0 1 0 1 0 0 0 0 0 1 0 0 1-1 1 0 0 0 0 0 0 0 0 0 0 0 0 0 1 0 0 1 0 1 0 0 0 0 0 1 1 0 1-1 1 0 0 0 0 0 0 0 0 0 0 1 0 1 0 0 1 0 1 0 0 0 0 0 0 1 0 0 0 0 0 0 0 0 0 0 0 0 1 0 0 1 0 1 1 0 1 0 1 0 0 0 0 0 0 1 0 0 0 0 0 0 0 0 1 0 1 0 0 0 0 1 0 1 0 0 0 0 0 1 0 0 0-1 0 0 0 0 0 0 0 1 0 0 0 0 0 1 0 0 0-1 0 0 0 0 0 0 0 0 0 0-1 0-1 0 0 0 0 1 0 1 0 0 0 1 0 1 0 0-1 0-1 0 0 0 0 0 0 0 0 0 1 1 0 1 0 0 0 0 0 0 0 0 0 1 0 1 0 0-1 0-1 0 0 0 0 0 0 0 0 0 0 1 0 1 0 0-1 0-1 0 0 0 0 1 0 1 0 0 1 0 0 0 0 0 0 0 0 0 0 0 0 1 0 1 0 0 0 1 0 1 0 0-1 0-1 0 0 0 0 0 0 0 0 1 0 1 0 1 0 0-1 0-1 0 0 0 0 1 0 1 0 0 0 0 0 0 0 0 0 0 0 0 0 0 0 1 0 1 0 0-1 0-1 0 0 0 0 1 0 1 0 0 0 0 0 0 0 0-1 0-1 0 0 0 0 1 0 1 0 0 0 0 0 0 0 0 0 1 0 1 0 0 0 0 0 0 0 0-1 0-1 0 0 0 0 1 0 1 0 0 0 1 0 1 0 0-1 0-1 0 0 0 0 0 0 0 0 1 0 1 0 1 0 0 0 0 0 0 0 0 0 1 0 1 0 0-1 0-1 0 0 0 0 0 0 0 0 1 0 1 0 1 0 0-1 0-1 0 0 0 0 1 0 1 0 0 0 0 0 0 0 1 0 0 0 0 0 1 0 1 0 1 0 0 0 1 0 1 0 0-1 0-1 0 0 0 0 0 0 0 0 1 0 1 0 1 0 0-1 0-1 0 0 0 0 1 0 1 0 0 0 0 0 0 0 0 0 0 0 0 0 1 0 1 0 1 0 0-1 0-1 0 0 0 0 1 0 1 0 0 0 0 0 0 0 1-1 0-1 0 0 0 0 1 0 1 0 0 0 1 0 1 0 0-1 0-1 0 0 0 0 0-1 0 0 0-1 0-1 0 0 0-1 0-1 0 0 0-1 0-1 0 0 0-1 0-1 0 0 0-1 0-1 0 0 0-1 0-1 0 0 0-1 0-1 0 0 0-1 0-1 0 0 0-1 0-1 0 0 0-1 0-1 0 0 0-1 0-1 0 0 0-1 0-1 0 0 0-1 0-1 0-1 0-2 0-3 0 0 0-1 0-1 0 0 0-1 0-1 0 0 0-1 0-1 0 0 0-1 0-1 0 0 0-1 0-1 0 0 0-1 0-1 0 0 0-1 0-1 0 0 0-1 0-1 0 0 0-1 0-1 0 0 0-1 0-1 0-1 0-1 0-1 0 0 0-1 0-1 0-1 0-1 0-1 0 0 0-1 0-1 0-1 0-2 0-3 0-2 0-2 0-2 0z m3-5c1 0 1 0 1 0 1 0 1 0 1 0 1 0 1 0 1 0 1 0 1 0 1 0 1 0 1 0 2 0 0 0 0 0 0 0 1 0 1 0 2 0 0 0 0 0 1 0 0 0 0 0 1 0 0 0 0 0 1 0 0 0 0 0 1 0 0 0 1 0 1 0 0 0 0 0 1 0 0 0 1 0 1 0 1 0 1 0 1 0 1 0 1 0 1 0 1 0 1 0 1 0 1 0 1 0 1 0 1 0 1 0 2 0 0 0 0 0 0 0 1 0 1 0 2 0 0 0 0 0 1 0 0 0 0 0 1 0 0 0 1 0 1 0 0 0 1 0 1 0 1 0 1 0 1 0 0 0 1 0 1 0 1 0 0 0 0 0 0-1 1 0 1 0 0-1 0-1 0-1 0 0 0-1 0-1 0 0 1 0 1 0 0 0 0 0 0 0 0-1 0 0 0 0 1-1 0-1 0-1 1 0 0-1 0-1 1 0 1 0 1 0 0 0 0 0 0-1 0 0 0 0 0 0 0 0 1 0 1 0 0 0 0-1 0-1 0 0 0 0 0 0 1 0 0 0 0-1 0 0 0 0 0 0 0 0 1 0 1 0 0 0 0-1 0-1 0 0 0 0 0-1 0 0 1 1 1 0 0 0 0 0 0 0 0 0 0-1 0-1 0 0 0 0 0 0 1 0 0 0 0-1 1 0 1 1 1 0 0 0 0 0 0 0 0 0 0-1 0-1 0 0 1 0 1 0 0 0 0 0 0-1 0 0 0 0 0 0 0 0 0 0 0 0 1 0 0-1 0-1 1 0 0 0 0-1 1 0 1 1 1 0 0 0 0 0 0 0 0 0 1 0 1 0 0 0 0-1 0-1 0 0 0 0 0-1 0 0 0 1 0 0 1 0 0 0 0 0 0 0 0-1 0-1 1 0 1 0 1 0 0 0 0 0 0-1 0 0 0 0 0 0 0 0 1 0 1 0 0 0 0-1 0-1 0 0 0 0 0 0 1 0 0-1 0-1 0 0 0 0 0 0 1 0 1 0 1 0 0 0 0-1 0-1 0 0 0-1 0-1 0 0 1 0 1 0 0 0 0 0 0 0 0 0 0-1 0-1 0 0 0 0 0 0 0 0 0-1 0-1 0 0 0 0 0 0 0 0 0-1 0-1 0 0 0-1 0-1 0 0-1 0-1 0 0 0 0 0 0 0 0 0 0 0-1 0 0-1 1-1 0-1 0 0 1-1 0-1 0 0 0 0 0 0 0 0 0 0 0 0 0-1 0-1 0-1 0 0-1 0-1 0 0 0 0-1 0-1 0 0 0 0 0 0 0 0 0 0-1 0 0 0 1-1 0-1 0 0 0 0 0 0 0 0 0-1 0-1 0 0 0 0 0 0 0 0-1 0-1 0 0-1 0-1 0-1 0 0 0-1 0-1 0 0 0 0-1 0 0 0 1 0 0 0 0-1 0 0 0 0 0 0 0-1 0-1 0 0 0-1 0-1 0 0-1 0-1 0 0 0 0 0 0 0 0-1 0-1 0-1 0 0-1 0-1 0 0 0 0-1 0-1 0 0 0 0 0 0 0-1 0 0 0 0 0-1 0-1 0-1 0 0 0-1 0-1 0 0-1 0-1 0 0 0 0 0 0 0 0-1 0 0-1 0 0-1 0-1 0-1 0 0 1-1 0-1 0 0 0 0 0 0 0 0 0 0 0 0 0-1 0-1 0-1 0 0-1 0-1 0 0 0 0-1 0-1 0 0 0 0-1 0 0 0 1 0 0 0 0-1 1-1 0-1 0 0 0 0 0 0 0 0 0-1 0-1 0 0 0 0 0 0 0-1-1 0-1 0 0-1 0-1 0-1 0 0 0-1 0-1 0 0 0 0-1 0 0 0 1 0 0-1 0 0 0 1 0 0 0 0 0 0 0 0 0 0 0-1 0-1 0 0-1 0-1 0 0 0 0 0 0-1 0 0 0 0 0 0 0 0-1 0-1 0 0 0 0-1 0-1 0 0 1 0 0-1 0 0 0 1 0 0 0 0 0 0 0 0 0 0-1 0-1 0 0 0 0-1 0-1 0 0 0 0 0-1 0 0-1 1-1 0 0 0 0 0 0 0 0 0 0-1 0-1 0 0 0 0 0 0 0 0 0 0 0-1 0 0-1 1-1 0 0 0 0 0 0 0 0 0 0-1 0-1 0 0-1 0-1 0 0 0 0 0 0-1 0 0 1 0 0 0 0 0 0 0 0 0 0 0 0-1 0-1 0 0 0 0 0-1 0 0-1 1-1 0 0 0 0 0 0 0 0 0-1 0-1 0 0 0 0-1 0-1 0 0 0-1 0-1 0 0 0 0 0 0 0 0 0 0 0 0 0 0 0-1 0-1 0 0-1 0-1 0 0 0 0 0 0-1 0 0 0 0 0 0 0 0-1 0-1 0 0 0 0-1 0-1 0 0 0 0 0 0 0 0 0-1 0-1 0 0 0 0 0 0 0 0-1 0-1 0 0 0 0-1 0-1 0 0 0-1 0-1 0 0-1 0-1 0 0 0 0 0 0 0 0 0 0 0 0 0 0 0 0-1 0-1 0 0 0-1 0-1 0 0-1 0-1 0 0 0 0 0 0 0 0 0 0-1 0-1 0 0-1 0-1 0 0 0 0-1 0-1 0 0 0 0 0 0 0 0 0 0 0 0 0 0 0-1 0-1 0 0-1 0-1 0 0 0 0-1 0-1 0 0 0 0 0 0 0 0-1 0-1 0 0 0 0-1 0-1 0 0 0-1 0-1 0 0 0 0 0 0 0 0 0 0 0 0 0 0 0-1 0-1 0 0-1 0-1 0 0 0 0-1 0-1 0 0-1 0-1 0 0 0 0 0 0 0 0-1 0-1 0-1 0 0 0 0 0 0 0 0 0-1 0-1 0 0 0 0 0 0 0 0-1 0-1 0 0-1 0-1 0-1 0 0 0-1 0-1 0 0-1 0-1 0 0 0 0 0 0 0 0-1 0 0 0 0 0-1 0-1 0-1 0 0 0-1 0-1 0 0-1 0-1 0 0 0 0 0 0 0 0-1 0-1 0-1 0 0-1 0-1 0 0 0 0-1 0-1 0 0 0 0 0 0 0 0 0 0 0 0 0-1 0-1 0-1 0 0-1 0-1 0 0 0 0-1 0-1 0 0 0 0 0 0 0-1-1 0-1 0 0-1 0-1 0-1 0 0 0-1 0-1 0 0 0 0 0 0 0 0 0 0 0 0 0-1-1 0-1 0 0-1 0-1 0-1 0 0 0-1 0-1 0 0-1 0-1 0 0 0 0 0 0 0 0-1 0-1 0-1 0 0 0 0 0 0 0 0 0-1 0-1 0 0 0 0 0 0 0-1-1 0-1 0 0-1 0-1 0-1 0 0-1 0-1 0 0 0 0-1 0-1 0 0 0 0 0 0 0-1 0 0 0 0-1-1 0-1 0-1-1 0 0-1 0-1-1 0-1 0-1 0 0 0 0 0 0-1 0 0 0 0 0 0 0 0-1 0-1 0 0 0 0-1 0-1 0 0 0 0 0 0-1 0 0 0 0-1 0 0 0 0 0 0-1 0-1 0-1 0 0 0 0-1 0-1 0 0 0-1 0-1 0 0-1 1-1 0 0 0 0 0 0 0 0 0 0 0 0 0-1 0 0-1 0-1 0 0 0 0 0-1 0 0-1 1-1 0 0 0 0 0 0 0 0 0 0-1 0-1 0 0-1 0-1 0 0 0 0 0 0-1 0 0 0 0 0 0 0 0 0 0 0 0-1 0 0-1 0-1-1 0-1 0-1 0 0 0 0 0 0-1 0 0 0 0 0 0 0 0-1 0-1 0 0 0 0-1 0-1 0 0 0 0 0-1 0 0 0 1 0 0-1 0 0 0 0 0-1 0 0-1 0-1-1 0-1 0-1 0 0 0 0 0 0-1 0 0 0 0 0 0 0 0-1 0-1 0 0 0 0-1 0-1 0 0 0 0 0-1 0 0 0 0 0 0 0 0 0-1 0-1 0 0 0 0 0 0 0 0 0 0 0-1 0 0 0 0 0 0 0-1 0-1 0-2 0-1 0-2 0-2 0-1 0-2 0-3 0-1 0-1 0-1 0-1 0-1 0-1 0 0-1-1 0-1 0 0 0 0 0 0 0 0 0 0 0 0 0-1 0-1 0-1 0 0 0-1 0-1 0 0 0 0 0-1 0 0 1 1 1 0 0 0 0 0 0 0 0 0 0-1 0-1 0 0 0 0 0-1 0 0 0 1 1 0 0 0-1 0 0 0 0 0-1-1 0-1 0 0 0 0 0 0 0 0 0 0 0-1 0 0 0 0 0 0 0 0 1 0 1 0 0 0 0-1 0-1 0 0 0 0 1 0 0 0 0 0 0-1 0 0-1 0 0 0 0 0 0 0 0 0 0 0 0-1 0-1 0 0 1 0 1 0 0 0 0 0 0-1 0 0 0 1 1 0 0 0-1 0 0 0 0 0 0 0 0 0 0 0 0-1 0-1 0 0 1 0 1 0 0 0 0 0 0-1 0 0 0 1 1 0 0 0-1 0 0 0 0 0 0 0 0 0 0-1 0-1 0-2 0 0 0 0 0 0-1 0-1 0-1 0 0 0-1 0-1 0 0 0-1 0-1 0 0 0-1 0-1 0-1 0-2 0-3 0 0 0-1 0-2 0 0 0 0 0-1 0 0 0 0 0-1 0-1 0-1 0-2 0-1 0-1 0-1 0-1 0-2 0-3 0 0 0 0 0 0 0-1 0-2 0-3 0 0 0-1 0-1 0-1 0-2 0-3 0 0 0 0 0 0 0-1 0-1 0-2 0 0 0-1 0-2 0-1 0-2 0-2 0-1 0-2 0-3 0 0 0-1 0-1 0-1 0-2 0-3 0 0 0 0 0 0 0-1 0-2 0-3 0 0 0 0 0-1 0 0 0-1 0-2 0 0 0-1 0-1 0-1 0-2 0-3 0 0 0 0 0 0 0-1 0-2 0-3 0 0 0-1 0-1 0 0 0-1 0-1 0-1 0-2 0-3 0 0 0 0 0-1 0 0 0 0 0 0 0 0 1 0 1 0 1 0 0-1 0-1 0 0 0 0 1 0 1 0 0 0 0 0 0 0 1 0 1 0 1 0 0 0 0 0 0-1 0 0 1 0 1 0 0 0 0 0 0 0 1 0 1 0 1 0 0 0 1 0 1-1 0-1 0-1 0 0 0 0 0 0 0 0 1 0 1 0 1 0 0 0 1 0 1 0 0 0 0 0 0 0 1 0 1 0 1 0 0 0 1 0 1 0 0-1 0-1 0 0 0 0 0 0 0 0 1 0 1 0 1 0 1 0 2 0 3 0 0 0 0 0 1 0 0 0 0 0 0 0 0 0 1 0 1 0 0-1 0-1 0 0 0 0 0 0 1 0 0 0 0 0 0 0 0 0 1 0 1 0 0 0 0 0 1 0 0 0 0 0 0 0 0 0 1 0 1 0 0 0 0 0 1 0 0 0 0 0 0 0 0 0 1 0 1 0 0 0 0 0 1 0 0 0 0 0 0 0 0 0 1 0 1 0 0 0 0 0 1 0 0 1-1 1 0 0 0 0 0 0 0 0 0 0 1 0 1 0 0 0 0 0 1 0 0 0 1 0 2 0 1 0 1 0 1 0 0 0 0 0 1 0 0 0 0 0 0 0 0 0 1 0 1 0 0 1 0 1 0 0 0 0 0 0 1 0 0 0 0 0 0 0 1 0 1 0 1 0 0 0 0 0 1 0 0 0 0 0 0 0 0 0 0 1 0 0 1 0 1 0 1 0 0 0 0 0 1 0 0 0 0 0 0 0 1-1 1 0 1 0 0 0 0 0 0 0 0 0 1 0 1 0 0 0 0 0 0 0 1 0 1 0 1 0 0 0 0 0 1 0 0 0 0 0 0 0 0 1 0 1 0 0 1 0 1 0 1 0 0 0 1 0 1 0 0 0 0 0 0 1 0 0 0 0 0 1 1 0 1 0 1 0 0 0 1 0 1 0 0 1 0 1 0 0 0 0 0 0 0 0 1 0 1 0 1 0 0 0 1 0 1 0 0 1 0 1 0 0 0 0 0 0 0 0 1 0 1 0 1 0 0 0 1 0 1 0 0 0 0 0 0 1 0 0 0 0 0 0 1 0 1 0 1 1 0 1 0 1 0 0 0 0 1 0 1 0 0 0 0 0 0 0 1 1 0 1 0 0 1 0 1 0 1 0 0 0 1 0 1 0 0 0 0 0 0 0 1 0 0 1 0 0 1-1 1 0 1 0 0 0 0 0 0 0 0 0 1 0 1 0 0 0 0 0 0 0 1 1 0 1 0 0 1 0 1 0 1 0 0 0 1 0 1 0 0 0 0 1 0 0 0-1 0 0 0 0 1-1 1 0 1 0 0 0 0 0 0 0 0 0 1 0 1 0 0 1 0 1 0 0 0 0 0 0 0 0 1 0 1 0 1 0 0 0 0 1 0 0 0-1 1 0 1 0 0-1 0 0 1 0 0 0-1 0 0 0 0 0 0 0 0 0 0 0 1 0 1 0 0 1 0 1 0 0 0 0 0 0 1 0 0 0 0 0 0 0 0 0 0 1 0 0 0-1 1 0 1 0 0 0 0 0 0 0 0 0 0 0 1 0 0 0 0 0 0 0 0 1 0 1 0 0 0 0 1 0 1 0 0 0 0 0 1 0 0 0-1 1 0 0 0-1 0 0 0 0 0-1 1 0 1 0 0 0 0 0 0 0 0 0 0 0 1 0 0 1-1 1 0 0 0 0 0 0 0 0 0 0 1 0 1 0 0 1 0 1 0 0 0 0 0 0 1 0 0 0 0 0 0 0 0 0 0 0 0 0 0 0 1 0 1 0 0 1 0 1 0 0 0 0 0 0 1 0 0 0 0 0 0 0 0 1 0 1 0 0 0 0 1 0 1 0 0 0 0 0 1 0 0 0 0 0 0 0 0 0 0 0 0 0 0 0 1 0 1 0 0 1 0 1 0 0 0 0 0 0 1 0 0 1-1 1 0 0 0 0 0 0 0 0 0 0 1 0 1 0 0 0 0 0 0 0 0 0 0 0 1 0 0 0 0 0 0 0 0 1 0 1 0 0 0 0 1 0 1 0 0 1 0 1 0 0 0 0 0 0 1 0 0 0 0 0 0 0 0 0 0 0 0 0 0 0 1 0 1 0 0 0 1 0 1 0 0 1 0 1 0 0 0 0 0 0 0 0 0 0 1 0 1 0 0 1 0 1 0 0 0 0 1 0 1 0 0 0 0 0 0 0 0 0 0 0 0 0 0 0 1 0 1 0 0 1 0 1 0 0 0 0 1 0 1 0 0 0 0 0 0 0 0 1 0 1 0 0 0 0 1 0 1 0 0 0 1 0 1 0 0 0 0 0 0 0 0 0 0 0 0 0 0 1 0 1 0 0 0 0 1 0 1 0 0 0 1 0 1 0 0 1 0 1 0 0 0 0 0 0 0 0 0 0 1 0 1 0 0 0 0 0 0 0 0 0 1 0 1 0 0 1 0 1 0 0 0 0 0 0 0 0 1 0 1 0 1 0 0 1 0 1 0 0 0 0 1 0 1 0 0 0 0 0 0 0 0 0 0 0 0 0 1 0 1 0 1 0 0 0 1 0 1 0 0 1 0 1 0 0 0 0 0 0 0 0 1 1 0 1 0 0 1 0 1 0 1 0 0 0 1 0 1 0 0 0 0 0 0 0 0 0 0 0 0 0 1 0 1 0 1 0 0 1 0 1 0 0 0 0 1 0 1 0 0 0 0 0 0 0 1 1 0 1 0 0 1 0 1 0 1 0 0 0 0 0 0 0 0 0 1 0 1 0 0 0 0 0 0 0 1 1 0 1 0 0 1 0 1 0 1 0 0 0 1 0 1 0 0 1 0 1 0 0 0 0 0 0 0 0 1 0 1 0 1 0 0 0 0 0 0 0 0 0 1 0 1 0 0 1 0 1 0 0 0 0 0 0 1 0 0 0 0 0 0 0 0 1 0 1 0 0 0 0 1 0 1 0 0 0 0 0 1 0 0 0-1 0 0 1 0 0 0 0 0 1 0 1 0 1 0 0 0 0 1 0 1 0 0 0 0 0 1 0 0 1-1 1 0 0 0 0 0 0 0 0 0 0 1 0 1 0 0 0 0 0 0 0 0 0 0 0 1 0 0 0 0 0 0 0 0 1 0 1 0 0 0 0 1 0 1 0 0 0 0 0 1 0 0 1-1 1 0 0 0 0 0 0 0 0 0 0 0 0 0 0 0 0 1 0 1 0 0 0 0 0 1 0 0 1-1 1 0 0 0 0 0 0 0 0 0 1 0 1 0 0 0 0 1 0 1 0 0 0 0 0 1 0 0 0-1 0 0 1 0 0 0 0 0 0 0 0 1 0 1 1 0 1 0 1 0 0 0 0 0 0 1 0 0 0 0 0 0 0 0 1 0 1 0 0 0 0 1 0 1 0 0 0 0 0 1 0 0 0-1 0 0 1 0 0 0 0 0 1 0 1 0 1 0 0 0 0 1 0 1 0 0 0 0 0 1 0 0 1 0 1 0 0 0 0 0 0 0 0 0 0 1 0 1 0 0 0 0 0 0 1 0 0 1 0 1 1 0 1 0 1 0 0 0 0 0 0 0 0 0 0 1 0 1 0 0 1 0 1 0 0 0 0 1 0 1 0 0 0 0 0 0 0 0 0 0 1 0 0 0-1 1 0 1 0 0-1 1 0 1 0 0 0 0 0 0 0 0 0 0 0 0 0 0 1 0 1 0 0 0 0 1 0 1 0 0 0 1 0 1 0 0 0 0 1 0 0 0-1 0 0 0 0 0-1 1 0 1 0 0 0 0 0 0 0 0 0 1 0 1 0 0 0 0 0 0 0 0 1 0 1 0 0 0 0 1 0 1 0 0 0 0 1 0 0 0-1 1 0 1 0 0-1 0 0 0 0 0 0 0 0 0 0 1 0 1 0 1 0 0 0 1 0 1 0 0 1 0 1 0 0 0 0 0 0 0 0 0 0 0 1 0 0 0-1 1 0 1 0 0-1 1 0 1 0 0 0 0 0 0 0 0 0 1 0 1 1 0 1 0 1 0z m131-176c0-1 0-1 0-2 0 0-1 0-1 0 0 0 0 0 0 0 0-1 0-1 0-1 0 0 0 0-1 0 0 0 0-1 0-1 0 0 1 0 0 0 0-1 0 0 0 0 0-1 0-1 0-1 0 0 0-1 0-1 0 0-1 0-1 0 0 0 0 0 0 0 0-1 0 0-1 0 0-1 0-1 0-1 0 0 1-1 0-1 0 0 0 0 0 0 0 0 0 0 0-1 0 0 0 0 0 0 0 0-1 0-1 0 0 0 0-1 0-1 0 0-1 0-1 0 0 0 1 0 0-1 0 0 1 0 0 0 0 0 0 0 0 0 0 0 0-1 0-1 0 0 0 0 0-1 0 0-1 1-1 0 0 0 0 0 0 0 0 0 0-1 0-1 0 0 0 0-1 0 0 0 1 0 0-1 0 0 0 1 0 0 0 0 0 0 0 0 0 0 0-1 0-1 0 0-1 0-1 0 0 0 0 0 0-1 0 0 0 0 0 0 0 0-1 0-1 0 0 0 0-1 0-1 0 0 0-1 0-1 0 0 0 1 0 0 0 0 0 0 0 0 0 0-1 0-1 0 0 0 0-1 0-1 0 0 0 0 0-1 0 0-1 1-1 0 0 0 0 0 0 0 0 0 0-1 0-1 0 0 0 0 0 0 0 0 0-1 0-1 0 0-1 1-1 0 0 0 0 0 0 0 0 0 0-1 0-1 0 0 0 0-1 0 0 0 0 0 0-1 0 0 0 0 0 0 0 0 0 0 0 0-1 0-1 0-2 0 0 0 0 0 0 0-1 0-1 0-2 0 0 0 0 0 0 0-1 0-1 0-2 0 0 0 0 0 0 0-1 0-2 0-3 0 0 0-1 0-1 0 0 0-1 0-1 0 0 0-1 0-1 0 0 0-1 0-1 0 0 0-1 0-1 0-1 0-2 0-3 0 0 0 0 0 0 0-1 0-1 0-2 0 0 0 0 0 0 0-1 0-1 0-2 0 0 0 0 0 0 0-1 0-2 0-3 0 0 0-1 0-1 0-1 0-2 0-3 0 0 0 0 0 0 0 0 0-1 0-1 0 0 0 0 0-1 0 0 0 0 0 0 0 0 1 0 0 0 0 0 1 0 1 0 1 0 0-1 0-1 0 0 0 0 1 0 1 0 0 0 0 0 0 0 1 0 0-1 0 0 1 1 1 0 1 0 0 1 1 0 1 0 0 0 0 0 0 0 0 0 0 0 0 0 1 0 1 0 1 0 0-1 0-1 0 0 0 0 1 0 1 0 0 0 0 0 0 0 1 0 0-1 0 0 1 1 1 0 1 0 0 0 0 0 0 0 0 0 1 0 1 0 0 0 0 0 0 0 1-1 0-1 0 0 1 0 1 0 1 0 0 0 1 0 1 0 0 0 0-1 0 0 0 1 0 0 0 0 1 0 0 0 0 0 1 0 1 0 1 0 0 0 1 0 1 0 0-1 0-1 0 0 0 0 0 0 0 0 1 0 1 0 1 0 0-1 0-1 0 0 0 0 1 0 1 0 0 1 0 0 0 0 1 0 0 0 0 0 1 0 1 0 1 0 0 0 1 0 1 0 0-1 0-1 0 0 0 0 0 0 0 0 1-1 0-1 0 0 1 0 1 0 1 0 0 0 1 0 1 0 0 0 0 0 0 0 0 0 0 0 1 0 0 0 0 0 0 0 0-1 0-1 0 0 0 0 1 0 1 0 0-1 0-1 0 0 0 0 0 0 1 0 0 0 0 0 0 0 0 0 0 0 0 0 0 0 1 0 1 0 0 0 0 0 1 0 0-1-1-1 0 0 0 0 0 0 0 0 0 0 1 0 1 0 0-1 0-1 0 0 0 0 0 0 1 0 0 0-1 0 0 0 0 0 0 0 0 0 0 0 1 0 1 0 0-1 0-1 0 0 0 0 0 0 1 0 0 0 0 0 0 0 0-1 0-1 0 0 0 0 1 0 1 0 0 0 0 0 1 0 0 0-1 0 0 0 0 0 0 0 0 0 0-1 0-1 0 0 0 0 1 0 1 0 0 0 0 0 1 0 0-1-1-1 0 0 0 0 0 0 0 0 0 0 1 0 1 0 0 0 0 0 0 0 0 0 0 0 1 0 0 0 0 0 0 0 0-1 0-1 0 0 0 0 1 0 1 0 0-1 0-1 0 0 0 0 0 0 1 0 0 0 0 0 0 0 0 0 0 0 0 0 0 0 1 0 1 0 0 0 1 0 1 0 0-1-1-1 0 0 0 0 0 0 0 0 0-1 0-1 0 0 0 0 1 0 1 0 0 0 1 0 1 0 0 0 0 0 0 0 0 0 0 0 0 0 0 0 1 0 1 0 0-1 0-1 0 0 0 0 0 0 1 0 0 0 0 0 0 0 0-1 0-1 0 0 0 0 1 0 1 0 0 0 1 0 1 0 0 0 0 0 0 0 0 0 0 0 0 0 0-1 0-1 0 0 0 0 1 0 1 0 0 0 1 0 1 0 0-1 0-1 0 0 0 0 0 0 0 0 0 0 1 0 1 0 0 0 0 0 0 0 0 0 1 0 1 0 0-1 0-1 0 0 0 0 0 0 0 0 0 0 1 0 1 0 0-1 0-1 0 0 0 0 1 0 1 0 0 0 0 0 0 0 0 0 0 0 0 0 0 0 1 0 1 0 0 0 1 0 1 0 0-1 0-1 0 0 0 0 0 0 0 0 0-1 0-1 0 0 0 0 1 0 1 0 0 0 1 0 1 0 0 0 0 0 0 0 0 0 0 0 0 0 1 0 1 0 1 0 0-1 0-1 0 0 0 0 1 0 1 0 0-1 0-1 0 0 0 0 0 0 0 0 0 0 1 0 1 0 0 0 0 0 0 0 0 0 1 0 1 0 0 0 0 0 0 0 0-1 0-1 0 0 0 0 1 0 1 0 0 0 1 0 1 0 0-1 0-1 0 0 0 0 0 0 0 0 1 0 1 0 1 0 0 0 0 0 0 0 0 0 1 0 1 0 0-1 0-1 0 0 0 0 0 0 0 0 0 0 1 0 1 0 0-1 0-1 0 0 0 0 1 0 1 0 0 0 0 0 0 0 0 0 0 0 0 0 1 0 1 0 1 0 0-1 0-1 0 0 0 0 1 0 1 0 0 0 0 0 0 0 1-1 0-1 0 0 1 0 1 0 1 0 0 0 1 0 1 0 0 0 0 0 0 0 0 0 0 0 0 0 0 0 1 0 1 0 0-1 0-1 0 0 0 0 1 0 1 0 0-1 0-1 0 0 0 0 0 0 0 0 1 0 1 0 1 0 0 0 0 0 0 0 0 0 1 0 1 0 0 0 0 0 0 0 1-1 0-1 0 0 1 0 1 0 1 0 0 0 1 0 1 0 0-1 0-1 0 0 0 0 0 0 0 0 1 0 0 0 0-1 1 0 1 0 1 0 0 0 1 0 1 0 0-1 0-1 0 0 0 0 0 0 0 0 1 0 1 0 1 0 0-1 0-1 0 0 0 0 1 0 1 0 0 0 0 0 0 0 1 0 0 0 0-1 1 0 1 0 1-1 0-1 0-1 0 0 0 0 1 0 1 0 0 0 0 0 0 0 1-1 0-1 0 0 1 0 1 0 1 0 0 0 1 0 1 0 0 0 0 0 0-1 0 0 0 0 0-1 1-1 0-1 0 0 1 0 1 0 1 0 0 0 1 0 1 0 0-1 0-1 0 0 0 0 0 0 1 0 0 0 0 0 0 0 0 0 0 0 0-1 0 0 1 0 1 0 0 0 0 0 1-1 0-1-1-1 0 0 0 0 0 0 0 0 0-1 0-1 0 0 0 0 1 0 1 0 0 0 0 0 1 0 0 0-1 0 0-1 0 0 0 0 0-1 0-1 0-1 0 0 0 0 1 0 1 0 0-1 0-1 0 0 0 0 0 0 1 0 0 0 0 0 0 0 0 0 0 0 0-1 0 0 1 0 1-1 0-1 0-1 0 0 0 0 0 0 1 0 0-1-1-1 0 0 0 0 0 0 0 0 0 0 0 0 0-1 0 0 1 0 1-1 0-1 0-1 0 0 0 0 0 0 1 0 0-1 0-1 0 0 0 0 0 0 0-1 0 0 0 0 0-1 0-1 0-1 0 0 0 0 1 0 1 0 0-1 0-1 0 0 0 0 0 0 0-1 0 0 0 0 1-1 0-1-1-1 0 0 0-1-1-1 0 0 0 0 0 0 0 0 0 0 0-1 0 0 0 0 0 0 0 0 0 0 1 0 1 0 0-1 0-1 0 0 0 0 0-1 0 0 0 0 0 0 0 0 0 0 1 0 1 0 0-1 0-1 0 0 0 0 0-1 0 0 0 0 0 0 0 0 0-1-1-1 0 0 0 0 0 0 0 0 0 0 0-1 0 0 0 0 0 0 0 0 0-1 0-1 0-1 0-2 0-3 0 0 0 0 0 0 0-1 0-1 0-2 0 0 0 0 0 0 0-1 0-1 0-2 0 0 0 0 0 0 0 0 0 0 0 0 0 0-1-1 0-1 0 0 0-1 0-1 0 0 0 0 0 0 0-1 0-1 0-1 0 0-1 0-1 0-1 0 0-1 0-1 0 0 0-1 0-1 0 0 0 0 0 0 1 0 0 1-1 1 0 0 0 0 0 0 0 0 0 0 1 0 1 0 0 0 0 0 0 0 0 0 0 0 1 0 0 1-1 1 0 0 0 0 0 0 0 0 0 0 1 0 1 0 0 1 0 1 0 0 0-1 0 0 1 0 0-1 0 0 0 0 0 0 0 0 0 0 0 0 1 0 1 0 0 0 1 0 1 0 0 1 0 1 0 0 0 0 0 0 0 0 0 1 0 1 0 0 0 0 1 0 1 0 0 0 1 0 1 0 0 0 0 0 0 0 0 0 0 0 0 0 0 0 1 0 1 0 0 1 0 1 0 0 0 0 1 0 1 0 0 0 0 0 0 0 0 1 0 1 0 0 0-1 1 0 1 0 0 0 0 0 0 0 0 0 1 0 1 0 0 0 0 0 0 0 0 1 0 1 0 0 0 0 1 0 1 0 0 0 1 0 1 0 0 1 0 1 0 0 0 0 0 0 0 0 0 0 0 0 0 0 1 0 1 0 1 0 0 0 1 0 1 0 0 1 0 1 0 0 0 0 0 0 0 0 1 0 1 0 1 0 0 1 0 1 0 0 0 0 1 0 1 0 0 0 0 0 0 0 0 0 0 0 0 0 0 0 1 0 1 0 0 0 1 0 1 0 0 1 0 1 0 0 0 0 0 0 0 0 1 1 0 1 0 0 1 0 1 0 1 0 0 0 1 0 1 0 0 0 0 0 0 0 0 0 0 0 0 0 1 0 1 0 1 0 0 1 0 1 0 0 0 0 1 0 1 0 0 1 0 1 0 0 0 0 0 0 0 0 1 0 1 0 1 0 0 0 0 0 0 0 0 0 1 0 1 0 0 0 0 0 0 0 0 1 0 1 0 0 1 0 1 0 1 0 0 0 1 0 1 0 0 1 0 1 0 0 0 0 0 0 0 0 1 0 0 0 0 0 0 0 1 0 1 0 0 0 1 0 1 0 0 1 0 1 0 0 0 0 0 0 0 0 1 0 1 0 1 0 0 1 0 1 0 0 0 0 1 0 1 0 0 0 0 0 0 0 1 0 0 0 0 0 1 0 1 0 1 0 0 1 0 1 0 0 0 0 1 0 1 0 0 0 0 0 0 0 1 1 0 1 0 0 1 0 1 0 1 0 0 0 1 0 1 0 0 0 0 0 0 0 0 0 0 0 0 0 1 0 1 0 1 0 0 1 0 1 0 0 0 0 1 0 1 0 0 1 0 1 0 0 0 0 0 0 1 0 0 0 0 0 0 0 0 0 0 0 0 0 0 0 1 0 1 0 0 0 0 0 1 0 0 1-1 1 0 0 0 0 0 0 0 0 0 1 0 1 0 0 0 0 1 0 1 0 0 0 0 0 1 0 0 0-1 0 0 0 0 0 0 0 0 0 0 0 1 0 1 0 0 1 0 1 0 0 0 0 0 0 1 0 0 0 0 0 0 0 0 1 0 1 0 0 0 0 1 0 1 0 0 0 0 0 0 0 0 0 0 0 1 0 0 0 0 0 0 1 0 1 0 1 0 0 0 0 1 0 1 0 0 1 0 1 0 0 0 0-1 0-1 0 0 0 0 0 0 1 0 1 0 1 0 0 0 1 0 1 0 0 0 0 0 0 0 0 0 0 0 0 0 1-1 1 0 1 0 0 0 1 0 1 0 0 0 0 0 0 0 1 0 0-1 0-1 1 0 1 0 1 0 0 0 1 0 1 0 0 0 0 0 0 0 0 0 0-1 0-1 1 0 1 0 1 0 0 0 1 0 1 0 0 0 0 0 0 0 0-1 0 0 0 0 1 0 1 0 1 0 0-1 1 0 1 0 0-1 0-1 0-1 0 0 0 0 0 0 1 0 1 0 1 0 0 0 0-1 0-1 0 0 1 0 1 0 0 0 0 0 0 0 1 0 0 0 0 0 1-1 1 0 1 0 0 0 1 0 1 0 0-1 0-1 0-1 0 0 0 0 0 0 1 0 1 0 1 0 0 0 0-1 0-1 0 0 1 0 1 0 0 0 0 0 0 0 1 0 0 0 0 0 1-1 1 0 1 0 0 0 1 0 1 0 0-1 0-1 0-1 0 0 0 0 1 0 0 0-1-1 0-1 0 0 0 0 0 0 0 0 1 0 1 0 0 0 0 0 0 0 0-1 0 0 0 0 1 0 1 0 1 0 0-1 0-1 0-1 0 0 1 0 1 0 0 0 0-1 0-1 0 0 0 0 0 0 1 0 0 0 0-1 1 0 1 0 1 0 0 0 1 1 1 0 0 0 0 0 0 0 0 0 0 0 1 0 0 0-1-1 0-1 0 0 0 0 0 0 0 0 1 0 1 0 0 0 0 0 0-1 0 0 0 1 1 0 0 0-1 0 0 0 0 0 0 0 0 0 0 0 0-1 0-1 0 0 1 0 1 0 0 0 0 0 0-1 0 0 0 1 1 0 0 0 0 1 0 0 0 0 0 0 0 0 0 0 1 0 1 0 0 0 0-1 0-1 0 0 0 0 1 0 0 0-1 0 0-1 0 0 0 1 0 0 0 0 0 0 0 0 0 0 1 0 1 0 0 0 0-1 0-1 0 0 0 0 1 0 0 0-1-1 0-1 0 0 0 1 0 0 0 0 0 0 0 0 0 0 1 0 1 0 0 0 0-1 0-1 0 0 1 0 1 0 0 0-1 0 0-1 0 0 0 1 0 0 0 0 0 0 0 0 0 0 1 0 1 0 0 0 0-1 0-1 0 0 1 0 1 0 0 0 0 0 0-1 0 0-1 0 0 0 0 0 0 0 0 0 0 0 0-1 0-1 0 0 1 0 1 0 0 0 0 0 0-1 0 0 1 1 1 0 0 0-1 0 0 0 0 0 0 0 0 0 0 0 0-1 0-1 0 0 0 0 0-1 0 0 1 1 1 0 0 0 0 0 0 0 0 0 1 0 1 0 0 0-1-1 0-1 0 0 0 0 0 0 0 0 0 0 0-1 0 0 0 0 0 0 0 0 1 0 1 0 0 0 0-1 0-1 0 0 1 0 1 0 0 0 0 0 0-1 0 0-1 0 0 0 0 0 0 0 0 0 0 0 0-1 0-1 0 0 1 0 1 0 0 0 0-1 0-1 0 0 0 0 0 0 0 0 1 0 1 0 0 0-1-1 0-1 0 0-1-1 0-1 0 0 0 0 0 0 0 0 0 0 0 0 0 0 1 0 1 0 0 0 0-1 0-1 0 0 0-1 0-1 0 0 1 0 1 0 0 0 0 0 0 0 0 0 0-1 0-1 0 0 0 0 0 0 0 0 0-1 0-1 0 0 0 0 0 0 0 0 1 0 1 0 0 0 0-1 0-1 0 0 1 0 1 0 0 0 0-1 0-1 0 0 0 0 0 0 0 0 0 0 0 0 0 0 0-1 0-1 0 0 0-1 0-1 0 0 1 0 1 0 0 0 0 0 0 0 0 0 1 0 1 0 0 0 0-1 0-1 0 0 0-1 0-1 0 0 0 0 0 0 0 0 0 0 0 0 0-1 0-1 0-1 0 0 1 0 1 0 0 0 0-1 0-1 0 0 0 0 0 0 0-1 1 0 1 0 0-1 0-1 0-1 0 0 0-1 0-1 0 0 0 0 0 0 0 0 0 0 0 0 0-1 1 0 1 0 0-1 0-1 0-1 0 0 0-1 0-1 0 0 1 0 1 0 0 0 0 0 0 0 0-1 0-1 0-1 0 0 0 0 0 0 0 0 0-1 0-1 0 0 1 0 1 0 0 0 0 0 0 0 0-1 0-1 0-1 0 0 1 0 1 0 0 0 0-1 0-1 0 0 0 0 0 0 0-1 0 0 0 0 0-1 0-1 0-1 0 0 0-1 0-1 0 0 1 0 1 0 0 0 0 0 0 0 0-1 1 0 1 0 0-1 0-1 0-1 0 0 0-1 0-1 0 0 0 0 0 0 0 0 0 0 0 0 0-1 0-1 0-1 0 0 1 0 1 0 0 0 0-1 0-1 0 0 0 0 0 0 0-1 1 0 1 0 0-1 0-1 0-1 0 0 0 0 0 0 0 0 0-1 0-1 0 0 0 0 0-1 0 0 1 1 1 0 0 0 0 0 0 0 0 0 0-1 0-1 0 0 1 0 1 0 0 0 0 0 0-1 0 0 0 1 0 0 0 0 0 0 0 0 0 0 0-1 0-1 0 0 1 0 1 0 0 0 0 0 0-1 0 0 0 0 0 0 0 0 1 0 1 0 0 0 0-1 0-1 0 0 0 0 0-1 0 0 0 1 0 0 0 0 0 0 0 0 0 0 1 0 1 0 0 0 0-1 0-1 0 0 0 0 0-1 0 0 1 1 1 0 0 0 0 0 0 0 0 0 0-1 0-1 0 0 0 0 0 0 0 0 0 0 0-1 0 0 0 0 0 0 1 0 1 0 1 0 0 0 0-1 0-1 0 0 1 0 1 0 0 0 0 0 0-1 0 0 0 0 0 0 0 0 0 0 0 0 0 0 0-1 0-1 0 0 0 0 0-1 0 0 1 1 1 0 0 0 0 0 0 0 0 0 1 0 1 0 0 0 0-1 0-1 0 0 0 0 0-1 0 0 0 1 0 0 0 0 0 0 0 0 0 0 0-1 0-1 0 0 1 0 1 0 0 0 0 0 0-1 0 0 0 0 0 0 0 0 1 0 1 0 0 0 0-1 0-1 0 0 0-1 0-1 0 0 0 0 0 0 1 0 0 0 0 0 1 0 1 0 1 0 0 0 0-1 0-1 0 0 0 0 0-1 0 0 1 1 1 0 0 0 0 0 0 0 0 0 0-1 0-1 0 0 0 0 0 0 1 0 0-1 0-1 1 0 1 0 1 0 0 0 0 0 0 0 0 0 0-1 0-1 0 0 1 0 1 0 0 0 0 0 0-1 0 0 0 0 0 0 0 0 0 0 0 0 1 0 0-1 0-1 0 0 0-1 0-1 1 0 1 0 1 0 0 0 0 0 0 0 0 0 1 0 1 0 0 0 0-1 0-1 0 0 0-1 0-1 0 0 0 0 0 0 1 0 0 0 0 0 1 0 0-1 0-1 1 0 1 0 1 0 0 0 0-1 0-1 0 0 1 0 1 0 0 0 0 0 0 0 0 0 0-1 0-1 0 0 0 0 0 0 1 0 0-1 0-1 1 0 0 0 0 0 1 0 1 0 1 0 0 0 0-1 0-1 0 0 0-1 0-1 0 0 1 0 1 0 0 0 0 0 0 0 0 0 0 0 0 0 1-1 0-1 0-1 0 0 0-1 0-1 1 0 1 0 1 0 0 0 0 0 0 0 0-1 0-1 0-1 0 0 1 0 1 0 0 0 0-1 0-1 0 0 0 0 0 0 0 0 0 0 0 0 1 0 0-1 0-1 1 0 1 0 1 0 0 0 0-1 0-1 0 0 0 0 0 0 0 0 1 0 1 0 0-1 0-1 0-1 0 0 0-1 0-1 0 0 0 0 0 0 1 0 0 0 0 0 1-1 1 0 1 0 0-1 0-1 0-1 0 0 0-1 0-1 0 0 1 0 1 0 0 0 0 0 0 0 0-1 0-1 0-1 0 0 0 0 0 0 1 0 0-1 0-1 0 0 0 0 0 0 1-1 1 0 1 0 0-1 0-1 0-1 0 0 1 0 1 0 0 0 0-1 0-1 0 0 0 0 0 0 0 0 0 0 1 0 0-1 0-1 0-1 0 0-1-1 0-1 0 0 0 0 0 0 0 0 0 0 0 0 0-1 0-1 0-1 0 0 1 0 1 0 0 0 0-1 0-1 0 0 0 0 0 0 0-1 0 0 1 0 0-1-1-1 0-1 0 0 0 0 0 0 1-1 1-1 1-1z m-115 52c1 0 1 0 1 0 0 0 0 0 0 0 0-1 0-1 0-1 0 0 1 0 1 0 0 0 0-1 0-1 0 0 0 0 0 0 0-1 0-1 0-1 0 0-1 0-1 0 0 0 0-1 0-1 0 0 0 0 0 0 0 0 0 0-1 0 0 0 0 0 0 0 0 0 0-1 0-1 0 0-1 0-1 0 0 0 0 0-1 0 0 0 0 0 0 0 0 0-1 0-1 0 0 0 0 0 0 1 0 0 0 0-1 0 0 0 1 0 0 0 0 0 0 0 0 0 0 0 0 1 0 1 0 0 0 0 0 1 0 0-1 0-1 0 0 0 0 0 0 0 0 0 0 1 0 1 0 0 1 0 1 0 0 0 0 0 0 1 0 0 0 0 0 0 0 0 0 0 0 0 1 0 0 1 0 1 1 0 1 0 1 0 0 0 1 0 1 0 0 0 0 0 0 0 1 0 1 0 1 0 0 0 1 0 1 0 0 0 0 0 0 0 1 0 0-1 0-1z m24-5c0 0 0-1 0-1 0 0 0 0 0 0 1 0 0 0 0-1 1 0 0 0 0 0 1 0 1 0 1 0 0 0 0-1 0-1 0 0 1 0 1 0 0 0 0 0 0-1 0 0 0 0 0 0 0 0 0 0 0 0 1 0 0-1 0-1 1 0 0 0 0-1 1 0 1 1 1 0 0 0 0 0 0 0 0 0 0-1 0-1 0 0 1 0 1 0 0 0 0 0 0-1 0 0 0 0 0 0 0 0 0 0 0 0 1 0 0-1 0-1 0 0 1 0 1 0 0 0 0 0 0-1 0 0 0 0 0 0 0 0 1 0 1 0 0 0 0-1 0-1 0 0 0-1 0-1 0 0 0 1 0 0 1 0 0 0 0 0 1 0 1 0 1 0 0 0 0-1 0-1 0 0 0 0 0-1 0 0 1 0 1 0 0 0 0 0 0 0 0 0 0-1 0-1 0 0 0 0 0 0 1 0 0-1 0-1 0 0 0 0 0 0 1 0 1 0 1 0 0 0 0-1 0-1 0 0 1 0 1 0 0 0 0 0 0-1 0 0 0 0 0 0 0 0 0 0 0 0 1 0 0-1 0-1 1 0 0-1 0-1 1 0 1 0 1 0 0 0 0 0 0 0 0 0 1 0 1 0 0 0 0-1 0-1 0 0 0-1 0-1 0 0 0 0 0 0 1 0 0 0 0 0 0-1 0-1 0-1 1 0 1 0 1 0 0 0 0-1 0-1 0 0 0 0 0 0 0 0 1 0 1 0 0 0 0-1 0-1 0 0 0-1 0-1 0 0 0 0 1 0 0 0-1 0 0 0 0 0 0 0 0 0 0 0 0-1 0-1 0 0 0-1 0-1 0 0 1 0 1 0 0 0 0 0 0 0 0-1 0-1 0-1 0 0 0 0 0 0 1 0 0-1 0-1 1 0 1 0 1 0 0 0 0 0 0 0 0 0 0-1 0-1 0 0 1 0 1 0 0 0 0-1 0-1 0 0 0 0 0 0 0 0 0 0 1 0 0 0 0-1 0-1 0 0-1-1 0-1 0 0 0 0 0 0 0 0 0 0 0 0 0 0 1 0 1 0 0-1 0-1 0-1 0 0 0-1 0-1 0 0 0 0 1 0 0 0-1 0 0 0 0-1-1-1 0-1 0 0 0 0 0 0 0 0 0-1 0-1 0 0 1 0 1 0 0 0 0 0 0 0 0-1 0-1 0-1 0 0 0 0 1 0 0 0-1-1 0-1 0 0-1 0 0 0 0 0 0 0 0 0 0-1 0-1 0-1 0 0 0-1 0-1 0 0 1 0 1 0 0 0 0 0 0 0 0 0 1 0 1 0 0-1 0-1 0-1 0 0-1-1 0-1 0 0 0 0 0 0 0 0 0 0 0 0 0-1 0-1 0-1 0 0 1 0 1 0 0 0 0-1 0-1 0 0 0 0 0 0 0-1 0 0 1 0 0-1-1-1 0-1 0 0 0 0 0 0 0 0 0-1 0-1 0 0 0 0 0 0 0-1 1 0 1 0 0-1 0-1 0-1 0 0-1 0-1 0 0 0 0-1 0-1 0 0 0 0 0 0 0 0 0 0 0 0-1 0-1 0-1 0 0 0 0-1 0-1 0 0-1 0-1 0 0 0 0-1 0-1 0 0 0 0 0 0-1 0 0 0 0 0-1-1-1 0-1 0 0-1 0-1 0-1 0 0-1 0-1 0 0 0 0-1 0-1 0 0 0 0 0 0-1 0 0 0 0 0-1-1-1 0-1 0 0-1 0-1 0-1 0 0-1 0-1 0 0 0 0 0 0 0-1 0 0-1 0-1-1 0-1 0-1 0 0 0 0 0 0 0 0-1-1 0-1 0 0-1 0-1 0-1 0 0 0 0 0 0-1 0-1 0-1 0 0 0 0-1 0-1 0 0-1 0-1 0 0 0 0 0 0 0 0-1 0 0-1 0 0-1 0 0 0 0 0-1 0-1 0-1 0 0-1 0-1 0 0 0 0-1 0-1 0 0 0 0 0 0-1 0-1 0-1 0 0 0 0 0 0 0 0-1-1 0-1 0 0-1 0-1 0-1 0 0 0 0-1 0 0 0 0 0 0 0 0 0 0-1 0-1 0 0-1 0-1 0 0 0 0 0-1 0 0 0 1 0 0 0 0-1 0 0 0 0 0 0-1 0-1 0 0-1 0-1 0-1 0 0 0 0-1 0 0 0 0 0 0 0 0 0 0-1 0-1 0 0-1 0-1 0 0 0 0 0-1 0 0 0 1 0 0-1 0 0 0 1 0 0 0 0-1 1-1 0 0 0 0 0 0 0 0 0 0 0-1 0 0 0 0 0 0 0 0 0-1 0-1 0 0 0 0-1 0-1 0 0 0 0-1 0 0 0 0 0 0 0 0 0 0 0 0-1 0 0-1 0-1 0 0 0 0 1-1 0 0 0 0 1 0 0 0 0 0 0 0 0 0 0-1 0-1 0 0 0 0 0-1 0 0 0 0 0 0 0 0 0 0-1 0-1 0 0-1 0-1 0 0 0-1 0-1 0 0 0 0-1 0-1 0 0 0 0 0 0-1 0-1 0-1 0 0 0 0 1-1 0 0 0 0 1 0 0 0 0 0 0 0 0 0 0-1 0-1 0 0 0 0 0-1 0 0 0 0 0 0 0 0 0-1 0-1 0 0 0 0 0-1 0 0 0 0-1 0-1 0 0 0 0 0 0-1 0-1 0-1 0 0 0 0 0-1 0 0 0 0 0 0 0-1 0-1 0-1 0 0 0 0 0 0-1 0 0-1 0-1 0 0 0 0 0 0 0-1 0-1 0-1 0 0 0 0 0-1 0 0 0 0 0 0 0-1 0-1 0-1 0 0 0 0 0-1 0 0 0 0 1 0 0 0 0 0 0 0 0 0 0-1 0-1 0 0 0 0 0-1 0 0 0 0 0 0 0-1 0-1 0-1 0 0 0 0 0-1 0-1 0-1 0-2 0-1 0-1 0-1 0-1 0-2 0-3 0 0 0 0 0 0 0-1 0-2 0-3 0 0 0-1 0-1 0-1 0-2 0-3 0 0 0 0 0 0 0-1 0-2 0-3 0 0 0 0 0-1 0-1 0-1 0-2 0-1 0-1 0-1 0-1 0-2 0-3 0 0 0 0 0 0 0-1 0-2 0-3 0 0 0-1 0-1 0-1 0-2 0-3 0 0 0 0 0 0 0-1 0-2 0-3 0 0 0 0 0-1 0-1 0-1 0-2 0-1 0-1 0-1 0-1 0-2 0-3 0 0 0 0 0 0 0-1 0-2 0-3 0 0 0-1 0-1 0-1 0-2 0-3 0 0 0 0 0 0 0-1 0-1 0-2 0 0 0-1 0-2 0-1 0-1 0-2 0 0 0 0 0 0 0-1 0-2 0-3 0 0 0-1 0-1 0-1 0-2 0-2 0-1 0-1 0-1 0-1 0-2 0-3 0 0 0 0 0-1 0 0 0-1 0-2 0 0 0-1 0-1 0-1 0-2 0-3 0 0 0 0 0 0 0-1 0-2 0-3 0 0 0-1 0-1 0 0 0-1 0-1 0-1 0-2 0-3 0 0 0-1 0-1 0 0 0-1 0-1 0-1 0-2 0-3 0 0 0 0 0 0 0-1 0-2 0-3 0 0 0 0 0-1 0-1 0-1 0-2 0-1 0-1 0-1 0-1 0-2 0-3 0 0 0 0 0 0 0-1 0-2 0-3 0 0 0-1 0-1 0-1 0-2 0-3 0 0 0 0 0 0 0-1 0-1 0-2 0-1 0-1 0-2 0 0 0 0 0 0 0 0 1-1 0-1 0 0 1 0 1 0 1 0 0-1 0-1 0 0 0 0 1 0 1 0 0 0 0 0 0 0 1 0 0 0 0 0 1 0 1 0 1 0 0 0 1 0 1 0 0-1 0-1 0 0 0 0 0 0 0 0 1-1 0-1 0 0 1 0 1 0 1 0 0 0 1 0 1 0 0 0 0 0 0 0 0 0 0 0 0 0 1 0 1 0 1 0 0-1 0-1 0 0 0 0 1 0 1 0 0-1 0-1 0 0 0 0 0 0 1 0 0 0 0 0 0 0 0 0 1 0 1 0 0 0 0 0 0 0 0 0 0 0 1 0 0-1-1-1 0 0 0 0 0 0 0 0 0 0 1 0 1 0 0-1 0-1 0 0 0 0 0 0 1 0 0 0 0 0 0 0 0 0 0 0 0 0 0 0 1 0 1 0 0-1 0-1 0 0 0 0 0 0 1 0 0 0 0 0 0 0 0-1 0-1 0 0 0 0 1 0 1 0 0 0 0 0 0 0 0 0 0 0 1 0 0 0 0 0 0 0 0-1 0-1 0 0 0 0 1 0 1 0 0 0 0 0 1 0 0-1-1-1 0 0 0 0 0 0 0 0 0 0 1 0 1 0 0 0 0 0 0 0 0 0 0 0 1 0 0 0 0 0 0 0 0-1 0-1 0 0 0 0 1 0 1 0 0-1 0-1 0 0 0 0 0 0 1 0 0 0 0 0 0 0 0 0 0 0 0 0 1 0 2 0 3 0 0 0 0 0 0 0 0 0 1 0 1 0 0 0 0 0 0 0 0 1 0 1 0 0 0 0 1 0 1 0 0 0 1 0 1 0 0 1 0 1 0 0 0 0 0 0 0 0 0 0 1 0 1 0 0 0 0 0 0 0 0 0 1 0 1 0 0 1 0 1 0 0 0 0 0 0 0 0 0 0 1 0 1 0 0 1 0 1 0 0 0 0 1 0 1 0 0 0 0 0 0 0 0 0 0 0 0 0 0 0 1 0 1 0 0 1 0 1 0 0 0 0 1 0 1 0 0 0 0 0 0 0 0 1 0 1 0 0 1 0 1 0 1 0 0 0 1 0 1 0 0 0 0 0 0 0 0 0 0 0 0 0 0 1 0 1 0 0 0 0 1 0 1 0 0 0 1 0 1 0 0 1 0 1 0 0 0 0 0 0 0 0 1 0 1 0 1 0 0 0 0 0 0 0 0 0 1 0 1 0 0 0 0 0 0 0 0 1 0 1 0 0 0 0 1 0 1 0 0 0 1 0 1 0 0 1 0 1 0 0 0 0 0 0 0 0 0 0 0 0 0 0 0 0 1 0 1 0 0 0 1 0 1 0 0 1 0 1 0 0 0 0 0 0 0 0 1 1 0 1 0 0 1 0 1 0 1 0 0 0 1 0 1 0 0 0 0 0 0 0 0 0 0 0 0 0 0 0 1 0 1 0 0 1 0 1 0 0 0 0 1 0 1 0 0 0 0 0 0 0 1 1 0 1 0 0 0 1 0 1 0 1 0 1 0 1 0 1 0 1 0 1 0 1 0 2 0 3 0 0 0 0 0 0 0 1 0 2 0 3 0 0 0 1 0 1 0 0 0 1 0 1 0 1 0 2 0 3 0 0 0 1 0 1 0 1 0 1 0 1 0 1 0 2 0 3 0 0 0 0 0 0 0 1 0 2 0 3 0 0 0 1 0 1 0 0 0 1 0 1 0 1 0 2 0 3 0 0 0 1 0 1 0 1 0 1 0 1 0 1 0 2 0 3 0 0 0 0 0 0 0 1 0 2 0 3 0 0 0 1 0 1 0 0 0 1 0 1 0 1 0 2 0 3 0 0 0 1 0 1 0 0 0 1 0 1 0 0 0 1 0 1 0 1 0 2 0 3 0 0 0 1 0 1 0 1 0 1 0 1 0 1 0 1 0 1 0 1 0 2 0 3 0 1 0 1 0 2 0 0 0 0 0 0 0 1 0 2 0 3 0 0 0 0 0 1 0 1 0 1 0 2 0 1 0 1 0 1 0 0 0 1 0 1 0 1 0 2 0 3 0 1 0 1 0 1 0 1 0 1 0 1 0 1 0 2 0 3 0 0 0 0 0 1 0 0 0 1 0 2 0 0 0 1 0 1 0 0 0 1 0 1 0 1 0 2 0 3 0 1 0 1 0 1 0 1 0 1 0 1 0 1 0 2 0 3 0 0 0 0 0 0 0 1 0 2 0 3 0 0 0 1 0 1 0 0 0 1 0 1 0 1 0 2 0 3 0 0 0 1 0 1 0 1 0 1 0 1 0 0 0 1 0 1 0 1 0 2 0 3 0 1 0 1 0 1 0 1 0 1 0 1 0 1 0 2 0 3 0 0 0 0 0 1 0 0 0 0 0 0 0 0 0 1 0 1 0 0 1 0 1 0 1 0 0 0 0 1 0 0 0 0 0 0 0 0 0 1 0 1 0 0 0 0 0 1 0 0 0 0 0 0 0 0 0 0 1 0 1 0 0 1 0 1 0 0 0 0 0 1 0 0 0 0 0 0 0 0 0 1 0 1 0 0 0 0 0 0 0 0 1 0 0 1 0 0 0 0 0 0 0 0 1 0 1 0 1 0 0 1 0 1 0 0 0 1 0 1 0 0 0-1 1 0 1 0 0 0 0 0 0 0 0 1 0 1 0 0 0 0 0 0 0 0 1 0 0 1 0 0 1 0 0 0 0 0 1 0 1 0 1 0 0 1 0 1 0 0 0 0 1 0 1 0 0 1 0 1 0 0 0 0 0 0 0 0 1 0 0 0 0 0 1 0 1 0 1 0 0 1 0 1 0 0 0 1 0 1 0 0 0 0 1 0 1 0 0 0 0 0 0 0 1 0 0 0 0 0 1 0 1 0 1 0 0 1 0 1 0 0 0 0 1 0 1 0 0 1 0 1 0 0 0 0 0 0 0 0 1 0 0 0 0 0 1 0 1 0 1 0 0 0 1 0 1 0 0 1 0 1 0 0 0 0 0 0 0 0 1 1 0 1 0 0 1 0 1 0 1 0 0 0 1 0 1 0 0 0 0 0 0 0 0 0 0 0 0 0 1 0 1 0 1 0 0 1 0 1 0 0 0 0 1 0 1 0 0 0 0 0 0 0 1 0 1 0 1 0 0 1 0 1 0 0 0 0 1 0 1 0 0 0 0 0 1 0 0 0 0 0 0 0 0 0 0 0 0 0 0 0 1 0 1 0 0 0 0 0 1 0 0 0 0 0 0 0 0 0 1 0 1 0 0 1 0 1 0z"/>
<glyph unicode="&#70;" d="M256 485c-126 0-229-103-229-229 0-126 103-229 229-229 126 0 229 103 229 229 0 126-103 229-229 229z m0-422c-107 0-193 87-193 193 0 106 86 193 193 193 106 0 193-87 193-193 0-106-87-193-193-193z m-26 125c-4 2-7 5-8 9-2 5-5 14-5 28l0 40 60 0 0 44-60 0 0 61-25 0c-2-13-2-17-7-25-4-8-10-19-17-25-7-6-16-12-26-15l0-40 29 0 0-63c0-12 1-20 3-26 3-6 7-12 13-17 7-5 20-12 20-12 0 0 12-5 23-5 10 0 20 1 28 3 9 2 22 7 33 12l0 39c-13-8-29-13-41-13-8 0-14 1-20 5z m109 15c-17 0-31-14-31-31 0-17 14-30 31-30 17 0 31 13 31 30 0 17-14 31-31 31z"/>
<glyph unicode="&#71;" d="M256 485c-126 0-229-103-229-229 0-126 103-229 229-229 126 0 229 103 229 229 0 126-103 229-229 229z m0-422c-106 0-193 87-193 193 0 106 87 193 193 193 106 0 193-87 193-193 0-106-87-193-193-193z m114 269c-4-2-15-7-26-8 7 4 17 17 20 28-7-5-22-12-30-12 0 0 0 0 0 0-8 10-20 16-34 16-26 0-47-23-47-51 0-4 1-7 1-11-35 1-76 20-99 53-15-27-2-57 14-68-6 0-16 1-21 6 0-17 8-41 37-49-6-4-16-3-20-2 1-15 21-34 42-34-8-10-33-27-65-21 21-15 47-23 74-23 76 0 135 66 131 148 0 0 0 1 0 1 0 0 0 0 0 0 0 0 0 1 0 1 7 5 17 14 23 26z"/>
<glyph unicode="&#72;" d="M256 485c-126 0-229-103-229-229 0-126 103-229 229-229 126 0 229 103 229 229 0 126-103 229-229 229z m0-422c-106 0-193 87-193 193 0 106 87 193 193 193 107 0 193-87 193-193 0-106-87-193-193-193z m86 136l0-29-172 0 0 29-28 0 0-57 228 0 0 57z m-100 100l0-89 28 0 0 89 43 0-57 71-57-71z"/>
<glyph unicode="&#73;" d="M256 485c-126 0-229-103-229-229 0-126 103-229 229-229 126 0 229 103 229 229 0 126-103 229-229 229z m0-422c-106 0-193 87-193 193 0 106 87 193 193 193 106 0 193-87 193-193 0-106-87-193-193-193z m78 293c-29 0-52-19-61-54 10 5 30 8 31-10 2-18-25-64-37-64-12 0-20 52-23 76-4 23-9 50-31 50-23 0-51-35-71-51l10-15c0 0 15 12 20 11 14-3 25-58 31-79 6-21 13-64 43-64 46 0 124 117 124 155 0 25-7 45-36 45z"/>
<glyph unicode="&#74;" d="M256 485c-126 0-229-103-229-229 0-126 103-229 229-229 126 0 228 103 228 229 1 126-102 229-228 229z m0-422c-106 0-193 87-193 193 0 106 87 193 193 193 106 0 193-87 193-193 0-106-87-193-193-193z m67 289l-88-53-58 0c-3 0-7-3-7-7l0-72c0-4 4-7 7-7l61 0 85-53c15-9 19-2 19 16l0 160c0 18-4 25-19 16z"/>
<glyph unicode="&#75;" d="M256 485c-126 0-229-103-229-229 0-126 103-229 229-229 126 0 229 103 229 229 0 126-103 229-229 229z m0-422c-106 0-193 87-193 193 0 106 87 193 193 193 106 0 193-87 193-193 0-106-87-193-193-193z m89 199c-5 0-9-1-13-3-2 33-30 59-64 59-23 0-50-9-61-25l0-99 138 0c19 0 35 15 35 34 0 18-16 34-35 34z m-200-68l0 62c-7-6-10-15-13-25-2-13 6-31 13-37z m37 0l12 0 0 87-12 0z m-25 0l13 0 0 74-13 0z"/>
<glyph unicode="&#76;" d="M256 484c-126 0-229-102-229-228 0-126 103-229 229-229 126 0 228 103 228 229 1 126-102 228-228 228z m0-421c-106 0-193 86-193 193 0 106 87 193 193 193 106 0 193-87 193-193 0-107-87-193-193-193z m29 193c0-16-13-28-29-28-16 0-29 12-29 28 0 16 13 29 29 29 16 0 29-13 29-29z m15 48l-16-12c11-8 18-21 18-36 0-15-7-28-18-36l16-12c13 12 22 29 22 48 0 19-9 36-22 48z m39 29l-16-12c17-16 28-39 28-65 0-26-11-49-28-65l16-12c19 20 31 47 31 77 0 30-12 57-31 77z m-129-78c0 15 7 28 19 36l-16 12c-14-11-23-28-23-47 0-19 8-36 22-48l16 12c-11 8-19 21-18 35z m-20 66l-16 12c-20-20-32-47-32-77-1-30 11-57 30-77l16 12c-17 16-27 40-27 65 1 26 12 49 29 65z"/>
<glyph unicode="&#77;" d="M256 485c-126 0-229-103-229-229 0-126 103-229 229-229 126 0 229 103 229 229 0 126-103 229-229 229z m0-422c-106 0-193 87-193 193 0 106 86 193 193 193 107 0 193-87 193-193 0-106-87-193-193-193z m99 193c0 56-46 102-102 102-5 0-10-1-15-2-11 9-24 14-38 14-32 0-58-26-58-58 0-13 4-25 11-35-1-7-2-14-2-21 0-57 46-102 102-102 7 0 14 1 21 2 10-9 24-14 38-14 32 0 58 26 58 58 0 16-6 30-16 41 0 5 1 10 1 15z m-55-45c-3-5-9-10-17-13-8-3-17-5-28-5-12 0-23 2-31 7-6 3-11 7-14 13-4 5-6 10-6 15 0 3 1 5 3 7 3 3 5 4 9 4 3 0 5-1 7-3 2-1 3-4 5-7 1-4 3-7 5-9 2-3 5-5 8-7 3-1 8-2 14-2 7 0 14 1 18 5 5 3 8 7 8 12 0 4-2 7-4 10-3 2-6 4-10 5-4 2-10 3-17 4-9 2-17 5-23 7-6 3-11 7-15 11-4 5-5 11-5 17 0 7 2 13 6 18 3 5 9 9 16 11 8 3 16 4 26 4 8 0 15 0 21-2 5-2 10-4 14-7 4-3 7-6 8-10 2-3 3-6 3-9 0-3-1-6-3-8-3-2-5-4-9-4-3 0-5 1-6 3-2 1-4 3-5 6-3 5-6 8-9 11-3 2-8 3-16 3-6 0-12-1-16-4-4-2-6-6-6-9 0-3 1-5 2-7 1-1 3-3 6-4 2-1 5-2 7-3 3-1 7-2 13-3 7-2 13-3 19-5 6-2 11-4 15-7 5-3 8-6 10-10 2-4 4-9 4-15 0-7-2-14-7-20z"/>
<glyph unicode="&#78;" d="M256 485c-126 0-229-103-229-229 0-126 103-229 229-229 126 0 229 103 229 229 0 126-103 229-229 229z m0-422c-106 0-193 87-193 193 0 106 87 193 193 193 106 0 193-87 193-193 0-106-87-193-193-193z m-71 122l85 71-85 71z m85 85l0-85 29 0 0 142-29 0z"/>
<glyph unicode="&#79;" d="M256 485c-126 0-229-103-229-229 0-126 103-229 229-229 126 0 229 103 229 229 0 126-103 229-229 229z m0-422c-106 0-193 87-193 193 0 106 87 193 193 193 106 0 193-87 193-193 0-106-87-193-193-193z m-114 122l85 71-85 71z m85 71l0-71 86 71-86 71z m86 14l0-85 29 0 0 142-29 0z"/>
<glyph unicode="&#80;" d="M256 27c126 0 229 103 229 229 0 126-103 229-229 229-126 0-229-103-229-229 0-126 103-229 229-229z m0 422c106 0 193-87 193-193 0-106-87-193-193-193-107 0-193 87-193 193 0 106 86 193 193 193z m86-122l-86-71 86-71z m-86-71l0 71-86-71 86-71z m-86 14l0 57-28 0 0-142 28 0z"/>
<glyph unicode="&#81;" d="M256 485c-126 0-229-103-229-229 0-126 103-229 229-229 126 0 229 103 229 229 0 126-103 229-229 229z m0-422c-106 0-193 87-193 193 0 106 87 193 193 193 106 0 193-87 193-193 0-106-87-193-193-193z m43 122l0 142-86-71z m-114 142l0-142 28 0 0 142z"/>
<glyph unicode="&#82;" d="M256 485c-126 0-229-103-229-229 0-126 103-229 229-229 126 0 229 103 229 229 0 126-103 229-229 229z m0-422c-106 0-193 87-193 193 0 106 87 193 193 193 106 0 193-87 193-193 0-106-87-193-193-193z m78 234c20 0 36 16 36 37 0 20-16 36-36 36-21 0-37-16-37-36 0-2 0-3 0-5l-93-47c-6 7-16 11-26 11-20 0-36-17-36-37 0-20 16-37 36-37 11 0 20 4 27 11l92-47c0-1 0-3 0-5 0-20 16-36 37-36 20 0 36 16 36 36 0 21-16 37-36 37-11 0-20-4-27-11l-92 47c0 1 0 3 0 5 0 2 0 4 0 6l92 46c7-7 16-11 27-11z"/>
<glyph unicode="&#83;" d="M366 166l-69 69c10 14 16 31 16 50 0 47-38 85-86 85-47 0-85-38-85-85 0-48 38-86 85-86 19 0 36 6 50 16l69-69c5-6 15-6 20 0 6 5 6 15 0 20z m-90 90c-4-9-11-16-20-20-8-5-18-9-29-9-31 0-57 26-57 58 0 31 26 57 57 57 32 0 58-26 58-57 0-11-4-21-9-29z m-20 229c-126 0-229-103-229-229 0-126 103-229 229-229 126 0 229 103 229 229 0 126-103 229-229 229z m0-422c-106 0-193 87-193 193 0 106 87 193 193 193 107 0 193-87 193-193 0-106-87-193-193-193z"/>
<glyph unicode="&#84;" d="M256 485c-126 0-229-103-229-229 0-126 103-229 229-229 126 0 229 103 229 229 0 126-103 229-229 229z m0-422c-106 0-193 87-193 193 0 106 87 193 193 193 106 0 193-87 193-193 0-106-87-193-193-193z m-114 216l0-46c50 0 91-41 91-91l46 0c0 75-62 137-137 137z m0 91l0-45c101 0 183-82 183-183l45 0c0 126-102 228-228 228z m45-205c0-13-10-23-22-23-13 0-23 10-23 23 0 12 10 22 23 22 12 0 22-10 22-22z"/>
<glyph unicode="&#85;" d="M256 485c-126 0-229-103-229-229 0-126 103-229 229-229 126 0 229 103 229 229 0 126-103 229-229 229z m0-422c-106 0-193 87-193 193 0 106 87 193 193 193 106 0 193-87 193-193 0-106-87-193-193-193z m71 122l0 142-85-71z m-171 71l86-71 0 142z"/>
<glyph unicode="&#86;" d="M256 485c-126 0-229-103-229-229 0-126 103-229 229-229 126 0 229 103 229 229 0 126-103 229-229 229z m0-422c-106 0-193 87-193 193 0 106 87 193 193 193 107 0 193-87 193-193 0-106-87-193-193-193z m5 307c-62 0-94-44-94-82 0-22 9-42 27-50 3-1 6 0 7 3 0 3 2 8 2 11 1 3 1 4-1 7-6 6-9 15-9 26 0 33 25 63 65 63 35 0 55-22 55-50 0-38-17-70-42-70-14 0-24 11-21 25 4 17 12 35 12 47 0 10-6 19-18 19-14 0-26-14-26-34 0-12 5-20 5-20 0 0-15-61-17-72-5-21-1-47-1-50 1-1 3-2 3-1 2 2 19 23 24 43 2 6 9 36 9 36 5-8 18-16 33-16 42 0 71 39 71 90 0 39-33 75-84 75z"/>
<glyph unicode="&#87;" d="M256 484c-126 0-229-102-229-228 0-126 103-229 229-229 126 0 229 103 229 229 0 126-103 228-229 228z m0-421c-106 0-193 87-193 193 0 106 87 193 193 193 106 0 193-87 193-193 0-106-87-193-193-193z m-113 285l222 0 0-37-222 0z m0-74l222 0 0-36-222 0z m0-73l222 0 0-37-222 0z"/>
<glyph unicode="&#88;" d="M305 356c-20 0-37-9-49-23-12 14-29 23-49 23-36 0-65-30-65-67 0-83 114-133 114-133 0 0 114 50 114 133 0 37-29 67-65 67z m-49 129c-126 0-229-103-229-229 0-126 103-229 229-229 126 0 228 103 228 229 0 126-102 229-228 229z m0-422c-106 0-193 87-193 193 0 106 87 193 193 193 106 0 193-87 193-193 0-106-87-193-193-193z"/>
<glyph unicode="&#89;" d="M256 485c-126 0-229-103-229-229 0-126 103-229 229-229 126 0 229 103 229 229 0 126-103 229-229 229z m0-422c-107 0-193 87-193 193 0 106 86 193 193 193 106 0 193-87 193-193 0-106-87-193-193-193z m-14 212l5-76 18 0 5 77 0 94-28 0z m0-105l28 0 0-28-28 0z"/>
<glyph unicode="&#90;" d="M327 347l-71-71-71 71-20-20 71-71-71-71 20-20 71 71 71-71 20 20-71 71 71 71z m-71 138c-126 0-229-103-229-229 0-126 103-229 229-229 126 0 229 103 229 229 0 126-103 229-229 229z m0-422c-106 0-193 87-193 193 0 106 87 193 193 193 106 0 193-87 193-193 0-106-87-193-193-193z"/>
<glyph unicode="&#48;" d="M485 256c0 126-103 228-229 228-126 0-229-102-229-228 0-126 103-229 229-229 126 0 229 103 229 229z m-422 0c0 106 87 193 193 193 106 0 193-87 193-193 0-107-87-193-193-193-106 0-193 87-193 193z m293-21l-100 100-100-100 29-29 71 71 71-71z"/>
<glyph unicode="&#49;" d="M256 484c-126 0-229-102-229-228 0-126 103-229 229-229 126 0 229 103 229 229 0 126-103 228-229 228z m0-421c-106 0-193 87-193 193 0 106 87 193 193 193 106 0 193-87 193-193 0-106-87-193-193-193z m-5 246c-23 0-42-19-42-43 0-23 19-42 42-42 23 0 42 19 42 42 0 24-19 43-42 43z m0-70c-15 0-28 12-28 27 0 16 13 28 28 28 15 0 28-12 28-28 0-15-13-27-28-27z m69-42c3 0 5 0 7 0l0 107 8 0c0 0 3 0 6 0 3 0 6 0 9 0-16 40-54 68-99 68-58 0-106-47-106-106 0-58 48-105 106-105 10 0 19 1 28 3 1 19 19 33 41 33z m-69 21c-27 0-48 22-48 48 0 27 21 49 48 49 27 0 48-22 48-49 0-27-21-48-48-48z m138 50c-7 32-53 28-53 28l0-110c-5 2-10 3-16 3-18 0-33-12-33-27 0-14 15-26 33-26 18 0 33 12 33 26l0 109c40-15 20-49 20-49 0 0 22 14 16 46z"/>
<glyph unicode="&#50;" d="M256 485c-126 0-229-103-229-229 0-126 103-229 229-229 126 0 229 103 229 229 0 126-103 229-229 229z m0-422c-106 0-193 87-193 193 0 106 87 193 193 193 107 0 193-87 193-193 0-106-87-193-193-193z m11 79l-22 0c-49 0-89 41-89 91l0 114c0 13 10 23 22 23 13 0 22-10 22-23l0-114c0-25 20-46 45-46l22 0c25 0 45 18 45 40 0 23-12 40-23 40l-44 0c-12 0-22 11-22 23 0 13 10 23 22 23l44 0c37 0 67-38 67-86 0-47-40-85-89-85z"/>
<glyph unicode="&#51;" d="M28 256c0-126 102-229 228-229 126 0 229 103 229 229 0 126-103 228-229 228-126 0-228-102-228-228z m421 0c0-107-87-193-193-193-106 0-193 86-193 193 0 106 87 193 193 193 106 0 193-87 193-193z m-207 114l0-177-37 34-20-19 71-66 71 66-20 19-37-34 0 177z"/>
<glyph unicode="&#52;" d="M256 484c-126 0-229-102-229-228 0-126 103-229 229-229 126 0 229 103 229 229 0 126-103 228-229 228z m0-421c-106 0-193 87-193 193 0 106 87 193 193 193 106 0 193-87 193-193 0-106-87-193-193-193z m-29 293l-71 0 0-71 21 21 36-36 29 29-36 36z m58-200l71 0 0 71-21-21-36 36-29-29 36-36z m71 129l0 71-71 0 21-21-36-36 29-29 36 36z m-200-58l0-71 71 0-21 21 36 36-29 29-36-36z"/>
<glyph unicode="&#53;" d="M256 485c-126 0-229-103-229-229 0-126 103-229 229-229 126 0 229 103 229 229 0 126-103 229-229 229z m0-422c-106 0-193 87-193 193 0 106 87 193 193 193 106 0 193-87 193-193 0-106-87-193-193-193z m-12 250c4-6 6-13 6-22 0-8-2-15-6-20-2-3-6-6-11-8 7-3 13-7 16-12 4-6 6-13 6-21 0-8-2-15-6-22-3-4-6-8-10-11-5-3-10-6-16-7-6-1-12-2-19-2l-62 0 0 139 66 0c17 0 29-5 36-14z m-75-10l0-30 34 0c6 0 11 1 14 3 4 2 6 6 6 12 0 7-3 11-8 13-4 1-9 2-16 2z m0-54l0-37 34 0c6 0 10 1 14 3 6 3 9 9 9 17 0 7-3 12-9 15-3 2-8 2-14 2l-34 0z m175 40c7-3 13-8 17-15 4-6 7-13 8-22 1-4 1-11 1-20l-74 0c0-10 4-18 11-22 4-2 9-4 14-4 6 0 11 2 15 5 2 2 4 4 6 7l27 0c-1-6-4-12-10-18-9-10-22-15-38-15-14 0-26 4-36 12-11 9-16 22-16 41 0 18 5 32 14 42 10 9 22 14 37 14 9 0 17-2 24-5z m-40-23c-4-4-6-9-7-16l46 0c-1 7-3 12-8 16-4 4-9 6-15 6-7 0-12-2-16-6z m-19 47l71 0 0-14-71 0z"/>
<glyph unicode="&#54;" d="M256 485c-126 0-229-103-229-229 0-126 103-229 229-229 126 0 229 103 229 229 0 126-103 229-229 229z m0-422c-106 0-193 87-193 193 0 106 87 193 193 193 106 0 193-87 193-193 0-106-87-193-193-193z m0 279c-55 0-100-34-100-75 0-18 14-39 29-52l-15-45 44 30c13-5 27-7 42-7 55 0 100 33 100 74 0 41-45 75-100 75z"/>
<glyph unicode="&#55;" d="M256 484c-126 0-229-102-229-228 0-126 103-229 229-229 126 0 229 103 229 229 0 126-103 228-229 228z m0-421c-106 0-193 87-193 193 0 107 87 193 193 193 106 0 193-86 193-193 0-106-87-193-193-193z m114 207l-177 0 34 37-19 20-66-71 66-71 19 20-34 37 177 0z"/>
<glyph unicode="&#56;" d="M256 485c-126 0-229-103-229-229 0-126 103-229 229-229 126 0 229 103 229 229 0 126-103 229-229 229z m0-422c-106 0-193 87-193 193 0 106 87 193 193 193 106 0 193-87 193-193 0-106-87-193-193-193z m98 222l-9 0c0 0-1 0-1 0-15 0-15 12-15 12-1 41-30 73-73 73l0 0-38 0c-42 0-76-34-76-76l0-76c0-42 28-76 71-76l86 0 0 0c28 1 71 34 71 76l0 51c0 8-8 16-16 16z m-141 28l0 0 43 0 0 0c14 0 14-7 14-15 0-7-5-13-14-13l-42 0c0 0-1 0-1 0-7 0-15 6-15 13 0 8 15 15 15 15z m79-114l-79 0c0 0 1 0 0 0-7 0-15 7-15 15 0 7 8 13 15 13 0 0 1 0 1 0l79 0 0 0c8 0 13-6 13-14 0-7-5-14-14-14z"/>
<glyph unicode="&#57;" d="M256 485c-126 0-229-103-229-229 0-126 103-229 229-229 126 0 229 103 229 229 0 126-103 229-229 229z m0-422c-106 0-193 87-193 193 0 106 87 193 193 193 106 0 193-87 193-193 0-106-87-193-193-193z m49 194c-36 0-65-20-65-44 0-11 9-23 18-31l-9-26 28 17c9-2 18-4 28-4 36 0 65 20 65 44 0 24-29 44-65 44z m-49 99c-63 0-114-36-114-80 0-20 16-42 32-56l-16-49 50 32c6-2 13-4 20-5-3 6-5 12-5 17 0 32 37 57 82 57 24 0 46-7 61-19 3 7 4 15 4 23 0 44-51 80-114 80z"/>
<glyph unicode="&#33;" d="M256 485c-126 0-229-103-229-229 0-126 103-229 229-229 126 0 229 103 229 229 0 126-103 229-229 229z m0-422c-106 0-193 87-193 193 0 107 87 193 193 193 106 0 193-86 193-193 0-106-87-193-193-193z m0 307c-63 0-114-51-114-114 0-63 51-114 114-114 63 0 114 51 114 114 0 63-51 114-114 114z m51-144l-21-21-30 31-30-31-21 21 31 30-31 30 21 21 30-31 30 31 21-21-31-30z"/>
<glyph unicode="&#34;" d="M256 485c-126 0-229-103-229-229 0-126 103-229 229-229 126 0 229 103 229 229 0 126-103 229-229 229z m0-422c-106 0-193 87-193 193 0 107 87 193 193 193 106 0 193-86 193-193 0-106-87-193-193-193z m0 307c-63 0-114-51-114-114 0-63 51-114 114-114 63 0 114 51 114 114 0 63-51 114-114 114z m0-171c-8 0-14 6-14 14 0 8 6 14 14 14 8 0 14-6 14-14 0-8-6-14-14-14z m7 43l-14 0-7 71 28 0z"/>
<glyph unicode="&#35;" d="M256 484c-126 0-229-102-229-228 0-126 103-229 229-229 126 0 229 103 229 229 0 126-103 228-229 228z m0-421c-106 0-193 86-193 193 0 106 87 193 193 193 106 0 193-87 193-193 0-107-87-193-193-193z m0 307c-63 0-114-51-114-114 0-63 51-114 114-114 63 0 114 51 114 114 0 63-51 114-114 114z m107-114c0-4 0-8 0-11 0 3 0 7 0 11 0 4 0 8 0 11 0-3 0-7 0-11z m-1 13c0 3-1 6-1 9 0-3 1-6 1-9z m-1 10c-2 7-4 14-7 21 3-7 5-14 7-21z m-7 21l-46-22c-5 14-16 25-29 30l21 46c24-11 43-30 54-54z m-48-44c0-7-1-14-4-20-5-11-15-21-26-26-7-3-13-4-20-4-7 0-13 1-19 4-12 5-22 15-27 26-3 6-4 13-4 20 0 7 1 13 4 19 5 12 15 22 27 27 6 2 12 4 19 4 7 0 13-2 20-4 11-5 21-15 26-27 3-6 4-12 4-19z m-37 106c3 0 6-1 10-1-4 0-7 1-10 1z m10-2c7-1 14-3 21-6-7 3-14 5-21 6z m-12 2c-3 1-7 1-11 1-4 0-8 0-11-1 3 1 7 1 11 1 4 0 8 0 11-1z m-24 0c-3 0-6-1-10-1 4 0 7 1 10 1z m-10-2c-7-1-14-3-21-6 7 3 14 5 21 6z m-21-6l21-46c-13-5-24-16-29-30l-46 22c-3-7-5-14-7-21 8 34 31 61 61 75z m-62-87c-1-3-1-7-1-11 0-4 0-8 1-11-1 3-1 7-1 11 0 4 0 8 1 11z m1 12c0-4-1-7-1-10 0 3 1 6 1 10z m7-67c-3 7-5 14-7 21 2-7 4-14 7-21z m-7 21c0 4-1 7-1 10 0-3 1-6 1-10z m7-21l46 21c5-13 16-24 30-30l-22-45c-24 11-43 30-54 54z m85-62c-3 0-6 1-10 1 4 0 7-1 10-1z m-10 1c-7 2-14 4-21 7 7-3 14-5 21-7z m12-2c3 0 7 0 11 0 4 0 8 0 11 0-3 0-7 0-11 0-4 0-8 0-11 0z m24 1c3 0 6 1 10 1-4 0-7-1-10-1z m10 1c4 1 7 2 10 3-3-1-6-2-10-3z m10 3c4 1 7 3 11 4-4-1-7-3-11-4z m11 4l-21 45c13 6 24 17 29 30l46-21c-11-24-30-43-54-54z m62 85c0-3-1-6-1-10 0 4 1 7 1 10z m-1-10c-2-7-4-14-7-21 3 7 5 14 7 21z"/>
<glyph unicode="&#36;" d="M142 270l228 0 0-28-228 0z m114 215c-126 0-229-103-229-229 0-126 103-229 229-229 126 0 229 103 229 229 0 126-103 229-229 229z m0-422c-106 0-193 87-193 193 0 106 86 193 193 193 107 0 193-87 193-193 0-106-87-193-193-193z"/>
<glyph unicode="&#37;" d="M265 235l0 0c-1 0-1 0-2 0l-36-35-1-48-11-11c-1-1-1-1-2-1-2 0-3 0-3 1-1 1-1 2-2 3l-7 27c0 1 0 2-1 2-1 0-1 0-2 0-1 0-3 0-4-2-1-1-2-2-3-3-3-2-6-3-11-3-4 0-5 2-5 5 0 2 0 4 0 6 1 2 2 4 3 5l5 5c0 0 0 0 0 0 0 1 0 1 0 1 1 0 1 1 1 1 0 1-1 2-1 2-1 1-2 1-2 2l-28 6c-2 1-3 2-3 5l0 0c0 0 0 1 0 1l11 11c0 0 1 0 1 1 1 0 1 0 2 0l45 0c0 0 0 0 1 1 0 0 1 0 1 0l33 36c1 1 1 1 1 2 0 2-1 3-2 4l-115 37c-1 0-2 1-2 2 0 0 0 1 0 2l0 1c0 0 0 1 1 1l9 9c0 0 0 1 1 1 0 0 1 0 1 0l161 0 40 42c2 3 6 5 10 7 4 1 8 2 12 2 3 0 5 0 7-1 3-2 4-4 5-7l0-4c0-3 0-7-2-11-1-4-2-7-5-9l-42-41c-1 0-1-1-1-1 0-1 0-2 0-2l0-154c0 0-1-1-1-3 0-1 0-2 0-3 0 0 0 0 0-1-1 0-1 0-1-1l-9-8c-1-1-2-1-2-1-2 0-3 0-4 2l-37 114c-1 1-1 1-2 2 0 1-1 1-2 1z m-9 249c-126 0-229-102-229-228 0-126 103-229 229-229 126 0 229 103 229 229 0 126-103 228-229 228z m0-421c-106 0-193 87-193 193 0 106 87 193 193 193 106 0 193-87 193-193 0-106-87-193-193-193z"/>
<glyph unicode="&#38;" d="M256 485c-126 0-229-103-229-229 0-126 103-229 229-229 126 0 229 103 229 229 0 126-103 229-229 229z m0-422c-106 0-193 87-193 193 0 106 87 193 193 193 107 0 193-87 193-193 0-106-87-193-193-193z m-57 122l143 71-143 71z"/>
<glyph unicode="&#39;" d="M270 370l-28 0 0-100-100 0 0-28 100 0 0-100 28 0 0 100 100 0 0 28-100 0z m-14 115c-126 0-229-103-229-229 0-126 103-229 229-229 126 0 229 103 229 229 0 126-103 229-229 229z m0-422c-106 0-193 87-193 193 0 106 87 193 193 193 106 0 193-87 193-193 0-106-87-193-193-193z"/>
<glyph unicode="&#40;" d="M256 485c-126 0-229-103-229-229 0-126 103-229 229-229 126 0 229 103 229 229 0 126-103 229-229 229z m0-422c-106 0-193 87-193 193 0 107 87 193 193 193 107 0 193-86 193-193 0-106-87-193-193-193z m0 307c-63 0-114-51-114-114 0-63 51-114 114-114 63 0 114 51 114 114 0 63-51 114-114 114z m57-128l-43 0 0-43-28 0 0 43-43 0 0 28 43 0 0 43 28 0 0-43 43 0z"/>
<glyph unicode="&#41;" d="M256 484c-126 0-229-102-229-228 0-126 103-229 229-229 126 0 229 103 229 229 0 126-103 228-229 228z m0-421c-106 0-193 87-193 193 0 107 87 193 193 193 106 0 193-86 193-193 0-106-87-193-193-193z m-14 307l28 0 0-71-28 0z m43-32l0-31c25-11 42-36 42-65 0-40-32-72-71-72-39 0-71 32-71 72 0 29 17 54 42 65l0 31c-41-13-71-51-71-96 0-56 45-100 100-100 55 0 100 44 100 100 0 45-30 83-71 96z"/>
<glyph unicode="&#42;" d="M256 485c-126 0-229-103-229-229 0-126 103-229 229-229 126 0 229 103 229 229 0 126-103 229-229 229z m0-422c-106 0-193 87-193 193 0 106 87 193 193 193 106 0 193-87 193-193 0-106-87-193-193-193z m-14 107l28 0 0-28-28 0z m69 180c-6 6-13 11-22 15-9 3-20 5-32 5-11 0-21-2-30-5-9-4-16-9-23-15-6-7-11-13-14-23-4-9-5-14-5-28l29 0c0 14 4 25 11 34 8 10 18 13 32 13 13 0 22-3 28-9 6-7 10-16 10-27 0-9-3-17-9-24-6-6-12-13-19-20-6-6-12-13-18-20-5-7-7-15-7-24l0-23 28 0 0 12c0 7 1 14 4 19 3 6 6 11 11 15 4 5 9 9 14 14 4 4 9 8 13 13 5 5 8 10 11 16 3 6 4 13 4 21 0 7-1 14-3 22-3 7-7 14-13 19z"/>
<glyph unicode="&#43;" d="M256 485c-126 0-229-103-229-229 0-126 103-229 229-229 126 0 229 103 229 229 0 126-103 229-229 229z m0-422c-106 0-193 87-193 193 0 107 87 193 193 193 106 0 193-86 193-193 0-106-87-193-193-193z m0 307c-63 0-114-51-114-114 0-63 51-114 114-114 63 0 114 51 114 114 0 63-51 114-114 114z m-4-173c-9 0-15 7-15 16 0 9 6 15 15 15 9 0 15-6 15-15 0-9-6-16-15-16z m24 64c-6-7-6-14-6-21l0 2-29 0 0 2c-1 8 2 16 10 25 6 7 10 12 10 17 0 6-4 10-13 10-5 0-12-2-16-5l-6 19c6 3 16 6 28 6 23 0 35-12 35-26 0-13-7-22-13-29z"/>
<glyph unicode="&#44;" d="M256 485c-126 0-229-103-229-229 0-126 103-229 229-229 126 0 229 103 229 229 0 126-103 229-229 229z m0-422c-106 0-193 87-193 193 0 106 87 193 193 193 106 0 193-87 193-193 0-106-87-193-193-193z m-15 256l-27 23c-33-25-58-68-58-114 0-37 21-58 45-58 21 0 38 19 38 41 0 22-15 39-35 39-3 0-8-2-9-2 3 25 23 55 46 71z m78-69c-3 0-8-2-9-2 3 25 23 55 46 71l-27 23c-33-25-58-68-58-114 0-37 21-58 45-58 21 0 39 19 39 41 0 22-15 39-36 39z"/>
<glyph unicode="&#45;" d="M256 484c-126 0-229-102-229-228 0-126 103-228 229-228 126 0 229 102 229 228 0 126-103 228-229 228z m0-421c-106 0-193 86-193 193 0 106 87 193 193 193 106 0 193-87 193-193 0-107-87-193-193-193z m71 193c0-39-32-71-71-71-39 0-71 32-71 71 0 39 32 71 71 71 39 0 71-32 71-71z"/>
<glyph unicode="&#46;" d="M256 485c-126 0-229-103-229-229 0-126 103-229 229-229 126 0 229 103 229 229 0 126-103 229-229 229z m0-422c-106 0-193 87-193 193 0 106 86 193 193 193 107 0 193-87 193-193 0-106-87-193-193-193z m65 198c-37 24-94 24-94 24l0 42-85-71 85-57 0 43c0 0 37 8 73-6 34-13 70-51 70-51 0 0-11 52-49 76z"/>
<glyph unicode="&#47;" d="M256 484c-126 0-229-102-229-228 0-126 103-229 229-229 126 0 229 103 229 229 0 126-103 228-229 228z m0-421c-106 0-193 87-193 193 0 106 87 193 193 193 106 0 193-87 193-193 0-106-87-193-193-193z m32 302c1 0 2 0 3 0 2-1 6-2 10-3 3-1 9-1 10-3 0-3-4-6-6-8-30-30-58-58-88-88-4-4-10-11-15-12-6 0-12 4-16 4-4-2-4-7-5-10-3-8-5-16-7-25-1-4-3-9-3-12 0-2 5-7 8-9 9-9 18-18 27-27 12 3 25 7 37 10 4 1 8 1 11 5 0 4-5 11-4 17 1 5 8 11 12 14 14 13 27 27 40 40 15 15 31 31 47 46 2 2 5 6 7 6 3-1 4-8 4-11 2-4 3-8 3-12 0 0 0-1 0-2-30-31-63-62-94-94-5-4-10-11-14-13-3-2-8-3-13-4-29-8-59-15-88-24-1 0-2 0-3 0-1 1-2 2-2 3 0 1 0 2 0 2 7 28 16 60 24 88 1 4 1 9 3 13 2 4 9 9 13 14 29 28 55 54 83 82 5 4 11 13 16 13z m31-14c3 1 7-3 10-6 5-5 10-10 15-16 3-2 7-5 8-9 0-4-10-11-13-14-27-27-54-53-81-80-3-4-10-13-14-13-4 0-7 5-9 7-6 6-10 10-16 16-2 2-7 6-7 9 0 4 8 10 12 14 28 28 53 52 80 80 3 3 10 12 15 12z"/>
<glyph unicode="&#58;" d="M256 485c-126 0-229-103-229-229 0-126 103-229 229-229 126 0 229 103 229 229 0 126-103 229-229 229z m0-422c-106 0-193 87-193 193 0 106 87 193 193 193 106 0 193-87 193-193 0-106-87-193-193-193z m57 293l29 0 0-29-29 0z m0-115c0-31-25-56-57-56l0 0c-32 0-57 25-57 56l0 72-29 0 0-72c0-47 38-85 85-85l2 0c47 0 85 38 85 85l0 72-29 0z m-143 115l29 0 0-29-29 0z"/>
<glyph unicode="&#59;" d="M256 485c-126 0-229-103-229-229 0-126 103-229 229-229 126 0 229 103 229 229 0 126-103 229-229 229z m0-422c-106 0-193 87-193 193 0 106 86 193 193 193 107 0 193-87 193-193 0-106-87-193-193-193z m71 307c-23-13-47-2-65 0-77 8-101-70-45-101-14-7-14-40 2-45-36-3-43-48-24-66 24-22 97-21 119 0 15 14 17 44 4 58-12 12-72 14-71 34 0 14 22 12 35 17 25 10 39 41 30 65 5 1 10 2 15 3 0 12 0 23 0 35z m-94-72c-29 55 66 51 37 0-9-6-28-7-37 0z m53-108c3-24-55-25-61-8-6 14 1 18 18 22 18 4 41 3 43-14z"/>
<glyph unicode="&#60;" d="M256 485c-126 0-229-103-229-229 0-126 103-229 229-229 126 0 229 103 229 229 0 126-103 229-229 229z m0-422c-107 0-193 87-193 193 0 106 86 193 193 193 106 0 193-87 193-193 0-106-87-193-193-193z"/>
<glyph unicode="&#61;" d="M485 256c0 126-103 229-229 229-126 0-229-103-229-229 0-126 103-229 229-229 126 0 229 103 229 229z m-422 0c0 107 87 193 193 193 106 0 193-86 193-193 0-106-87-193-193-193-106 0-193 87-193 193z m289-39c5 6 5 15 0 21l-86 85c-6 6-15 6-20 0l-86-85c-3-3-4-7-4-11 0-3 1-7 4-10 6-5 15-5 20 0l76 76 76-76c5-5 14-5 20 0z"/>
<glyph unicode="&#62;" d="M256 484c-126 0-229-102-229-228 0-126 103-228 229-228 126 0 228 102 228 228 1 126-102 228-228 228z m0-421c-106 0-193 86-193 193 0 106 87 193 193 193 106 0 193-87 193-193 0-107-87-193-193-193z m3 215c-3 0-6-1-9-3-3-2-6-4-8-7-2-3-4-6-6-10-1-3-2-7-2-10 0-2 0-4 1-6 0-1 1-3 2-5 1-1 3-2 4-3 2-1 4-2 6-2 5 0 9 2 13 5 4 3 6 7 8 12 1 3 2 5 2 7 1 2 1 3 2 4 0 1 0 2 0 3 0 0 0 1 0 1 0 4-1 8-4 10-2 3-5 4-9 4z m-3 92c-63 0-114-51-114-114 0-63 51-114 114-114 63 0 114 51 114 114 0 63-51 114-114 114z m54-122c-2-5-5-10-9-14-4-3-8-6-12-8-5-2-10-3-15-3-3 0-5 1-7 3-1 2-2 4-3 7-2-4-5-6-7-7-3-2-7-2-11-2-3 0-7 0-9 2-3 1-6 3-8 5-2 2-3 5-4 7-1 3-2 6-2 9 0 5 1 9 3 14 2 5 4 9 7 13 3 4 7 7 11 10 5 2 9 3 15 3 2 0 5 0 7-1 2-1 3-2 5-3 1-1 2-3 3-4 1-1 2-2 2-3l4 9 10 0-13-44c-1-2-1-3-1-4 0-3 1-4 3-4 2 0 4 0 6 1 3 1 5 2 8 5 3 2 5 6 7 10 2 4 3 10 3 17 0 5-1 10-3 15-3 5-6 9-10 12-4 4-8 6-13 8-6 2-11 3-16 3-8 0-14-1-21-4-6-2-11-6-16-10-5-5-8-10-11-16-3-7-4-13-4-20 0-7 2-13 4-19 3-6 7-10 11-14 5-4 10-7 16-10 6-2 12-3 18-3 9 0 16 2 23 6 7 3 12 13 16 13l10 0c-2 0-5-9-8-12-4-4-8-7-12-9-5-2-10-4-15-5-5-1-11-2-16-2-8 0-15 1-22 4-6 3-12 6-18 11-5 5-9 11-12 17-3 7-5 14-5 22 0 9 2 18 5 25 3 8 8 14 13 19 6 5 13 9 20 12 8 3 15 4 24 4 6 0 13-1 19-3 7-3 12-6 17-10 5-4 9-9 12-15 3-5 4-12 4-19 0-7-1-13-3-18z"/>
<glyph unicode="&#63;" d="M256 485c-126 0-229-103-229-229 0-126 103-228 229-228 126 0 229 102 229 228 0 126-103 229-229 229z m0-422c-106 0-193 87-193 193 0 106 87 193 193 193 106 0 193-87 193-193 0-106-87-193-193-193z m53 244c1 1 1 2 1 3 0 8-5 12-15 12-5 0-8-1-10-2-1-2-2-5-3-10-4 5-8 9-11 11-4 1-9 2-16 2-16 0-31-8-43-25-11-16-17-33-17-51 0-14 4-26 11-36 8-12 19-18 32-18 11 0 22 4 32 12 5-8 13-12 24-12 21 0 40 9 55 27 14 17 21 37 21 59 0 27-11 49-33 67-21 16-45 24-71 24-35 0-64-11-88-33-24-22-36-51-36-86 0-36 12-64 37-83 22-18 52-26 88-26 16 0 31 2 45 7 16 5 30 13 40 23 4 3 7 7 10 11 4 6 6 10 6 14 0 2-1 5-3 7-2 2-4 3-7 3-5 0-9-2-12-5-5-6-9-10-12-14-18-15-40-23-67-23-28 0-51 7-68 21-19 15-28 37-28 66 0 27 9 50 27 69 17 19 40 28 67 28 21 0 39-6 53-18 15-13 22-30 22-51 0-12-2-22-5-32-5-10-11-19-19-24-6-5-11-7-14-7-4 0-6 2-6 5 0 2 1 9 3 21z m-43-63c-7-19-14-29-22-29-12 0-17 8-17 22 0 12 3 25 10 39 8 17 16 26 26 26 4 0 7-2 10-7 1-3 2-7 2-12 0-10-3-23-9-39z"/>
<glyph unicode="&#64;" d="M485 256c0 126-103 228-229 228-126 0-228-102-228-228 0-126 102-229 228-229 126 0 229 103 229 229z m-422 0c0 106 86 193 193 193 106 0 193-87 193-193 0-107-87-193-193-193-107 0-193 87-193 193z m207-114l0 177 37-34 20 19-71 66-71-66 20-19 37 34 0-177z"/>
<glyph unicode="&#91;" d="M256 484c-126 0-229-102-229-228 0-126 103-229 229-229 126 0 228 103 228 229 1 126-102 228-228 228z m0-421c-106 0-193 87-193 193 0 106 87 193 193 193 106 0 193-87 193-193 0-106-87-193-193-193z m-86 207l72 0 0 72-22-22-35 36-29-29 36-35z m150-50l22 22-72 0 0-72 22 22 35-36 29 29z m0 72l36 35-29 29-35-36-22 22 0-72 72 0z m-128-72l-36-35 29-29 35 36 22-22 0 72-72 0z"/>
<glyph unicode="&#93;" d="M256 27c126 0 229 103 229 229 0 126-103 228-229 228-126 0-229-102-229-228 0-126 103-229 229-229z m0 422c106 0 193-86 193-193 0-106-87-193-193-193-106 0-193 87-193 193 0 107 87 193 193 193z m-114-207l177 0-34-37 19-20 66 71-66 71-19-20 34-37-177 0z"/>
<glyph unicode="&#94;" d="M485 256c0 126-103 229-229 229-126 0-229-103-229-229 0-126 103-229 229-229 126 0 229 103 229 229z m-422 0c0 106 87 193 193 193 106 0 193-87 193-193 0-107-87-193-193-193-106 0-193 86-193 193z m164-100l58 0 0-14-58 0z m0 29l58 0 0-15-58 0z m0 28l58 0 0-14-58 0z m86 100l-57 57-57-57 28 0 0-57 58 0 0 57z m-86-71l58 0 0-15-58 0z"/>
<glyph unicode="&#95;" d="M256 27c126 0 228 103 228 229 0 126-102 229-228 229-126 0-229-103-229-229 0-126 103-229 229-229z m0 422c106 0 193-87 193-193 0-107-87-193-193-193-106 0-193 86-193 193 0 106 87 193 193 193z m-114-164l14 0 0-58-14 0z m28 0l15 0 0-58-15 0z m29 0l14 0 0-58-14 0z m114-86l57 57-57 57 0-28-57 0 0-58 57 0z m-86 86l15 0 0-58-15 0z"/>
<glyph unicode="&#96;" d="M256 485c-126 0-229-103-229-229 0-126 103-229 229-229 126 0 229 103 229 229 0 126-103 229-229 229z m0-422c-106 0-193 86-193 193 0 106 87 193 193 193 106 0 193-87 193-193 0-107-87-193-193-193z m100 222l14 0 0-58-14 0z m-29 0l15 0 0-58-15 0z m-28 0l14 0 0-58-14 0z m-100 28l-57-57 57-57 0 28 57 0 0 58-57 0z m71-28l15 0 0-58-15 0z"/>
<glyph unicode="&#123;" d="M27 256c0-126 103-229 229-229 126 0 229 103 229 229 0 126-103 229-229 229-126 0-229-103-229-229z m422 0c0-107-87-193-193-193-106 0-193 86-193 193 0 106 87 193 193 193 106 0 193-87 193-193z m-222 114l57 0 0-14-57 0z m0-28l57 0 0-15-57 0z m0-29l57 0 0-14-57 0z m-28-114l57-57 57 57-29 0 0 57-57 0 0-57z m28 86l57 0 0-15-57 0z"/>
</font>
</defs>
</svg>
